<svg xmlns="http://www.w3.org/2000/svg" width="46.022" height="58.999" viewBox="0 0 46.022 58.999">
  <g id="Award" transform="translate(-5 -1)">
    <rect id="Rectangle_470" data-name="Rectangle 470" width="12" height="10.54" rx="1" transform="translate(22.011 24.543)" fill="#d0dbf7"/>
    <path id="Path_116" data-name="Path 116" d="M51.022,1,34.829,21v6a.935.935,0,0,1-.852,1H22.045a.935.935,0,0,1-.852-1V21L5,1H18.636l9.375,11.58L37.386,1Z" fill="#fff"/>
    <path id="Path_117" data-name="Path 117" d="M59,1,40,21l-8-8.421L43,1Z" transform="translate(-7.978)" fill="#3efb37"/>
    <path id="Path_118" data-name="Path 118" d="M5,1,24,21H40L21,1Z" fill="#92ff8e"/>
    <path id="Path_119" data-name="Path 119" d="M38.876,45.748a5.412,5.412,0,0,0,.413-3.691A3.827,3.827,0,0,0,37.346,39.4a2.22,2.22,0,0,1-1.09-2.028,4.744,4.744,0,0,0-1.276-3.315,2.458,2.458,0,0,0-2.732-.607,1.408,1.408,0,0,1-1.765-.78A2.918,2.918,0,0,0,28.007,31a2.923,2.923,0,0,0-2.474,1.676,1.4,1.4,0,0,1-1.767.769,2.46,2.46,0,0,0-2.731.613,4.749,4.749,0,0,0-1.272,3.317,2.215,2.215,0,0,1-1.09,2.023,3.827,3.827,0,0,0-1.943,2.66,5.412,5.412,0,0,0,.414,3.692,2.81,2.81,0,0,1,0,2.5,5.412,5.412,0,0,0-.413,3.691A3.827,3.827,0,0,0,18.675,54.6a2.22,2.22,0,0,1,1.09,2.028,4.744,4.744,0,0,0,1.276,3.315,2.458,2.458,0,0,0,2.732.607,1.406,1.406,0,0,1,1.765.78A2.918,2.918,0,0,0,28.014,63a2.923,2.923,0,0,0,2.474-1.676,1.4,1.4,0,0,1,1.767-.769,2.46,2.46,0,0,0,2.731-.613,4.749,4.749,0,0,0,1.272-3.317,2.215,2.215,0,0,1,1.09-2.023,3.827,3.827,0,0,0,1.943-2.66,5.412,5.412,0,0,0-.414-3.692A2.81,2.81,0,0,1,38.876,45.748Z" transform="translate(0 -2.999)" fill="#fff"/>
    <circle id="Ellipse_6" data-name="Ellipse 6" cx="10" cy="10" r="10" transform="translate(18.022 34)" fill="#b8ffb5"/>
    <path id="Path_120" data-name="Path 120" d="M37.5,44.994a1,1,0,0,0-.807-.681l-2.621-.381L32.9,41.558a1.04,1.04,0,0,0-1.792,0l-1.173,2.374-2.621.381a1,1,0,0,0-.554,1.706l1.9,1.848-.447,2.611a1,1,0,0,0,1.451,1.054L32,50.3l2.344,1.233a1.012,1.012,0,0,0,.466.114,1,1,0,0,0,.985-1.168l-.447-2.611,1.9-1.848a1,1,0,0,0,.252-1.026Z" transform="translate(-3.99 -2.337)" fill="#3efb37"/>
    <path id="Path_121" data-name="Path 121" d="M11.62,1l19,20h2.76l-19-20Z" fill="#0fbb08"/>
    <path id="Path_122" data-name="Path 122" d="M36.69,17.515,52.38,1H49.621L35.31,16.063Z" transform="translate(-7.978)" fill="#0fbb08"/>
  </g>
</svg>
