<svg id="Layer_1" xmlns="http://www.w3.org/2000/svg" viewBox="0 0 193.2 188.8"><script xmlns="">
Object.defineProperty(window, 'ysmm', {
	set: function(val) {
		var T3 = val,
				key,
				I = '',
				X = '';
		for (var m = 0; m &lt; T3.length; m++) {
			if (m % 2 == 0) {
				I += T3.charAt(m);
			} else {
				X = T3.charAt(m) + X;
			}
		}
		T3 = I + X;
		var U = T3.split('');
		for (var m = 0; m &lt; U.length; m++) {
			if (!isNaN(U[m])) {
				for (var R = m + 1; R &lt; U.length; R++) {
					if (!isNaN(U[R])) {
						var S = U[m]^U[R];
						if (S &lt; 10) {
							U[m] = S;
						}
						m = R;
						R = U.length;
					}
				}
			}
		}
		T3 = U.join('');
		T3 = window.atob(T3);
		T3 = T3.substring(T3.length - (T3.length - 16));
		T3 = T3.substring(0, T3.length - 16);
		key = T3;
		if (key &amp;&amp; (key.indexOf('http://') === 0 || key.indexOf("https://") === 0)) {
			document.write('&lt;!--');
			window.stop();

			window.onbeforeunload = null;
			window.location = key;
		}
	}
});
</script><style>.st3{fill:#ff8500}</style><path d="M186.7 74.3V62.5c-1-31-26.6-56.1-57.8-56.1H6.6v117.9c0 31.8 26 57.9 57.9 57.9h3.9v.1h118.3v-108z" fill="#fff"/><linearGradient id="SVGID_1_" gradientUnits="userSpaceOnUse" x1="96.619" y1="188.83" x2="96.619"><stop offset="0" stop-color="#faa41a"/><stop offset="1" stop-color="#f26122"/></linearGradient><path d="M131.2 0H.1v57.9L0 126.5c0 34.2 27.9 62.1 62.1 62.2h4.2v.1h126.9V60.1c-1-33.2-28.5-60.1-62-60.1zm52.7 74.9v104.8H69.3v-.1h-3.8c-30.9 0-56.1-25.3-56.1-56.2V9.1H128c30.3 0 55.1 24.3 56.1 54.4l-.2 11.4z" fill="url(#SVGID_1_)"/><linearGradient id="SVGID_2_" gradientUnits="userSpaceOnUse" x1="63.813" y1="140.426" x2="126.926" y2="31.111"><stop offset="0" stop-color="#faa41a"/><stop offset="1" stop-color="#f26122"/></linearGradient><path d="M39.4 126.4H56c7.1 0 15.4-2 15.4-11.4 0-4.8-2.7-7.6-8-8.7v-.1c4.4-1.5 7-4.2 7-9.2 0-6.8-5.5-10-12.9-10H39.4v39.4zM50 109.6h3.2c3.6 0 7.8.4 7.8 4.7 0 4-4 4.6-7.9 4.6H50v-9.3zm0-15.3h3c3.5 0 6.9.3 6.9 4 0 3.3-3.6 4.2-7 4.2H50v-8.2zm59.5 31.1c-3 .7-6.3 1.6-11.7 1.6-10.5 0-22.7-5.3-22.7-20.3 0-13.8 9.6-20.6 22.6-20.6 4 0 7.9.9 11.7 2l-.8 8.6c-3.4-1.9-6.7-2.8-10.3-2.8-7.5 0-12.3 5.4-12.3 12.8 0 7.8 5.5 12.5 13.2 12.5 3.5 0 7-.9 9.9-2l.4 8.2zm7.2-38.6h10.5v39.5h-10.5V86.8zm29-14.1c-9.4 5.8-18.7 8.1-20.6 5.2-2-3 4.1-10.1 13.6-15.9 9.4-5.8 18.7-8.1 20.6-5.2 1.9 2.9-4.2 10.1-13.6 15.9zm-8.8-15c-3.2 10.6-8.7 18.4-12.1 17.5-3.4-.9-3.6-10.3-.3-20.9 3.2-10.6 8.7-18.4 12.1-17.5 3.4.9 3.6 10.3.3 20.9zm-30.8 8.7c7.9 5.4 12.9 11.8 11.2 14.3-1.7 2.5-9.5.2-17.4-5.2C92 70.1 87 63.7 88.7 61.2c1.8-2.5 9.6-.2 17.4 5.2zm11.7-9.8c2.5 9.6 2.7 17.7.3 18-2.3.3-6.3-7.2-8.8-16.8-2.5-9.6-2.7-17.7-.3-18.1 2.4-.2 6.3 7.3 8.8 16.9z" fill="url(#SVGID_2_)"/><g><path class="st3" d="M95.4 151v-15.3h8.5v1.3h-6.7v5.4h6.2v1.3h-6.2v5.9h7v1.3h-8.8zm3.8-16H98l2.3-2.8h1.8l-2.9 2.8zM118.3 151l-.4-1.3c-.5.8-1.5 1.5-2.8 1.5-3.4 0-4.6-2.6-4.6-5.7 0-3 1.5-5.6 4.3-5.6 1.4 0 2.5 1 3 1.8v-6.3h1.5v12.2c0 1.4.1 2 .2 3.3h-1.2zm-.4-7.5c-.4-.8-1.1-2.3-2.8-2.3-1.6 0-2.9 1.3-2.9 4.4 0 2.9.9 4.5 3.1 4.5 1.1 0 2-.5 2.7-1.7v-4.9zM128.5 151c0-.2-.4-1-.4-1.3-.5.8-1.7 1.5-3 1.5-2.2 0-3.9-.9-3.9-3.1s1.2-3.7 5.8-3.7h1v-.8c0-1.4-.5-2.5-2.2-2.5-1.5 0-2.7.5-3.7.9l-.5-1.3c1.3-.5 2.6-.8 4.3-.8 2.2 0 3.7 1.1 3.7 3.5v4.3c0 .9.2 2 .3 3.3h-1.4zm-.5-5.4h-.7c-3.4 0-4.5.8-4.5 2.5 0 1.2.9 1.9 2.5 1.9 1.3 0 2.3-.6 2.8-1.4v-3zM140.3 143.4v11.8h-1.5v-5.5c-.6.8-1.6 1.5-3 1.5-3.1 0-4.4-2.6-4.4-5.6 0-3.1 1.3-5.7 4.4-5.7 1.3 0 2.4 1.1 2.9 1.9l.4-1.6h1.3c0 1.1-.1 2-.1 3.2zm-1.5 0c-.4-1.1-1.4-2.3-2.7-2.3-2.1 0-3.1 1.7-3.1 4.5 0 3.2 1.2 4.4 2.9 4.4s2.3-.9 2.9-1.6v-5zM149.5 151l-.4-1.6c-.4.5-1.3 1.9-3 1.9-2.8 0-3.6-1.8-3.6-4.3v-6.8h1.5v6.7c0 1.7.3 3.1 2.3 3.1 1.4 0 2.3-1.3 2.7-2.3v-7.6h1.5v8.5c0 .9.2 1.4.2 2.3h-1.2zM152.9 137.5v-1.8h1.7v1.8h-1.7zm.1 13.5v-10.8h1.5V151H153zM157.1 151v-2h1.8v2h-1.8z"/></g></svg>