<svg xmlns="http://www.w3.org/2000/svg" width="514.768" height="347.917" viewBox="0 0 514.768 347.917">
  <g id="Group_93" data-name="Group 93" transform="translate(56.769 -101.361)">
    <g id="undraw_Audio_conversation_re_ptsl" transform="translate(-56.769 213.278)">
      <path id="Path_486" data-name="Path 486" d="M243.763,651.707l-.79-.015a183.272,183.272,0,0,1,2.805-26.192c3.417-18.524,9.1-30.689,16.889-36.158l.454.647C244.925,602.764,243.772,651.218,243.763,651.707Z" transform="translate(-219.197 -416.284)" fill="#f1f1f1"/>
      <path id="Path_487" data-name="Path 487" d="M268.763,705.036l-.79-.015c.017-.875.511-21.5,8.631-27.2l.454.647C269.265,683.937,268.767,704.825,268.763,705.036Z" transform="translate(-234.319 -469.802)" fill="#f1f1f1"/>
      <circle id="Ellipse_33" data-name="Ellipse 33" cx="3.951" cy="3.951" r="3.951" transform="translate(44.468 165.873)" fill="#f1f1f1"/>
      <circle id="Ellipse_34" data-name="Ellipse 34" cx="3.951" cy="3.951" r="3.951" transform="translate(42.511 199.854)" fill="#f1f1f1"/>
      <path id="Path_488" data-name="Path 488" d="M257.284,584.615a17.551,17.551,0,0,1-1.193,8.985,15.995,15.995,0,0,1-2.689-17.176A17.554,17.554,0,0,1,257.284,584.615Z" transform="translate(-224.681 -408.471)" fill="#f1f1f1"/>
      <path id="Path_489" data-name="Path 489" d="M284.136,617.629a17.551,17.551,0,0,1-9.056.391,15.995,15.995,0,0,1,16.445-5.641A17.553,17.553,0,0,1,284.136,617.629Z" transform="translate(-238.618 -429.966)" fill="#f1f1f1"/>
      <path id="Path_490" data-name="Path 490" d="M288.651,696.326a12.3,12.3,0,0,1-6.347.274,11.211,11.211,0,0,1,11.527-3.954A12.3,12.3,0,0,1,288.651,696.326Z" transform="translate(-242.988 -478.57)" fill="#f1f1f1"/>
      <path id="Path_493" data-name="Path 493" d="M399.993,594.755H419.1c0,.819,20.886,1.483,20.886,1.483a7.626,7.626,0,0,1,1.252,1.187,7.362,7.362,0,0,1,1.721,4.746v1.187a7.418,7.418,0,0,1-7.416,7.416h-35.55a7.422,7.422,0,0,1-7.416-7.416v-1.187A7.426,7.426,0,0,1,399.993,594.755Z" transform="translate(-309.689 -419.559)" fill="#3f3d56"/>
      <rect id="Rectangle_588" data-name="Rectangle 588" width="7.712" height="44.515" transform="translate(104.197 190.919)" fill="#3f3d56"/>
      <path id="Path_494" data-name="Path 494" d="M441.661,735.132c0,.833-11.687.322-26.1.322s-26.1.511-26.1-.322,11.687-7.441,26.1-7.441S441.661,734.3,441.661,735.132Z" transform="translate(-307.801 -499.969)" fill="#3f3d56"/>
      <path id="Path_495" data-name="Path 495" d="M351.889,548.4h5.74l2.731-22.139h-8.471Z" transform="translate(-212.849 -318.323)" fill="#9f616a"/>
      <path id="Path_496" data-name="Path 496" d="M530.986,728.907h11.3a7.2,7.2,0,0,1,7.2,7.2v.234H530.986Z" transform="translate(-393.41 -500.704)" fill="#2f2e41"/>
      <path id="Path_497" data-name="Path 497" d="M394.824,548.4h5.74l2.73-22.139h-8.471Z" transform="translate(-238.819 -318.323)" fill="#9f616a"/>
      <path id="Path_498" data-name="Path 498" d="M573.92,728.907h11.3a7.2,7.2,0,0,1,7.2,7.2v.234H573.92Z" transform="translate(-419.379 -500.704)" fill="#2f2e41"/>
      <path id="Path_499" data-name="Path 499" d="M500.1,539.054a4.364,4.364,0,0,0-5.628-3.62l-6.388-7.658-5.6,2.747,9.173,10.688a4.388,4.388,0,0,0,8.443-2.156Z" transform="translate(-364.071 -379.044)" fill="#9f616a"/>
      <path id="Path_500" data-name="Path 500" d="M284.842,290.006l3.747,1.538.907,10.585,10.036,27.448-8.524,2.837L281.538,314Z" transform="translate(-170.296 -175.418)" fill="#cbcbcb"/>
      <circle id="Ellipse_38" data-name="Ellipse 38" cx="9.98" cy="9.98" r="9.98" transform="translate(94.837 82.392)" fill="#9f616a"/>
      <path id="Path_501" data-name="Path 501" d="M424.532,357.643s.438-6.063,5.841-3.591,5.05-4.342,3.418-5.546-1.581-1.5-7.553-.7-17.565,2.171-13.816,14.178,9.269,8.881,9.269,8.881-5.105-10.768-2.086-8.709l3.019,2.058,1.593-.337Z" transform="translate(-321.251 -269.914)" fill="#2f2e41"/>
      <path id="Path_502" data-name="Path 502" d="M422.669,363.265l-2.034-11.009a1.506,1.506,0,0,1,1.207-1.754l2.385-.441,2.307,12.49Z" transform="translate(-326.646 -271.549)" fill="#6c63ff"/>
      <circle id="Ellipse_39" data-name="Ellipse 39" cx="4.536" cy="4.536" r="4.536" transform="translate(93.778 88.894)" fill="#6c63ff"/>
      <circle id="Ellipse_40" data-name="Ellipse 40" cx="2.722" cy="2.722" r="2.722" transform="translate(95.593 90.709)" fill="#f2f2f2"/>
      <circle id="Ellipse_41" data-name="Ellipse 41" cx="0.907" cy="0.907" r="0.907" transform="translate(97.407 92.523)" fill="#6c63ff"/>
      <path id="Path_503" data-name="Path 503" d="M406.013,554.4s-3.349,17.707,9.392,19.961,31.132,3.84,31.132,3.84l8.259,38.533,11.1-.991s-1.476-46.385-5.1-50.014S439.9,551.484,439.9,551.484Z" transform="translate(-317.576 -393.385)" fill="#2f2e41"/>
      <path id="Path_504" data-name="Path 504" d="M460.8,540.092l5.572,5.59s40.234,6.481,41.786,15.773c2.343,14.03,5.111,44.539,5.111,44.539l-12.1-.907-4.744-34.68L477.077,566l-22.02-12Z" transform="translate(-347.482 -386.494)" fill="#2f2e41"/>
      <path id="Path_505" data-name="Path 505" d="M430.2,424.774l-3.237-4.291-10.5-.172h0a20.448,20.448,0,0,0-10.841,18.05v27.153a100.419,100.419,0,0,1-.641,11.911c-.682,7.159,37.419-4.2,37.419-4.2l-4.946-40.3S437.856,426.515,430.2,424.774Z" transform="translate(-317.19 -314.041)" fill="#cbcbcb"/>
      <path id="Path_506" data-name="Path 506" d="M466.153,561.769a4.364,4.364,0,0,0-5.628-3.62l-6.388-7.658-5.6,2.747,9.173,10.688a4.388,4.388,0,0,0,8.443-2.156Z" transform="translate(-343.538 -392.784)" fill="#9f616a"/>
      <path id="Path_507" data-name="Path 507" d="M409.636,441.021l-3.327-1.107s-3.988.878-6.351,6.248.042,27.3.042,27.3l24.492,21.148,4.638-8.676-13.584-18.379S421.374,447.747,409.636,441.021Z" transform="translate(-313.525 -325.899)" fill="#cbcbcb"/>
      <path id="Path_508" data-name="Path 508" d="M381.943,747.431H183.2a.4.4,0,1,1,0-.79H381.943a.4.4,0,1,1,0,.79Z" transform="translate(-182.801 -511.431)" fill="#cbcbcb"/>
    </g>
    <g id="undraw_teaching_f1cm" transform="translate(105.632 101.361)">
      <rect id="Rectangle_497" data-name="Rectangle 497" width="31.954" height="9.66" rx="4.83" transform="translate(72.033 48.302)" fill="#1797d1" opacity="0.1"/>
      <rect id="Rectangle_498" data-name="Rectangle 498" width="31.954" height="9.66" rx="4.83" transform="translate(105.473 57.963)" fill="#1797d1" opacity="0.1"/>
      <rect id="Rectangle_499" data-name="Rectangle 499" width="31.954" height="9.66" rx="4.83" transform="translate(138.913 67.623)" fill="#1797d1" opacity="0.1"/>
      <rect id="Rectangle_500" data-name="Rectangle 500" width="31.954" height="9.66" rx="4.83" transform="translate(72.033 33.811)" fill="#1797d1" opacity="0.1"/>
      <rect id="Rectangle_501" data-name="Rectangle 501" width="31.954" height="9.66" rx="4.83" transform="translate(105.473 43.472)" fill="#1797d1" opacity="0.1"/>
      <rect id="Rectangle_502" data-name="Rectangle 502" width="31.954" height="9.66" rx="4.83" transform="translate(138.913 53.132)" fill="#1797d1" opacity="0.1"/>
      <rect id="Rectangle_503" data-name="Rectangle 503" width="31.954" height="9.66" rx="4.83" transform="translate(176.069 48.302)" fill="#1797d1" opacity="0.1"/>
      <rect id="Rectangle_504" data-name="Rectangle 504" width="31.954" height="9.66" rx="4.83" transform="translate(209.509 57.963)" fill="#1797d1" opacity="0.1"/>
      <rect id="Rectangle_505" data-name="Rectangle 505" width="31.954" height="9.66" rx="4.83" transform="translate(242.948 67.623)" fill="#1797d1" opacity="0.1"/>
      <rect id="Rectangle_506" data-name="Rectangle 506" width="31.954" height="9.66" rx="4.83" transform="translate(176.069 33.811)" fill="#1797d1" opacity="0.1"/>
      <rect id="Rectangle_507" data-name="Rectangle 507" width="31.954" height="9.66" rx="4.83" transform="translate(209.509 43.472)" fill="#1797d1" opacity="0.1"/>
      <rect id="Rectangle_508" data-name="Rectangle 508" width="31.954" height="9.66" rx="4.83" transform="translate(242.948 53.132)" fill="#1797d1" opacity="0.1"/>
      <rect id="Rectangle_509" data-name="Rectangle 509" width="31.954" height="9.66" rx="4.83" transform="translate(72.033 14.491)" fill="#1797d1" opacity="0.1"/>
      <rect id="Rectangle_510" data-name="Rectangle 510" width="31.954" height="9.66" rx="4.83" transform="translate(105.473 24.151)" fill="#1797d1" opacity="0.1"/>
      <rect id="Rectangle_511" data-name="Rectangle 511" width="31.954" height="9.66" rx="4.83" transform="translate(138.913 33.811)" fill="#1797d1" opacity="0.1"/>
      <rect id="Rectangle_512" data-name="Rectangle 512" width="31.954" height="9.66" rx="4.83" transform="translate(72.033)" fill="#1797d1" opacity="0.1"/>
      <rect id="Rectangle_513" data-name="Rectangle 513" width="31.954" height="9.66" rx="4.83" transform="translate(105.473 9.66)" fill="#1797d1" opacity="0.1"/>
      <rect id="Rectangle_514" data-name="Rectangle 514" width="31.954" height="9.66" rx="4.83" transform="translate(138.913 19.321)" fill="#1797d1" opacity="0.1"/>
      <rect id="Rectangle_515" data-name="Rectangle 515" width="31.954" height="9.66" rx="4.83" transform="translate(176.069 14.491)" fill="#1797d1" opacity="0.1"/>
      <rect id="Rectangle_516" data-name="Rectangle 516" width="31.954" height="9.66" rx="4.83" transform="translate(209.509 24.151)" fill="#1797d1" opacity="0.1"/>
      <rect id="Rectangle_517" data-name="Rectangle 517" width="31.954" height="9.66" rx="4.83" transform="translate(242.948 33.811)" fill="#1797d1" opacity="0.1"/>
      <rect id="Rectangle_518" data-name="Rectangle 518" width="31.954" height="9.66" rx="4.83" transform="translate(176.069)" fill="#1797d1" opacity="0.1"/>
      <rect id="Rectangle_519" data-name="Rectangle 519" width="31.954" height="9.66" rx="4.83" transform="translate(209.509 9.66)" fill="#1797d1" opacity="0.1"/>
      <rect id="Rectangle_520" data-name="Rectangle 520" width="31.954" height="9.66" rx="4.83" transform="translate(242.948 19.321)" fill="#1797d1" opacity="0.1"/>
      <rect id="Rectangle_521" data-name="Rectangle 521" width="31.954" height="9.66" rx="4.83" transform="translate(72.033 220.332)" fill="#1797d1" opacity="0.1"/>
      <rect id="Rectangle_522" data-name="Rectangle 522" width="31.954" height="9.66" rx="4.83" transform="translate(105.473 229.992)" fill="#1797d1" opacity="0.1"/>
      <rect id="Rectangle_523" data-name="Rectangle 523" width="31.954" height="9.66" rx="4.83" transform="translate(138.913 239.653)" fill="#1797d1" opacity="0.1"/>
      <rect id="Rectangle_524" data-name="Rectangle 524" width="31.954" height="9.66" rx="4.83" transform="translate(72.033 205.841)" fill="#1797d1" opacity="0.1"/>
      <rect id="Rectangle_525" data-name="Rectangle 525" width="31.954" height="9.66" rx="4.83" transform="translate(105.473 215.502)" fill="#1797d1" opacity="0.1"/>
      <rect id="Rectangle_526" data-name="Rectangle 526" width="31.954" height="9.66" rx="4.83" transform="translate(138.913 225.162)" fill="#1797d1" opacity="0.1"/>
      <rect id="Rectangle_527" data-name="Rectangle 527" width="31.954" height="9.66" rx="4.83" transform="translate(176.069 220.332)" fill="#1797d1" opacity="0.1"/>
      <rect id="Rectangle_528" data-name="Rectangle 528" width="31.954" height="9.66" rx="4.83" transform="translate(209.509 229.992)" fill="#1797d1" opacity="0.1"/>
      <rect id="Rectangle_529" data-name="Rectangle 529" width="31.954" height="9.66" rx="4.83" transform="translate(242.948 239.653)" fill="#1797d1" opacity="0.1"/>
      <rect id="Rectangle_530" data-name="Rectangle 530" width="31.954" height="9.66" rx="4.83" transform="translate(176.069 205.841)" fill="#1797d1" opacity="0.1"/>
      <rect id="Rectangle_531" data-name="Rectangle 531" width="31.954" height="9.66" rx="4.83" transform="translate(209.509 215.502)" fill="#1797d1" opacity="0.1"/>
      <rect id="Rectangle_532" data-name="Rectangle 532" width="31.954" height="9.66" rx="4.83" transform="translate(242.948 225.162)" fill="#1797d1" opacity="0.1"/>
      <rect id="Rectangle_533" data-name="Rectangle 533" width="31.954" height="9.66" rx="4.83" transform="translate(72.033 186.52)" fill="#1797d1" opacity="0.1"/>
      <rect id="Rectangle_534" data-name="Rectangle 534" width="31.954" height="9.66" rx="4.83" transform="translate(105.473 196.181)" fill="#1797d1" opacity="0.1"/>
      <rect id="Rectangle_535" data-name="Rectangle 535" width="31.954" height="9.66" rx="4.83" transform="translate(138.913 205.841)" fill="#1797d1" opacity="0.1"/>
      <rect id="Rectangle_536" data-name="Rectangle 536" width="31.954" height="9.66" rx="4.83" transform="translate(72.033 172.03)" fill="#1797d1" opacity="0.1"/>
      <rect id="Rectangle_537" data-name="Rectangle 537" width="31.954" height="9.66" rx="4.83" transform="translate(105.473 181.69)" fill="#1797d1" opacity="0.1"/>
      <rect id="Rectangle_538" data-name="Rectangle 538" width="31.954" height="9.66" rx="4.83" transform="translate(138.913 191.351)" fill="#1797d1" opacity="0.1"/>
      <rect id="Rectangle_539" data-name="Rectangle 539" width="31.954" height="9.66" rx="4.83" transform="translate(176.069 186.52)" fill="#1797d1" opacity="0.1"/>
      <rect id="Rectangle_540" data-name="Rectangle 540" width="31.954" height="9.66" rx="4.83" transform="translate(209.509 196.181)" fill="#1797d1" opacity="0.1"/>
      <rect id="Rectangle_541" data-name="Rectangle 541" width="31.954" height="9.66" rx="4.83" transform="translate(242.948 205.841)" fill="#1797d1" opacity="0.1"/>
      <rect id="Rectangle_542" data-name="Rectangle 542" width="31.954" height="9.66" rx="4.83" transform="translate(176.069 172.03)" fill="#1797d1" opacity="0.1"/>
      <rect id="Rectangle_543" data-name="Rectangle 543" width="31.954" height="9.66" rx="4.83" transform="translate(209.509 181.69)" fill="#1797d1" opacity="0.1"/>
      <rect id="Rectangle_544" data-name="Rectangle 544" width="31.954" height="9.66" rx="4.83" transform="translate(242.948 191.351)" fill="#1797d1" opacity="0.1"/>
      <ellipse id="Ellipse_18" data-name="Ellipse 18" cx="162.927" cy="13.376" rx="162.927" ry="13.376" transform="translate(16.3 254.886)" fill="#1797d1" opacity="0.1"/>
      <path id="Path_350" data-name="Path 350" d="M157.272,250.451c15.364,6.658,24.192,20.436,24.192,20.436s-16.085,2.972-31.452-3.682-24.192-20.436-24.192-20.436S141.9,243.792,157.272,250.451Z" transform="translate(-125.82 -181.044)" fill="#1797d1"/>
      <path id="Path_351" data-name="Path 351" d="M329.967,169.518A32.85,32.85,0,0,1,342.811,158a33.1,33.1,0,0,1-4.366,16.675A32.77,32.77,0,0,1,325.6,186.168,32.79,32.79,0,0,1,329.967,169.518Z" transform="translate(-251.364 -125.675)" fill="#1797d1"/>
      <path id="Path_352" data-name="Path 352" d="M240.978,171.162c3.4,12.135,12.77,20.123,12.77,20.123s3.86-11.693.461-23.832-12.774-20.123-12.774-20.123S237.574,159.023,240.978,171.162Z" transform="translate(-197.309 -118.969)" fill="#46455b"/>
      <rect id="Rectangle_545" data-name="Rectangle 545" width="270.863" height="135.617" rx="7.21" transform="translate(44.167 51.646)" fill="#3f3d56"/>
      <path id="Path_353" data-name="Path 353" d="M118.87,482H389.733v5.5a2.679,2.679,0,0,1-2.679,2.679H121.549a2.679,2.679,0,0,1-2.679-2.679Z" transform="translate(-74.703 -302.911)" opacity="0.1"/>
      <rect id="Rectangle_546" data-name="Rectangle 546" width="20.064" height="10.032" rx="2.5" transform="translate(70.547 169.057)" fill="#1797d1"/>
      <rect id="Rectangle_547" data-name="Rectangle 547" width="13.748" height="1.486" rx="0.743" transform="translate(96.184 177.603)" fill="#1797d1"/>
      <path id="Path_354" data-name="Path 354" d="M314.586,270.591c9.805,1.81,19.808,0,29.572-1.226l29.676-3.716c1.2-.152,2.946-.869,3.652.6.4.821.13,2.6.16,3.545.078,2.6.071,5.2,0,7.8-.134,4.971-.5,9.932-.962,14.881-.9,9.686-2.181,19.321-2.82,29.044-.327,4.949-.49,9.913-.346,14.862.033,1.182.082,2.363.152,3.541.078,1.319.669,3.277-.769,4.158-.821.505-2.437.479-3.377.628-1.486.234-2.972.42-4.488.572-9.991,1-20.112.583-30.141.524l-30.282-.156-7.387-.041c-.669,0-3.08.4-3.493-.394a7.864,7.864,0,0,1,.372-2.345q.171-1.048.372-2.092c.862-4.886,1.88-9.742,2.906-14.595,2.2-10.4,4.459-20.859,5.365-31.486.45-5.332.152-10.712.7-16.033.256-2.471.561-7.985,3.849-8.2,2.787-.186,5.655,0,8.449,0a.557.557,0,1,0,0-1.115c-2.638,0-5.28-.071-7.918-.019-1.754.033-2.972.45-3.808,2.062-2.136,4.139-1.917,9.66-1.984,14.179a172.038,172.038,0,0,1-3.983,31.98c-1.089,5.324-2.263,10.63-3.344,15.958-.509,2.545-1,5.1-1.442,7.658-.208,1.219-1.26,3.905-.334,5.023s3.771.516,5.046.524l8.865.052,16.987.1c10.976.063,21.989.372,32.961.048,5.239-.156,10.775-.372,15.877-1.624a2.543,2.543,0,0,0,2.311-2.69c.089-2.512-.32-5.1-.372-7.624-.372-21.587,4.7-42.874,4.18-64.468-.033-1.468.52-5.168-1.085-6.056a4.054,4.054,0,0,0-2.415-.093c-1.449.167-2.894.372-4.343.542l-18.819,2.348c-6.016.743-12.027,1.546-18.054,2.229-6.38.743-12.822,1.185-19.18,0-.7-.13-1,.944-.3,1.074Z" transform="translate(-230.607 -192.423)" fill="#1797d1"/>
      <path id="Path_355" data-name="Path 355" d="M319.093,308.684l74.244-3.641c.717-.037.721-1.152,0-1.115l-74.244,3.641C318.379,307.6,318.376,308.718,319.093,308.684Z" transform="translate(-246.944 -217.382)" fill="#1797d1"/>
      <path id="Path_356" data-name="Path 356" d="M380.7,285.925a1.858,1.858,0,0,0,.658,3,4.883,4.883,0,0,0,3.166-.175c1.486-.372,2.972-.7,4.5-.973a61.362,61.362,0,0,1,10.065-.936c1.538-.019,3.065.052,4.6.119a4.973,4.973,0,0,0,3.259-.557,2.1,2.1,0,0,0,.372-3.285c-1.486-1.356-4.689-.568-6.406-.427a143.645,143.645,0,0,0-18.526,2.764c-.7.149-.4,1.226.3,1.074q6.045-1.3,12.183-2.1,3.017-.372,6.045-.628c.951-.078,1.9-.149,2.854-.2.372-.022.765-.063,1.144-.052,1.178.026,1.315-.186.609,1.237-.628,1.26-.427,1.115-1.516,1.074-.461,0-.921-.052-1.382-.074q-1.416-.059-2.831-.063-3.013,0-6.012.29c-1.694.163-3.385.394-5.061.691-1.048.186-2.088.4-3.125.639-.457.108-.918.219-1.375.334-.219.059-.442.111-.661.167q-1.219.424-2.077-1.115c.5-.516-.286-1.308-.788-.788Z" transform="translate(-285.682 -203.811)" fill="#1797d1"/>
      <path id="Path_357" data-name="Path 357" d="M387.82,333.228c-5.376-.208-11.184,1.245-14.725,5.573-2.772,3.385-4.351,9.192-1.416,13,3.154,4.087,10.073,3.366,14.245,1.624,4.414-1.858,9.244-5.689,10.571-10.482,1.653-5.986-3.716-10.511-9.307-10.578a.558.558,0,0,0,0,1.115c3.188.037,6.316,1.4,7.8,4.373,1.557,3.129.216,6.413-1.858,8.917-3.322,3.987-8.516,6.993-13.807,6.907-3.177-.048-6.688-1.137-7.673-4.488a10.373,10.373,0,0,1,1.219-8.092c3.054-5.2,9.27-6.963,14.97-6.74.717.026.717-1.089,0-1.115Z" transform="translate(-279.341 -235.257)" fill="#1797d1"/>
      <path id="Path_358" data-name="Path 358" d="M400.107,350.6a1.449,1.449,0,0,0-1.947,1.486c.111,1.449,1.709,1.858,2.909,1.772,1.037-.089,2.248-.472,1.884-1.769a1.665,1.665,0,0,0-.907-1.048,2.1,2.1,0,0,0-1.048-.13c-.137,0-1.4.461-.862-.093l-.877-.115a.914.914,0,0,1,.268.743.561.561,0,0,0,.836.479.743.743,0,0,1,1.007.869.561.561,0,0,0,1.018.431c.372-.669.821-2,.264-2.7a1.189,1.189,0,0,0-1.535-.056,5.376,5.376,0,0,0-.765.658c-.45.4-.743.583-.576-.178a4.818,4.818,0,0,1,2.809-3.043l-.817-.628a11.747,11.747,0,0,1-2.248,4.4l.951.394a2.482,2.482,0,0,1,1.516-2.419h-.546l.29.476c-.108.7.966,1,1.074.294.141-.918-.438-2.11-1.512-1.661a3.5,3.5,0,0,0-1.921,3.311c0,.446.632.791.955.4a13.1,13.1,0,0,0,2.53-4.9.565.565,0,0,0-.821-.628,6.231,6.231,0,0,0-2.7,2.356c-.453.743-1.022,1.9-.561,2.757a1.182,1.182,0,0,0,1.616.457,4.345,4.345,0,0,0,.933-.743c.138-.123.29-.334.472-.372.163-.111.156-.048-.026.2a2.025,2.025,0,0,1-.323,1.085l1.018.427a1.858,1.858,0,0,0-2.642-2.129l.84.483a2.025,2.025,0,0,0-.42-1.312.565.565,0,0,0-.873-.115,1.458,1.458,0,0,0,.037,2.159c.531.405.791,0,1.375-.093,1.98-.256.825.635.126.665a2.636,2.636,0,0,1-.933-.067q-1.163-.394-.145-1.014c.665.271.951-.806.3-1.074Z" transform="translate(-296.968 -244.377)" fill="#1797d1"/>
      <path id="Path_359" data-name="Path 359" d="M391.627,361.22c.457,1.486-1.431,1.977-2.326,2.489a5.18,5.18,0,0,0-1.609,1.408,10.758,10.758,0,0,0-1.594,4.358c-.141.7.933,1,1.078.3a12.631,12.631,0,0,1,.94-3.207c.669-1.33,1.627-1.776,2.876-2.46s2.151-1.743,1.709-3.184c-.208-.684-1.286-.39-1.074.3Z" transform="translate(-289.383 -252.956)" fill="#1797d1"/>
      <path id="Path_360" data-name="Path 360" d="M395.949,360.37a1.078,1.078,0,0,0-.929,1.115c0,.442.294.725.494,1.077a8.509,8.509,0,0,1,1.077,2.345,5.059,5.059,0,0,1-.063,2.972c-.769,1.378-2.159,1.115-3.344,1.115-1.115,0-1.977.372-1.94-1.182a4.942,4.942,0,0,1,1.115-2.445l-1.018-.134a19.416,19.416,0,0,1,.338,3.441c0,.516.791.8,1.037.279a21.526,21.526,0,0,0,1.416-3.916l-1.1-.149.193,2.824a.561.561,0,0,0,1.037.282,1.263,1.263,0,0,0,.279-.5c.037-.175-.3-1.352-.442-.933l1.092.149.078-2.683-1.115.149a5.551,5.551,0,0,1,.208,2.341c-.071.62.973.762,1.115.149l.7-3.6-1.018.13a2.463,2.463,0,0,1,.19,1.605c-.082.713,1.033.706,1.115,0a3.916,3.916,0,0,0-.342-2.166.561.561,0,0,0-1.018.134l-.7,3.6,1.1.149a6.079,6.079,0,0,0-.249-2.634.557.557,0,0,0-1.092.145l-.078,2.683a.56.56,0,0,0,1.1.149l.059-.182a.565.565,0,0,0-.141-.542c-1.156-1.256-1.39.743-1.791,1.3l1.04.282-.193-2.824a.561.561,0,0,0-1.1-.149,19.975,19.975,0,0,1-1.3,3.652l1.04.282a21,21,0,0,0-.372-3.738c-.1-.513-.769-.49-1.018-.134-.743,1.07-2.029,3.407-1.037,4.689.866,1.115,3.589.684,4.752.613,1.835-.1,2.5-1.267,2.7-3a7.342,7.342,0,0,0-.137-2.482c-.1-.438-1.115-3.218-1.419-3.162.706-.13.405-1.208-.3-1.077Z" transform="translate(-291.847 -252.853)" fill="#1797d1"/>
      <path id="Path_361" data-name="Path 361" d="M394.651,364.514l-3.043,4.017.962.561,2.229-3.225-1.018-.431-1.111,4.239a.561.561,0,0,0,1.018.431,19.58,19.58,0,0,1,1.7-2.389l-.929-.542a6.068,6.068,0,0,1-1.4,2.575l.933.542a4.981,4.981,0,0,1,.405-1.486c.286-.643-.621-1.211-.962-.565a13.085,13.085,0,0,1-1.074,1.687l1.018.134L393.6,369l-1.018-.134.163.929a.561.561,0,0,0,.933.245,11.1,11.1,0,0,0,2.229-3.363h-.959a5,5,0,0,1,.524,1.486c.134.669,1.022.42,1.092-.149a30.2,30.2,0,0,0,.245-3.753H395.7V366.6c0,.606.992.784,1.1.149a4.258,4.258,0,0,1,.546-1.6h-.977a2.478,2.478,0,0,1,.372,1.263.557.557,0,0,0,1.115,0l.141-.743h-1.074c.108.658.516,4.362-.936,3.927-.245-.059-.316-.045-.212.041l.331-.706.777-1.646-1.04-.282a4.077,4.077,0,0,1-.323,2.512,1.925,1.925,0,0,1-2.1.431,3.715,3.715,0,0,1-.97-1.018l-.762.743c.617.45,1.616,1.553,2.411,1.616.606.048,1.115-.453,1.512-.855a6.476,6.476,0,0,0,1.817-4.767.557.557,0,0,0-1.115,0v1.271a.557.557,0,0,0,1.115,0v-3.117a.557.557,0,0,0-1.115,0,13.379,13.379,0,0,1-.193,2.229l1.1.149a25.654,25.654,0,0,1-.123-2.672.557.557,0,0,0-1.092-.149c-.167.71-.372,1.408-.568,2.1l1.018-.134-.078-.3c-.052-.71-1.167-.713-1.115,0a2.04,2.04,0,0,0,.23.862.563.563,0,0,0,1.018-.134c.212-.7.4-1.4.568-2.1l-1.1-.149a25.669,25.669,0,0,0,.123,2.671c.056.572.977.817,1.092.149a15.355,15.355,0,0,0,.234-2.541h-1.115v3.117h1.115v-1.271h-1.115a5.358,5.358,0,0,1-1.356,3.82,4.564,4.564,0,0,1-.468.461c-.264.253-.505.216-.717-.115a9.287,9.287,0,0,1-1.535-1.115c-.461-.331-1.092.323-.765.762.855,1.137,2.129,2.4,3.716,1.858,1.668-.591,1.895-2.85,1.769-4.336-.041-.494-.78-.829-1.037-.279-.372.784-.743,1.564-1.115,2.352a2.078,2.078,0,0,0-.334.981c.123.836,1.137.7,1.761.65,2.419-.182,2.036-3.612,1.757-5.336-.093-.572-.925-.483-1.074,0a3.281,3.281,0,0,0-.182,1.055h1.115a4.417,4.417,0,0,0-.524-1.824.561.561,0,0,0-.962,0,5.418,5.418,0,0,0-.661,1.858l1.115.149v-2.337a.557.557,0,0,0-1.115,0,30.213,30.213,0,0,1-.245,3.753l1.1-.149a6.378,6.378,0,0,0-.635-1.739.561.561,0,0,0-.962,0,10.165,10.165,0,0,1-2.055,3.136l.933.245-.164-.929c-.085-.494-.784-.509-1.018-.134a2.445,2.445,0,0,0-.338,1.917c.093.528.762.472,1.018.134a13.037,13.037,0,0,0,1.074-1.683l-.962-.565a6.338,6.338,0,0,0-.52,1.75c-.067.491.516,1,.933.542a7.431,7.431,0,0,0,1.687-3.069c.137-.505-.561-.985-.933-.542a21.292,21.292,0,0,0-1.858,2.6l1.018.431,1.133-4.225a.561.561,0,0,0-1.018-.431l-2.229,3.229c-.416.6.539,1.115.962.561l3.032-4.013c.431-.572-.535-1.115-.962-.565Z" transform="translate(-292.708 -254.493)" fill="#1797d1"/>
      <path id="Path_362" data-name="Path 362" d="M526.348,336.875c4.459-2.727,8-6.8,11.942-10.2,4.273-3.69,8.758-7.126,13.376-10.381,8.969-6.316,18.388-11.968,27.8-17.6a.557.557,0,0,0-.561-.962c-9.411,5.636-18.834,11.277-27.8,17.6-4.232,2.972-8.364,6.123-12.324,9.467-4.31,3.641-8.148,8.174-13,11.113-.613.372-.052,1.338.561.962Z" transform="translate(-377.001 -213.445)" fill="#1797d1"/>
      <path id="Path_363" data-name="Path 363" d="M684.222,253.845c-4.83.49-10.032,1.72-13,5.945-2.567,3.634-2.512,9.973-.1,13.7,2.738,4.239,8.334,4.392,12.681,3.021s8.847-3.775,8.806-8.969a21.677,21.677,0,0,0-2.14-8.215c-.959-2.181-2.657-4.087-5.228-3.846-.71.067-.717,1.182,0,1.115,3.444-.32,4.552,3.771,5.369,6.354.743,2.411,1.43,5.265.264,7.661s-3.979,3.619-6.383,4.5a13.351,13.351,0,0,1-8.174.743c-5.38-1.5-6.866-8.323-5.317-13.16,1.784-5.573,8.1-7.212,13.246-7.732.706-.071.713-1.185,0-1.115Z" transform="translate(-467.367 -185.906)" fill="#1797d1"/>
      <path id="Path_364" data-name="Path 364" d="M704.222,369.845c-4.83.49-10.032,1.72-13,5.945-2.568,3.634-2.512,9.973-.1,13.7,2.738,4.239,8.334,4.392,12.681,3.021s8.847-3.775,8.806-8.969a21.677,21.677,0,0,0-2.14-8.215c-.959-2.181-2.657-4.087-5.228-3.846-.71.067-.717,1.182,0,1.115,3.444-.32,4.552,3.771,5.369,6.354.743,2.411,1.43,5.265.264,7.661s-3.979,3.619-6.383,4.5a13.352,13.352,0,0,1-8.174.743c-5.38-1.5-6.866-8.323-5.317-13.16,1.783-5.573,8.1-7.212,13.246-7.732.706-.071.713-1.185,0-1.115Z" transform="translate(-479.936 -258.805)" fill="#1797d1"/>
      <path id="Path_365" data-name="Path 365" d="M689.622,250.916l3.519,4.013a.561.561,0,0,0,.929-.249c.743-1.954.6-3.979.777-6.034a19.867,19.867,0,0,1,1.579-6.157,20.781,20.781,0,0,1,8.315-9.53c.613-.372.052-1.338-.561-.962a21.818,21.818,0,0,0-8.408,9.237,21.351,21.351,0,0,0-1.858,5.9c-.372,2.411-.033,4.938-.925,7.253l.933-.249-3.5-4.005c-.476-.539-1.26.253-.788.788Z" transform="translate(-480.054 -172.124)" fill="#1797d1"/>
      <path id="Path_366" data-name="Path 366" d="M531.688,412.058q28.747-.877,57.509-.372a.558.558,0,0,0,0-1.115q-28.755-.513-57.509.372C530.971,410.966,530.967,412.08,531.688,412.058Z" transform="translate(-380.547 -284.284)" fill="#1797d1"/>
      <path id="Path_367" data-name="Path 367" d="M697.559,383.424a115.155,115.155,0,0,1,18.827,9.46c.609.372,1.17-.583.561-.962a116.377,116.377,0,0,0-19.076-9.571c-.665-.264-.955.814-.294,1.074Z" transform="translate(-484.903 -266.641)" fill="#1797d1"/>
      <path id="Path_368" data-name="Path 368" d="M711.7,371.409A45.515,45.515,0,0,0,700.769,399.1c-.03.717,1.085.717,1.115,0a44.267,44.267,0,0,1,10.6-26.9C712.949,371.654,712.165,370.862,711.7,371.409Z" transform="translate(-487.144 -259.675)" fill="#1797d1"/>
      <path id="Path_369" data-name="Path 369" d="M329.3,400.974l41.529-.543,4.774-.063c.858,0,1.717-.03,2.575-.033a2.048,2.048,0,0,1,2,2.229c-.056,2.6-1.691,2.508-3.831,2.6l-5.161.234-21.015.925c-3.764.167-7.531.372-11.3.5-3.4.1-9.854-1-8.345-5.945.208-.687-.866-.981-1.078-.3a5.476,5.476,0,0,0,2.69,6.172c3.006,1.806,6.967,1.193,10.285,1.044l25.8-1.17,6.264-.279c1.605-.074,3.838.253,5.313-.494,1.731-.873,2.036-4.34.944-5.8a2.583,2.583,0,0,0-2.229-.843c-2.311-.089-4.663.063-6.978.093l-12.863.171-29.394.372a.558.558,0,0,0,0,1.115Z" transform="translate(-253.346 -277.247)" fill="#1797d1"/>
      <g id="Michel" transform="translate(238.516 83.459)">
        <path id="Path_370" data-name="Path 370" d="M772.982,758.188c-.936.587-2.006.918-2.973,1.434a4.067,4.067,0,0,0-2.181,2.363,1.486,1.486,0,0,0,.048,1.011,1.962,1.962,0,0,0,1.04.825,15.787,15.787,0,0,0,12.488.141,16.457,16.457,0,0,1,2.155-.854,14,14,0,0,1,2.761-.282,21.218,21.218,0,0,0,2.9-.372,2.552,2.552,0,0,0,1.315-.546,2.441,2.441,0,0,0,.591-1.419,11.686,11.686,0,0,0-1.858-8.278,2.8,2.8,0,0,0-.81-.858,3.122,3.122,0,0,0-1.289-.346c-1.858-.227-3.8-.643-5.681-.687-1.345-.03-2.021.609-2.972,1.534C776.552,753.818,775.4,756.676,772.982,758.188Z" transform="translate(-767.762 -581.373)" fill="#323444"/>
        <path id="Path_371" data-name="Path 371" d="M855.13,757.613a8.493,8.493,0,0,0,1.323,5.2,6.871,6.871,0,0,0,1.806,1.579,8.134,8.134,0,0,0,7.884.773,2.341,2.341,0,0,0,.981-.825,2.811,2.811,0,0,0-.033-2.166l-3.56-12.336c-2.3.353-5.681.6-7.725,1.769C854.324,752.452,855.13,755.986,855.13,757.613Z" transform="translate(-822.53 -581.073)" fill="#323444"/>
        <path id="Path_372" data-name="Path 372" d="M773.112,560.659c-.216.68-1,1-1.423,1.568a2.976,2.976,0,0,0-.268,2.423,6.4,6.4,0,0,0,1.631,3.214A3.853,3.853,0,0,0,776.4,569a2.786,2.786,0,0,0,2.27-2.5,4.735,4.735,0,0,0-.349-1.609l-2.534-7.327a.277.277,0,0,0-.457-.2c-.6.282-1.8.58-2.148,1.2S773.365,559.987,773.112,560.659Z" transform="translate(-769.981 -460.076)" fill="#fbb3b2"/>
        <path id="Path_373" data-name="Path 373" d="M773,555.076a12.009,12.009,0,0,0,2.6-1.044,2.684,2.684,0,0,1,2.679.1c.208.171.409.405.68.4a26.6,26.6,0,0,0-1.665-5.291.413.413,0,0,0-.145-.2.42.42,0,0,0-.316,0l-2.5.654c-.925.241-1.033.167-.962,1.077C773.39,551.174,773.6,555.076,773,555.076Z" transform="translate(-771.054 -454.86)" fill="#323444"/>
        <path id="Path_374" data-name="Path 374" d="M769.732,422.691a3.522,3.522,0,0,0-.372,1.958,66.577,66.577,0,0,0,.52,9.85c.115.78.26,1.561.334,2.348a27.1,27.1,0,0,1,.052,3.3l-.372,14.3c-.045,1.75-.134,3.63-1.215,5a2.393,2.393,0,0,0-.435,1.587c.282,3.589.877,7.149,1.468,10.7a6.61,6.61,0,0,1,6,.286,66.014,66.014,0,0,0,3.08-18.206,72.265,72.265,0,0,1,.424-9.111,57.961,57.961,0,0,0-.111-15.342,8.478,8.478,0,0,0-1.6-4.522,6.856,6.856,0,0,0-3.716-2.14C772.411,422.342,771.181,422.714,769.732,422.691Z" transform="translate(-768.061 -375.386)" fill="#5b5583"/>
        <path id="Path_375" data-name="Path 375" d="M769.732,422.691a3.522,3.522,0,0,0-.372,1.958,66.577,66.577,0,0,0,.52,9.85c.115.78.26,1.561.334,2.348a27.1,27.1,0,0,1,.052,3.3l-.372,14.3c-.045,1.75-.134,3.63-1.215,5a2.393,2.393,0,0,0-.435,1.587c.282,3.589.877,7.149,1.468,10.7a6.61,6.61,0,0,1,6,.286,66.014,66.014,0,0,0,3.08-18.206,72.265,72.265,0,0,1,.424-9.111,57.961,57.961,0,0,0-.111-15.342,8.478,8.478,0,0,0-1.6-4.522,6.856,6.856,0,0,0-3.716-2.14C772.411,422.342,771.181,422.714,769.732,422.691Z" transform="translate(-768.061 -375.386)" opacity="0.1"/>
        <path id="Path_376" data-name="Path 376" d="M782.425,526.126a65.62,65.62,0,0,0,3.909,37.988,10.3,10.3,0,0,1,.907,2.809c.2,1.821-.635,3.571-1.115,5.332-1.115,4.005-.472,8.271.242,12.369q.446,2.564.918,5.124c.308,1.664.606,3.474-.167,4.983.665,2.772,1.059,5.518,1.724,8.289a1.576,1.576,0,0,1,.063.68,2,2,0,0,1-.68.91,4.065,4.065,0,0,0-1.037,3.89c1.7-1.219,4.065-.791,6,0s3.849,1.858,5.945,1.858c-.3-2.46-.6-5.042.308-7.349.528-1.338,1.456-2.6,1.43-4.031-.026-1.282-.81-2.426-1-3.693a9.348,9.348,0,0,1,.089-2.363c.5-4.548-.067-9.14-.632-13.681a8.175,8.175,0,0,0-.624-2.6,3.841,3.841,0,0,1-.65-1.646c0-.695.561-1.26.769-1.921.372-1.219-.312-2.876.717-3.63,2.712-1.991,1.672-6.747,1.612-10.11q-.071-4.351-.372-8.694a37.031,37.031,0,0,1,2.051,14.988c-.119,1.665-.338,3.415.312,4.953.5,1.182,1.486,2.155,1.754,3.407a14.259,14.259,0,0,1,.086,2.359,2.431,2.431,0,0,0,.985,2.044c.052,3.582.372,7.412.427,10.994a27.119,27.119,0,0,0,.446,5.462,6.965,6.965,0,0,1,.275,1.761,7.361,7.361,0,0,1-.587,2.166,12.421,12.421,0,0,0,1.858,11.462,5.54,5.54,0,0,1,4.488-2.512,16.282,16.282,0,0,1,5.272.773,10.326,10.326,0,0,1,1.234-6.279,5.14,5.14,0,0,0,.65-1.4,6.19,6.19,0,0,0-.52-2.816,14.158,14.158,0,0,1-.171-4.641,73.433,73.433,0,0,0-.687-15.576,13.194,13.194,0,0,0-.71-2.972c-.134-.342-.3-.669-.409-1.014a7.993,7.993,0,0,1-.3-1.9l-.427-5.945c-.3-4.165,1.066-8.278,2.021-12.343.427-1.821.892-3.638,1.178-5.488.39-2.519.453-5.094,1.025-7.58.513-2.229,1.438-4.4,1.631-6.688.3-3.541-1.174-6.963-2.6-10.21-.594-1.338-2.842-1.2-4.288-1.442-10.251-1.683-21.049-1.694-30.716,2.1A7.643,7.643,0,0,0,782.425,526.126Z" transform="translate(-776.214 -437.336)" fill="#3c354c"/>
        <path id="Path_377" data-name="Path 377" d="M801.812,351.915l1.137,4.421a11.817,11.817,0,0,1,.509,3.125,2.307,2.307,0,0,1-.249,1.115,2.658,2.658,0,0,1-.706.721c-.777.591-1.315,1.969-2.2,2.378.457.8,1.089.279,1.914.676,1.453.706,2.783,1.72,4.358,2.07a9.723,9.723,0,0,0,4.522-.372,15.615,15.615,0,0,0,5.856-2.723c1.683-1.371,2.642-2.582,2.634-4.748-1.858.219-3.511-1.657-4.332-3.344a9.086,9.086,0,0,1-.624-2l-1-4.381a21.473,21.473,0,0,0-3.006,1.419,10.912,10.912,0,0,1-3.415.494,36.783,36.783,0,0,0-6.079.788c-.275.056-.621.23-.554.5" transform="translate(-788.21 -329.073)" fill="#fbb3b2"/>
        <path id="Path_378" data-name="Path 378" d="M801.812,351.915l1.137,4.421a11.817,11.817,0,0,1,.509,3.125,2.307,2.307,0,0,1-.249,1.115,2.658,2.658,0,0,1-.706.721c-.777.591-1.315,1.969-2.2,2.378.457.8,1.089.279,1.914.676,1.453.706,2.783,1.72,4.358,2.07a9.723,9.723,0,0,0,4.522-.372,15.615,15.615,0,0,0,5.856-2.723c1.683-1.371,2.642-2.582,2.634-4.748-1.858.219-3.511-1.657-4.332-3.344a9.086,9.086,0,0,1-.624-2l-1-4.381a21.473,21.473,0,0,0-3.006,1.419,10.912,10.912,0,0,1-3.415.494,36.783,36.783,0,0,0-6.079.788c-.275.056-.621.23-.554.5" transform="translate(-788.21 -329.073)" opacity="0.1"/>
        <circle id="Ellipse_19" data-name="Ellipse 19" cx="9.839" cy="9.839" r="9.839" transform="translate(8.645 5.603)" fill="#fbb3b2"/>
        <path id="Path_379" data-name="Path 379" d="M805.475,369.015a8.919,8.919,0,0,1,2.229-2.972c1.386-1.215,3.281-2.2,3.608-4.013l3,3.5a1.616,1.616,0,0,1,.371.572,1.442,1.442,0,0,1-.282,1.156,12.034,12.034,0,0,1-3.021,2.891,91.751,91.751,0,0,0-7.279,6.42.743.743,0,0,1-.39.238.7.7,0,0,1-.4-.115,16.9,16.9,0,0,1-5.191-4.221c-.108-.13-.242-.279-.416-.267a.535.535,0,0,0-.279.145c-1,.817-2.092,1.795-3.374,1.668a7.991,7.991,0,0,0,2.95-5.2,9.834,9.834,0,0,1,.424-2.032,2.122,2.122,0,0,1,1.449-1.375,3.26,3.26,0,0,0,.832,3.99,8.2,8.2,0,0,0,3.686,1.787C804.654,371.419,805.026,369.989,805.475,369.015Z" transform="translate(-784.283 -337.356)" fill="#323444"/>
        <path id="Path_380" data-name="Path 380" d="M782.527,525.175c1.4.346,2.727.933,4.087,1.367a19.534,19.534,0,0,0,7.673.806,4.143,4.143,0,0,0,2.229-.71c.175-.141.334-.308.52-.438a3.637,3.637,0,0,1,1-.412c3.407-1.066,6.261-3.366,9.029-5.618.089-.074.189-.167.182-.286a.371.371,0,0,0-.111-.212L805.678,518c-3.82.65-7.732.4-11.607.308a16.852,16.852,0,0,0-2.385.063c-.765.089-1.52.282-2.274.446-2.865.624-5.793.862-8.694,1.271a1.341,1.341,0,0,0-.576.178,1.3,1.3,0,0,0-.308.342l-1.018,1.431a4.5,4.5,0,0,0-.855,1.639c-.238,1.115.26,1.486,1.208,1.341A8.821,8.821,0,0,1,782.527,525.175Z" transform="translate(-774.134 -435.374)" fill="#323444"/>
        <path id="Path_381" data-name="Path 381" d="M789.457,380.832a18.1,18.1,0,0,0-3.831-2.991,5.426,5.426,0,0,0-1.858-.743,2.319,2.319,0,0,0-1.9.468c-.331.294-.539.7-.858,1.011a4.27,4.27,0,0,1-1.36.769,24.12,24.12,0,0,0-4.778,2.723,10.961,10.961,0,0,0-2.166,2c-1.683,2.155-1.936,5.087-1.891,7.821.033,1.9,1.858,3.314,3.114,4.737a34.914,34.914,0,0,1,3.188,4.459,6.071,6.071,0,0,1,1.3,3.5c-.071,1.044-.68,2.025-.583,3.065.033.372.152.713.186,1.074a12.083,12.083,0,0,1-.3,2.229,28.35,28.35,0,0,0,.26,3.154,10.038,10.038,0,0,1-.275,2.151c-.713,3.4-1.609,6.811-1.427,10.277l-2.058.372a1.739,1.739,0,0,1-.4,2.776c3.214,1.074,6.688.531,10.1.528,2.82,0,5.629.372,8.445.319a14.6,14.6,0,0,0,8.044-2.155c.632-.431,1.211-.936,1.876-1.312a9.257,9.257,0,0,1,2.842-.929,28.2,28.2,0,0,1,5.573-.5,4.291,4.291,0,0,0,2.638-.513,3.771,3.771,0,0,0,1.115-2.712c.108-1.055.175-2.114.193-3.173a13.693,13.693,0,0,0-.13-2.467,16.151,16.151,0,0,0-.435-1.769l-1.4-4.934c-.58-2.036.227-4.269.4-6.38a1.6,1.6,0,0,0-.334-1.4c-.137-.115-.327-.193-.372-.372a.635.635,0,0,1,.089-.5,27.5,27.5,0,0,1,2.876-4.139,84.618,84.618,0,0,0,4.756-7.308A23.516,23.516,0,0,0,813.79,375.9a6.81,6.81,0,0,0-2.634-1.943,7.8,7.8,0,0,0-2.1-.338c-2.913-.2-5.945-.372-8.483-1.835a1.612,1.612,0,0,0-.606-.256c-.561-.063-.97.49-1.334.929a15.989,15.989,0,0,1-3.526,2.575A25,25,0,0,0,789.457,380.832Z" transform="translate(-769.676 -343.324)" fill="#5b5583"/>
        <path id="Path_382" data-name="Path 382" d="M879.6,418.116a27.9,27.9,0,0,1,.713,5.711,22.217,22.217,0,0,0,.606,3.422,5.461,5.461,0,0,0,.706,1.743,7.669,7.669,0,0,1,1.026,1.442,3.482,3.482,0,0,1,.152,1.159l.045,2.564a9.218,9.218,0,0,1-.606,3.99l-1.6,4.871a29.855,29.855,0,0,1-3.314,7.613,2.2,2.2,0,0,1-.955.9,4.641,4.641,0,0,1-.962.149,2.474,2.474,0,0,0-2.04,2.4,5.646,5.646,0,0,0-1.371-1.4l-3.259-2.6a13.927,13.927,0,0,0-3.63-2.352,9.842,9.842,0,0,0,6.844-8.271,3.716,3.716,0,0,1,.372-1.627c.271-.438.773-.773.81-1.289.045-.65-.691-1.141-.691-1.791,0-.431.32-.788.461-1.193a2.994,2.994,0,0,0,0-1.527l-.45-2.5a1.906,1.906,0,0,0-.223-.713,4.609,4.609,0,0,0-.557-.587c-.773-.866-.431-2.229,0-3.3a31.5,31.5,0,0,1,3.8-6.662,22.766,22.766,0,0,0,1.512-2.162c.394-.684.483-1.631.9-2.229C878.419,415.284,879.144,416.67,879.6,418.116Z" transform="translate(-828.94 -369.94)" fill="#5b5583"/>
        <path id="Path_383" data-name="Path 383" d="M861.237,504.8a1.791,1.791,0,0,0-.424.446,3.756,3.756,0,0,1-1.683,1.2c.372.268.71.531,1.059.8a46.4,46.4,0,0,1,7.06,6.751c.234-.836,1.635-.776,1.977-1.575a1.544,1.544,0,0,0,.074-.713,21.766,21.766,0,0,0-.535-3.716,4.206,4.206,0,0,0-.743-1.739,4.459,4.459,0,0,0-2.1-1.189C864.748,504.663,862.426,504.087,861.237,504.8Z" transform="translate(-825.182 -426.867)" fill="#323444"/>
        <path id="Path_384" data-name="Path 384" d="M842.138,511.23a19.563,19.563,0,0,1-3.344,2.423,12.6,12.6,0,0,0-2.664,1.174,2.647,2.647,0,0,0,2.527,1.367,6,6,0,0,0,2.828-1.037c.665-.409,1.445-.884,2.17-.6.111.565-.372,1.1-.372,1.668a1.682,1.682,0,0,0,.944,1.289c2.229,1.438,5.1,1.319,7.754,1.152a.7.7,0,0,0,.427-.126.672.672,0,0,0,.16-.49c.034-.587.048-1.17.052-1.757a2.519,2.519,0,0,0-1.078-2.482,30.33,30.33,0,0,0-4.644-3.288C845.263,509.577,843.606,510.138,842.138,511.23Z" transform="translate(-810.727 -430.373)" fill="#fbb3b2"/>
        <path id="Path_385" data-name="Path 385" d="M822.246,326.067a2.58,2.58,0,1,0,3.288,2.17A2.8,2.8,0,0,0,822.246,326.067Zm.561,4.667a2.184,2.184,0,1,1,2.27-2.441,2.378,2.378,0,0,1-2.27,2.441Z" transform="translate(-800.307 -314.739)" fill="#3c354c"/>
        <path id="Path_386" data-name="Path 386" d="M800.606,328.667a2.58,2.58,0,1,0,3.288,2.166A2.8,2.8,0,0,0,800.606,328.667Zm.561,4.663a2.184,2.184,0,1,1,2.27-2.441,2.373,2.373,0,0,1-2.27,2.441Z" transform="translate(-786.707 -316.372)" fill="#3c354c"/>
        <path id="Path_387" data-name="Path 387" d="M663.029,259.64l3.585.765-.353.944-3.381-.992Z" transform="translate(-655.1 -246.629)" fill="#3c354c"/>
        <path id="Path_388" data-name="Path 388" d="M711.477,253.18l-3.307,1.594.569.832,3.05-1.765Z" transform="translate(-683.563 -242.569)" fill="#3c354c"/>
        <path id="Path_389" data-name="Path 389" d="M687.31,260.551l2.515-.3-.13.624-2.159.145Z" transform="translate(-670.453 -247.012)" fill="#3c354c"/>
        <path id="Path_390" data-name="Path 390" d="M789.669,308.317a3.992,3.992,0,0,0,.372-1.624,3.467,3.467,0,0,1,.171-.988,2.765,2.765,0,0,1,.81-1.037,7.494,7.494,0,0,1,4.459-1.557,10.307,10.307,0,0,1,5.157,1.115,4.013,4.013,0,0,1,1.282.951c.52.635.632,1.457,1.156,2.084a3.036,3.036,0,0,0,2.846.892,14.8,14.8,0,0,0,.037-1.992,9.63,9.63,0,0,1,.591-1.65,4.055,4.055,0,0,0-2-4.682,7.7,7.7,0,0,1-1.776-1.115,8.4,8.4,0,0,1-.873-1.523,4.058,4.058,0,0,0-4.6-1.334c-.513.193-.966.487-1.486.695a12.251,12.251,0,0,1-3.128.6,9.583,9.583,0,0,0-3.032.8,3.4,3.4,0,0,0-1.9,2.051c-.1.4-.078.817-.178,1.215-.513,2.018-3.823,3-4.009,5.057a2.951,2.951,0,0,0,.843,2.062c.349.412,1.185,1.516,1.776,1.676s1.04-.4,1.605-.594C788.684,309.138,789.223,309.078,789.669,308.317Z" transform="translate(-777.691 -295.621)" fill="#cbceda"/>
      </g>
      <path id="Path_391" data-name="Path 391" d="M912.81,682c0,18.667,11.711,33.774,26.183,33.774" transform="translate(-620.4 -454.98)" fill="#46455b"/>
      <path id="Path_392" data-name="Path 392" d="M983.28,715.143c0-18.879,13.071-34.153,29.223-34.153" transform="translate(-664.687 -454.345)" fill="#1797d1"/>
      <path id="Path_393" data-name="Path 393" d="M938.35,686.56c0,17.734,7.468,32.084,16.694,32.084" transform="translate(-636.451 -457.846)" fill="#1797d1"/>
      <path id="Path_394" data-name="Path 394" d="M983.28,699.093c0-24.121,15.107-43.643,33.774-43.643" transform="translate(-664.687 -438.295)" fill="#46455b"/>
      <ellipse id="Ellipse_20" data-name="Ellipse 20" cx="6.51" cy="1.1" rx="6.51" ry="1.1" transform="translate(310.95 265.048)" fill="#1797d1" opacity="0.1"/>
      <path id="Path_395" data-name="Path 395" d="M968.46,770.157s3.716-.115,4.83-.91,5.711-1.75,5.989-.472,5.573,6.357,1.386,6.391-9.742-.654-10.857-1.334S968.46,770.157,968.46,770.157Z" transform="translate(-655.373 -509.121)" fill="#a8a8a8"/>
      <path id="Path_396" data-name="Path 396" d="M980.744,778.106c-4.191.033-9.739-.654-10.857-1.334-.851-.516-1.189-2.378-1.3-3.232h-.123s.234,2.995,1.353,3.675,6.666,1.367,10.857,1.334c1.211,0,1.627-.442,1.605-1.078C982.107,777.857,981.665,778.1,980.744,778.106Z" transform="translate(-655.373 -512.508)" opacity="0.2"/>
      <path id="Path_397" data-name="Path 397" d="M148.31,711.36c0,14.862,9.315,26.871,20.829,26.871" transform="translate(-139.954 -473.431)" fill="#46455b"/>
      <path id="Path_398" data-name="Path 398" d="M204.37,737.722c0-15.018,10.4-27.172,23.248-27.172" transform="translate(-175.184 -472.922)" fill="#1797d1"/>
      <path id="Path_399" data-name="Path 399" d="M168.62,715c0,14.119,5.945,25.526,13.283,25.526" transform="translate(-152.717 -475.719)" fill="#1797d1"/>
      <path id="Path_400" data-name="Path 400" d="M204.37,724.952c0-19.191,12.02-34.722,26.871-34.722" transform="translate(-175.184 -460.152)" fill="#46455b"/>
      <ellipse id="Ellipse_21" data-name="Ellipse 21" cx="5.179" cy="0.877" rx="5.179" ry="0.877" transform="translate(23.103 268.181)" fill="#1797d1" opacity="0.1"/>
      <path id="Path_401" data-name="Path 401" d="M192.58,781.452s2.954-.093,3.842-.743,4.548-1.393,4.767-.372,4.44,5.057,1.115,5.083-7.751-.52-8.639-1.059S192.58,781.452,192.58,781.452Z" transform="translate(-167.775 -516.463)" fill="#a8a8a8"/>
      <path id="Path_402" data-name="Path 402" d="M202.352,787.854c-3.344.026-7.751-.52-8.639-1.063-.676-.409-.944-1.891-1.037-2.571h-.1s.186,2.382,1.074,2.924,5.306,1.085,8.639,1.059c.962,0,1.3-.349,1.278-.858C203.437,787.642,203.069,787.832,202.352,787.854Z" transform="translate(-167.775 -519.22)" opacity="0.2"/>
    </g>
  </g>
</svg>
