<svg xmlns="http://www.w3.org/2000/svg" width="15.145" height="10.096" viewBox="0 0 15.145 10.096">
  <path id="icons8_card_payment" d="M6.058,5a1.009,1.009,0,0,0-1.01,1.01h10.1A1.009,1.009,0,0,0,14.135,5ZM5.048,6.01H4.907a4.229,4.229,0,0,0-2.794.754C1.52,7.281,0,8.57,0,8.57v1.3S2.172,8.053,2.778,7.523a3.47,3.47,0,0,1,2.13-.5h.141Zm0,1.01v3.864L7.994,9.229H8a1.008,1.008,0,1,1,1.149,1.657L7.611,12.068l-1.8,1.389a3.028,3.028,0,0,1-1.848.629H0V15.1H3.96a4.058,4.058,0,0,0,2.464-.839l2.843-2.189h4.869a1.009,1.009,0,0,0,1.01-1.01V7.019Z" transform="translate(0 -5)" fill="#71777a"/>
</svg>
