<svg id="Certificate" xmlns="http://www.w3.org/2000/svg" width="54" height="53.692" viewBox="0 0 54 53.692">
  <path id="Path_123" data-name="Path 123" d="M56.765,50.648a.849.849,0,0,0-.688-.187,1.226,1.226,0,0,1-.315-.044,2.792,2.792,0,0,0-2.917.923,1.072,1.072,0,0,1-1.633-.011,2.711,2.711,0,0,0-2.133-1.019,2.807,2.807,0,0,0-.767.1,1.468,1.468,0,0,1-.336.05.827.827,0,0,0-.684.185.839.839,0,0,0-.294.642v9.664a.839.839,0,0,0,1.363.655l3.67-2.936,3.67,2.936a.839.839,0,0,0,1.363-.655V51.292a.847.847,0,0,0-.3-.643Z" transform="translate(-7.57 -8.103)" fill="#dc3545"/>
  <path id="Path_124" data-name="Path 124" d="M57.044,50.462a1.227,1.227,0,0,1-.315-.044,2.792,2.792,0,0,0-2.917.923,1.014,1.014,0,0,1-.812.371v6.963l3.67,2.936a.839.839,0,0,0,1.363-.654V51.292a.848.848,0,0,0-.99-.831Z" transform="translate(-8.537 -8.104)" fill="#d1091d"/>
  <rect id="Rectangle_473" data-name="Rectangle 473" width="54" height="37" rx="1" fill="#cca4a7"/>
  <path id="Path_125" data-name="Path 125" d="M50.141,9.034a4.2,4.2,0,0,1-4.195-4.195A.839.839,0,0,0,45.108,4H9.873a.839.839,0,0,0-.839.839A4.2,4.2,0,0,1,4.839,9.034.839.839,0,0,0,4,9.873V28.329a.839.839,0,0,0,.839.839,4.2,4.2,0,0,1,4.195,4.195.839.839,0,0,0,.839.839H50.141a.839.839,0,0,0,.839-.839V9.873A.839.839,0,0,0,50.141,9.034Z" transform="translate(-0.644 -0.644)" fill="#f1bbc0"/>
  <path id="Path_126" data-name="Path 126" d="M59.952,40.7a2.537,2.537,0,0,0,.378-2.3,2.619,2.619,0,0,0-1.706-1.7.947.947,0,0,1-.671-.871,2.573,2.573,0,0,0-1.065-2.045,2.716,2.716,0,0,0-2.4-.414,1.046,1.046,0,0,1-1.122-.346,2.729,2.729,0,0,0-4.279,0,1.047,1.047,0,0,1-1.122.341,2.713,2.713,0,0,0-2.4.414,2.575,2.575,0,0,0-1.066,2.05.945.945,0,0,1-.671.867,2.619,2.619,0,0,0-1.706,1.7,2.536,2.536,0,0,0,.378,2.3.873.873,0,0,1,0,1.051,2.537,2.537,0,0,0-.378,2.3,2.619,2.619,0,0,0,1.706,1.7.947.947,0,0,1,.671.871,2.573,2.573,0,0,0,1.065,2.045,2.716,2.716,0,0,0,2.4.414,1.047,1.047,0,0,1,1.122.346,2.728,2.728,0,0,0,4.279,0,1.05,1.05,0,0,1,1.123-.341,2.72,2.72,0,0,0,2.4-.414,2.575,2.575,0,0,0,1.066-2.049.945.945,0,0,1,.671-.867,2.619,2.619,0,0,0,1.706-1.7,2.536,2.536,0,0,0-.378-2.3.873.873,0,0,1,0-1.05Z" transform="translate(-6.764 -5.154)" fill="#df6873"/>
  <circle id="Ellipse_9" data-name="Ellipse 9" cx="5" cy="5" r="5" transform="translate(39 31)" fill="#dc3545"/>
  <g id="Group_3" data-name="Group 3" transform="translate(13.421 7.55)">
    <rect id="Rectangle_474" data-name="Rectangle 474" width="27" height="5" rx="1" transform="translate(-0.421 0.45)" fill="#dc3545"/>
    <path id="Path_127" data-name="Path 127" d="M20.786,33.62a3.317,3.317,0,0,1-.793-.1,2.852,2.852,0,0,1-1.283-.751,10.215,10.215,0,0,1-1.607.732.84.84,0,0,1-.532-1.594,8.2,8.2,0,0,0,1.134-.5,10.2,10.2,0,0,1-.663-1.482,2.984,2.984,0,0,1,.4-3.02,2.6,2.6,0,0,1,2.414-.88A2.116,2.116,0,0,1,21.5,27.445a3.523,3.523,0,0,1-.149,2.81,4.966,4.966,0,0,1-1.216,1.525.872.872,0,0,0,.252.115c1.214.3,2.433-.928,2.45-.941a.839.839,0,0,1,1.272.073,2,2,0,0,0,1.673.844h1.122a.839.839,0,1,1,0,1.678H25.753a3.712,3.712,0,0,1-2.371-.865,4.567,4.567,0,0,1-2.6.936Zm-1.36-5.956a.963.963,0,0,0-.7.336,1.342,1.342,0,0,0-.1,1.365,8.756,8.756,0,0,0,.482,1.1,3.235,3.235,0,0,0,.75-.948,1.878,1.878,0,0,0,.07-1.51.447.447,0,0,0-.37-.327.706.706,0,0,0-.128-.012Z" transform="translate(-15.997 -11.737)" fill="#dc3545"/>
    <path id="Path_128" data-name="Path 128" d="M42.007,19.678H16.839a.839.839,0,1,1,0-1.678H42.007a.839.839,0,1,1,0,1.678Z" transform="translate(-15.998 -10.45)" fill="#dc3545"/>
    <path id="Path_129" data-name="Path 129" d="M43.134,23.678h-19.3a.839.839,0,0,1,0-1.678h19.3a.839.839,0,0,1,0,1.678Z" transform="translate(-17.125 -11.094)" fill="#dc3545"/>
    <path id="Path_130" data-name="Path 130" d="M45.228,27.678H36.839a.839.839,0,0,1,0-1.678h8.389a.839.839,0,1,1,0,1.678Z" transform="translate(-19.219 -11.738)" fill="#dc3545"/>
  </g>
</svg>
