<svg xmlns="http://www.w3.org/2000/svg" width="17.88" height="13.066" viewBox="0 0 17.88 13.066">
  <path id="icons8_class" d="M1.375,4a.649.649,0,0,0-.688.688v9.628H4.814V12.94H8.94l.408.688-.408.688h8.252V4.688A.649.649,0,0,0,16.5,4ZM13.8,6.214a.634.634,0,0,1,.365.193.61.61,0,0,1-.065.752L10.659,9.91a.408.408,0,0,1-.473.064L6.877,8.685,4.341,9.91a.262.262,0,0,1-.215.064.658.658,0,0,1-.473-.258.531.531,0,0,1,.193-.688L6.6,7.653a.424.424,0,0,1,.408,0l3.181,1.225L13.41,6.342A.473.473,0,0,1,13.8,6.214ZM.752,15A.754.754,0,0,0,0,15.755v1.311H17.88V15.755A.754.754,0,0,0,17.128,15Z" transform="translate(0 -4)" fill="#71777a"/>
</svg>
