<svg xmlns="http://www.w3.org/2000/svg" xmlns:xlink="http://www.w3.org/1999/xlink" width="300.547" height="174.519" viewBox="0 0 300.547 174.519">
  <defs>
    <linearGradient id="linear-gradient" x1="0.5" y1="1" x2="0.5" y2="-0.001" gradientUnits="objectBoundingBox">
      <stop offset="0" stop-color="gray" stop-opacity="0.251"/>
      <stop offset="0.54" stop-color="gray" stop-opacity="0.122"/>
      <stop offset="1" stop-color="gray" stop-opacity="0.102"/>
    </linearGradient>
  </defs>
  <g id="undraw_discount_d4bd_1_" data-name="undraw_discount_d4bd(1)" transform="translate(0 -0.043)" opacity="0.4">
    <g id="Group_94" data-name="Group 94" transform="translate(193.018 0.043)" opacity="0.1">
      <ellipse id="Ellipse_45" data-name="Ellipse 45" cx="5.808" cy="7.602" rx="5.808" ry="7.602" transform="translate(22.146 156.736)" fill="#3f3d56"/>
      <path id="Path_524" data-name="Path 524" d="M857.22,585.158a9.158,9.158,0,0,0,1.223-4.646c0-4.207-2.6-7.6-5.808-7.6s-5.806,3.4-5.806,7.6a9.158,9.158,0,0,0,1.212,4.646,9.505,9.505,0,0,0,0,9.29,9.511,9.511,0,0,0,0,9.293,9.159,9.159,0,0,0-1.212,4.646c0,4.207,2.6,7.6,5.806,7.6s5.808-3.4,5.808-7.6a9.158,9.158,0,0,0-1.212-4.646,9.511,9.511,0,0,0,0-9.292,9.506,9.506,0,0,0,0-9.29Z" transform="translate(-824.67 -453.342)" fill="#3f3d56"/>
      <ellipse id="Ellipse_46" data-name="Ellipse 46" cx="5.808" cy="7.602" rx="5.808" ry="7.602" transform="translate(22.146 110.279)" fill="#3f3d56"/>
      <ellipse id="Ellipse_47" data-name="Ellipse 47" cx="5.808" cy="7.602" rx="5.808" ry="7.602" transform="translate(22.146 100.986)" fill="#3f3d56"/>
      <path id="Path_525" data-name="Path 525" d="M812.253,163.186A27.986,27.986,0,0,0,814.414,160L799.164,157.5l16.505.124a27.873,27.873,0,0,0,.526-22.04l-22.145,11.48,20.426-15a27.82,27.82,0,1,0-45.95,31.13,27.873,27.873,0,0,0-3.171,5.072l19.808,10.292-21.12-7.1a27.82,27.82,0,0,0,4.47,26.121,27.817,27.817,0,1,0,43.728,0,27.817,27.817,0,0,0,0-34.4Z" transform="translate(-762.558 -118.183)" fill="#fff"/>
      <path id="Path_526" data-name="Path 526" d="M762.609,353.59a27.69,27.69,0,0,0,5.953,17.2,27.817,27.817,0,1,0,43.728,0C816.018,366.054,762.609,350.466,762.609,353.59Z" transform="translate(-762.595 -291.388)" opacity="0.1"/>
    </g>
    <g id="Group_95" data-name="Group 95" transform="translate(41.203 59.188)" opacity="0.1">
      <ellipse id="Ellipse_48" data-name="Ellipse 48" cx="3.534" cy="4.628" rx="3.534" ry="4.628" transform="translate(13.324 95.409)" fill="#3f3d56"/>
      <path id="Path_527" data-name="Path 527" d="M242.251,627.367a5.582,5.582,0,0,0,.739-2.829c0-2.556-1.578-4.628-3.537-4.628s-3.534,2.072-3.534,4.628a5.582,5.582,0,0,0,.736,2.829,5.8,5.8,0,0,0,0,5.656,5.8,5.8,0,0,0,0,5.656,5.563,5.563,0,0,0-.736,2.827c0,2.559,1.578,4.63,3.534,4.63s3.537-2.072,3.537-4.63a5.564,5.564,0,0,0-.739-2.827,2096511.722,2096511.722,0,0,1,0-11.312Z" transform="translate(-222.582 -547.128)" fill="#3f3d56"/>
      <ellipse id="Ellipse_49" data-name="Ellipse 49" cx="3.534" cy="4.628" rx="3.534" ry="4.628" transform="translate(13.324 67.126)" fill="#3f3d56"/>
      <ellipse id="Ellipse_50" data-name="Ellipse 50" cx="3.534" cy="4.628" rx="3.534" ry="4.628" transform="translate(13.324 61.47)" fill="#3f3d56"/>
      <path id="Path_528" data-name="Path 528" d="M188.828,370.5a16.851,16.851,0,0,1-1.315-1.938l9.29-1.525-10.047.076a16.978,16.978,0,0,1-.323-13.41l13.471,7-12.429-9.151a16.934,16.934,0,1,1,27.97,18.951,16.915,16.915,0,0,1,1.93,3.084l-12.059,6.269,12.858-4.315a16.944,16.944,0,0,1-2.729,15.9,16.934,16.934,0,1,1-26.621,0,16.939,16.939,0,0,1,0-20.941Z" transform="translate(-185.199 -343.114)" fill="#fff"/>
      <path id="Path_529" data-name="Path 529" d="M219.067,486.391a16.868,16.868,0,0,1-3.623,10.47,16.934,16.934,0,1,1-26.621,0C186.553,493.993,219.067,484.49,219.067,486.391Z" transform="translate(-185.199 -448.533)" opacity="0.1"/>
    </g>
    <g id="Group_96" data-name="Group 96" transform="translate(115.175 27.748)" opacity="0.1">
      <ellipse id="Ellipse_51" data-name="Ellipse 51" cx="4.73" cy="6.192" rx="4.73" ry="6.192" transform="translate(17.828 127.748)" fill="#3f3d56"/>
      <path id="Path_530" data-name="Path 530" d="M542.779,604.2a7.469,7.469,0,0,0,.986-3.786c0-3.418-2.1-6.192-4.733-6.192s-4.733,2.774-4.733,6.192a7.446,7.446,0,0,0,.989,3.786,7.741,7.741,0,0,0,0,7.57,7.736,7.736,0,0,0,0,7.568,7.446,7.446,0,0,0-.989,3.786c0,3.418,2.119,6.192,4.733,6.192s4.733-2.774,4.733-6.192a7.469,7.469,0,0,0-.986-3.786,7.751,7.751,0,0,0,0-7.568,7.757,7.757,0,0,0,0-7.57Z" transform="translate(-516.476 -496.753)" fill="#3f3d56"/>
      <ellipse id="Ellipse_52" data-name="Ellipse 52" cx="4.73" cy="6.192" rx="4.73" ry="6.192" transform="translate(17.828 89.899)" fill="#3f3d56"/>
      <ellipse id="Ellipse_53" data-name="Ellipse 53" cx="4.73" cy="6.192" rx="4.73" ry="6.192" transform="translate(17.828 82.329)" fill="#3f3d56"/>
      <path id="Path_531" data-name="Path 531" d="M471.378,260.268a22.592,22.592,0,0,1-1.762-2.593l12.429-2.04-13.442.1a22.706,22.706,0,0,1-.434-17.957l18.038,9.356-16.637-12.227a22.663,22.663,0,1,1,37.42,25.361,22.7,22.7,0,0,1,2.582,4.134l-16.134,8.383,17.2-5.785a22.671,22.671,0,0,1-3.652,21.28,22.661,22.661,0,1,1-35.624,0,22.669,22.669,0,0,1,0-28.022Z" transform="translate(-466.519 -223.547)" fill="#fff"/>
      <path id="Path_532" data-name="Path 532" d="M511.84,415.553a22.563,22.563,0,0,1-4.849,14.01,22.661,22.661,0,1,1-35.624,0C468.331,425.708,511.84,413.008,511.84,415.553Z" transform="translate(-466.519 -364.819)" opacity="0.1"/>
    </g>
    <path id="Path_533" data-name="Path 533" d="M362.4,734.113c0,1.807-13.205,3.458-35.038,4.733-3.97.229-8.225.447-12.737.652q-5.848.263-12.259.5-6.211.221-12.9.41c-14.078.4-29.642.692-46.176.836q-6.019.055-12.2.084-6.437.029-13.021.026c-79.709,0-144.323-3.237-144.323-7.231s64.614-7.231,144.323-7.231c34.317,0,65.831.6,90.6,1.6l2.708.11h.016C342.6,729.924,362.4,731.915,362.4,734.113Z" transform="translate(-61.852 -566.79)" fill="#3f3d56"/>
    <path id="Path_534" data-name="Path 534" d="M362.4,734.113c0,1.807-13.205,3.458-35.038,4.733-3.97.229-8.225.447-12.737.652q-5.848.263-12.259.5-6.211.221-12.9.41c-14.078.4-29.642.692-46.176.836q-6.019.055-12.2.084-6.437.029-13.021.026c-79.709,0-144.323-3.237-144.323-7.231s64.614-7.231,144.323-7.231c34.317,0,65.831.6,90.6,1.6l2.708.11h.016C342.6,729.924,362.4,731.915,362.4,734.113Z" transform="translate(-61.852 -566.79)" opacity="0.15"/>
    <path id="Path_535" data-name="Path 535" d="M317.149,732.546c0,1.509-13.205,2.892-35.038,3.944-3.968.192-8.225.373-12.734.544q-5.851.221-12.259.415-6.211.184-12.9.344c-14.081.337-29.645.578-46.179.7q-6.014.045-12.2.068-6.437.024-13.018.024c-79.709,0-144.326-2.706-144.326-6.048s64.616-6.048,144.326-6.048c34.314,0,65.829.5,90.6,1.338l2.708.092h.018C297.362,729.043,317.149,730.7,317.149,732.546Z" transform="translate(-28.5 -566.495)" fill="#3f3d56"/>
    <path id="Path_536" data-name="Path 536" d="M160.1,506.833l-3.623-11.094,86.772-.949,3.555,10.983Z" transform="translate(-122.828 -395.719)" fill="#3f3d56"/>
    <path id="Path_537" data-name="Path 537" d="M160.1,506.833l-3.623-11.094,86.772-.949,3.555,10.983Z" transform="translate(-122.828 -395.719)" opacity="0.15"/>
    <path id="Path_538" data-name="Path 538" d="M138.1,506.833l-3.623-11.094,86.772-.949,3.555,10.983Z" transform="translate(-106.613 -395.719)" fill="#3f3d56"/>
    <path id="Path_539" data-name="Path 539" d="M630.416,271.368q-13.458,0-21.212-10.684T601.45,234.8q0-15.3,7.5-25.832t21.157-10.518q14.483,0,21.825,11.094a45.471,45.471,0,0,1,7.344,25.679q0,14.48-7.6,25.316T630.416,271.368Zm.263-8.012a14.271,14.271,0,0,0,13.234-7.717q4.381-7.717,4.381-19.458,0-13.068-4.483-21.4t-13.752-8.335q-17.617,0-17.617,27.988,0,28.927,18.233,28.924Zm2.956,76.725H620.658l84.953-140.2h12.732Zm75.155,1.438q-13.66,0-21.3-10.781t-7.67-25.887q0-15.2,7.447-25.729T708.477,268.6q14.381,0,21.672,11.094a45.7,45.7,0,0,1,7.294,25.677,43.234,43.234,0,0,1-7.549,25.269q-7.549,10.883-21.109,10.875Zm.152-8.217a14.215,14.215,0,0,0,13.163-7.586q4.352-7.586,4.352-19.379,0-12.621-4.4-21.17t-13.723-8.562q-17.72,0-17.72,27.988Q690.6,333.3,708.937,333.3Z" transform="translate(-450.795 -177.301)" fill="#3f3d56"/>
    <path id="Path_540" data-name="Path 540" d="M630.416,271.368q-13.458,0-21.212-10.684T601.45,234.8q0-15.3,7.5-25.832t21.157-10.518q14.483,0,21.825,11.094a45.471,45.471,0,0,1,7.344,25.679q0,14.48-7.6,25.316T630.416,271.368Zm.263-8.012a14.271,14.271,0,0,0,13.234-7.717q4.381-7.717,4.381-19.458,0-13.068-4.483-21.4t-13.752-8.335q-17.617,0-17.617,27.988,0,28.927,18.233,28.924Zm2.956,76.725H620.658l84.953-140.2h12.732Zm75.155,1.438q-13.66,0-21.3-10.781t-7.67-25.887q0-15.2,7.447-25.729T708.477,268.6q14.381,0,21.672,11.094a45.7,45.7,0,0,1,7.294,25.677,43.234,43.234,0,0,1-7.549,25.269q-7.549,10.883-21.109,10.875Zm.152-8.217a14.215,14.215,0,0,0,13.163-7.586q4.352-7.586,4.352-19.379,0-12.621-4.4-21.17t-13.723-8.562q-17.72,0-17.72,27.988Q690.6,333.3,708.937,333.3Z" transform="translate(-450.795 -177.301)" fill="#3f3d56"/>
    <path id="Path_541" data-name="Path 541" d="M630.416,271.368q-13.458,0-21.212-10.684T601.45,234.8q0-15.3,7.5-25.832t21.157-10.518q14.483,0,21.825,11.094a45.471,45.471,0,0,1,7.344,25.679q0,14.48-7.6,25.316T630.416,271.368Zm.263-8.012a14.271,14.271,0,0,0,13.234-7.717q4.381-7.717,4.381-19.458,0-13.068-4.483-21.4t-13.752-8.335q-17.617,0-17.617,27.988,0,28.927,18.233,28.924Zm2.956,76.725H620.658l84.953-140.2h12.732Zm75.155,1.438q-13.66,0-21.3-10.781t-7.67-25.887q0-15.2,7.447-25.729T708.477,268.6q14.381,0,21.672,11.094a45.7,45.7,0,0,1,7.294,25.677,43.234,43.234,0,0,1-7.549,25.269q-7.549,10.883-21.109,10.875Zm.152-8.217a14.215,14.215,0,0,0,13.163-7.586q4.352-7.586,4.352-19.379,0-12.621-4.4-21.17t-13.723-8.562q-17.72,0-17.72,27.988Q690.6,333.3,708.937,333.3Z" transform="translate(-450.795 -177.301)" opacity="0.15"/>
    <path id="Path_542" data-name="Path 542" d="M599.416,271.368q-13.458,0-21.212-10.684T570.45,234.8q0-15.3,7.5-25.832t21.157-10.518q14.483,0,21.824,11.094a45.47,45.47,0,0,1,7.344,25.679q0,14.48-7.6,25.316T599.416,271.368Zm.263-8.012a14.271,14.271,0,0,0,13.234-7.717q4.381-7.717,4.381-19.458,0-13.068-4.483-21.4t-13.752-8.335q-17.617,0-17.617,27.988,0,28.927,18.233,28.924Zm2.956,76.725H589.658l84.953-140.2h12.732Zm75.155,1.438q-13.66,0-21.3-10.781t-7.67-25.887q0-15.2,7.447-25.729T677.477,268.6q14.38,0,21.672,11.094a45.7,45.7,0,0,1,7.294,25.677,43.234,43.234,0,0,1-7.549,25.269q-7.549,10.883-21.109,10.875Zm.152-8.217a14.215,14.215,0,0,0,13.163-7.586q4.352-7.586,4.352-19.379,0-12.621-4.4-21.17t-13.728-8.562q-17.72,0-17.72,27.988,0,28.711,18.333,28.708Z" transform="translate(-427.947 -177.301)" fill="#3f3d56"/>
    <path id="Path_543" data-name="Path 543" d="M775.493,626.473c1.083-2.009-.147-4.47-1.562-6.263s-3.14-3.655-3.1-5.94c.053-3.279,3.534-5.217,6.311-6.958a30.783,30.783,0,0,0,5.674-4.56,8.33,8.33,0,0,0,1.743-2.335,9.542,9.542,0,0,0,.526-4.147q-.181-7.026-.694-14.031" transform="translate(-575.636 -460.175)" fill="none" stroke="#3f3d56" stroke-miterlimit="10" stroke-width="4"/>
    <path id="Path_544" data-name="Path 544" d="M813.849,567.588A5.109,5.109,0,0,0,811.3,563.4l-1.146,2.267.034-2.745a5.18,5.18,0,0,0-1.685-.2,5.117,5.117,0,1,0,5.351,4.872Z" transform="translate(-599.806 -445.78)" fill="#fff"/>
    <path id="Path_545" data-name="Path 545" d="M780.738,692.1a5.114,5.114,0,1,1,.247-4.12l-3.2,2.6,3.523-.82A5.1,5.1,0,0,1,780.738,692.1Z" transform="translate(-575.818 -535.655)" fill="#fff"/>
    <path id="Path_546" data-name="Path 546" d="M783.194,646.5a5.117,5.117,0,0,1-5.351-4.872,5.059,5.059,0,0,1,.442-2.332,5.125,5.125,0,0,1,3.276-2.837l-.029,2.1,1.16-2.293h0a5.117,5.117,0,0,1,.479,10.223Z" transform="translate(-580.801 -499.989)" fill="#fff"/>
    <path id="Path_547" data-name="Path 547" d="M830.429,615.077a5.119,5.119,0,1,1,2.261-9.577l-.9,2.477,1.862-1.786a5.1,5.1,0,0,1,1.659,3.531,4.994,4.994,0,0,1-.131,1.409A5.12,5.12,0,0,1,830.429,615.077Z" transform="translate(-615.615 -476.835)" fill="#fff"/>
    <path id="Path_548" data-name="Path 548" d="M813.167,576.809c-1.181.129-2.327.5-3.513.571a3.817,3.817,0,0,1-3.237-1.133,15.638,15.638,0,0,1-.947-1.664,3.627,3.627,0,0,0-1.288-1.212,5.117,5.117,0,1,0,9.566,3.395C813.554,576.775,813.362,576.788,813.167,576.809Z" transform="translate(-599.813 -453.637)" opacity="0.1"/>
    <path id="Path_549" data-name="Path 549" d="M830.439,623.3a5.122,5.122,0,0,1-4.867-7.3,3.835,3.835,0,0,1,1.028,1.031,16.83,16.83,0,0,0,1.015,1.691,4.171,4.171,0,0,0,3.392,1.188c1.233-.055,2.427-.408,3.657-.526.171-.016.345-.026.526-.032a5.119,5.119,0,0,1-4.751,3.947Z" transform="translate(-615.625 -485.058)" opacity="0.1"/>
    <path id="Path_550" data-name="Path 550" d="M783.194,654.995a5.117,5.117,0,0,1-5.351-4.872,5.059,5.059,0,0,1,.442-2.332,4.117,4.117,0,0,1,1.081,1.052,17.539,17.539,0,0,0,1.112,1.725,4.733,4.733,0,0,0,3.621,1.267c1.307-.032,2.487-.337,3.747-.434A5.119,5.119,0,0,1,783.194,654.995Z" transform="translate(-580.801 -508.489)" opacity="0.1"/>
    <path id="Path_551" data-name="Path 551" d="M780.69,701.3a14.525,14.525,0,1,0-8.207-3.174,20.076,20.076,0,0,0,1.37,1.82,6.428,6.428,0,0,0,4.239,1.488A21.809,21.809,0,0,0,780.69,701.3Z" transform="translate(-575.771 -544.848)" opacity="0.1"/>
    <path id="Path_552" data-name="Path 552" d="M1076.493,625.473c1.083-2.009-.147-4.47-1.562-6.263s-3.14-3.655-3.1-5.94c.053-3.279,3.534-5.217,6.311-6.957a30.782,30.782,0,0,0,5.674-4.56,8.324,8.324,0,0,0,1.743-2.335,9.546,9.546,0,0,0,.526-4.147q-.182-7.026-.694-14.031" transform="translate(-797.489 -459.438)" fill="none" stroke="#3f3d56" stroke-miterlimit="10" stroke-width="4"/>
    <path id="Path_553" data-name="Path 553" d="M1114.849,566.588a5.109,5.109,0,0,0-2.553-4.191l-1.147,2.267.034-2.745a5.175,5.175,0,0,0-1.686-.2,5.117,5.117,0,1,0,5.351,4.872Z" transform="translate(-821.659 -445.043)" fill="#fff"/>
    <path id="Path_554" data-name="Path 554" d="M1081.737,691.1a5.114,5.114,0,1,1,.247-4.12l-3.2,2.6,3.524-.82A5.1,5.1,0,0,1,1081.737,691.1Z" transform="translate(-797.671 -534.918)" fill="#fff"/>
    <path id="Path_555" data-name="Path 555" d="M1084.194,645.5a5.117,5.117,0,0,1-5.351-4.872,5.06,5.06,0,0,1,.442-2.332,5.125,5.125,0,0,1,3.276-2.837l-.029,2.1,1.16-2.293h.013a5.117,5.117,0,1,1,.479,10.223Z" transform="translate(-802.655 -499.252)" fill="#fff"/>
    <path id="Path_556" data-name="Path 556" d="M1131.428,614.077a5.119,5.119,0,1,1,2.261-9.577l-.9,2.477,1.862-1.785a5.1,5.1,0,0,1,1.659,3.531,5,5,0,0,1-.131,1.409A5.12,5.12,0,0,1,1131.428,614.077Z" transform="translate(-837.468 -476.098)" fill="#fff"/>
    <path id="Path_557" data-name="Path 557" d="M1114.167,575.809c-1.181.129-2.327.5-3.513.571a3.817,3.817,0,0,1-3.237-1.133,15.648,15.648,0,0,1-.947-1.664,3.624,3.624,0,0,0-1.288-1.212,5.117,5.117,0,1,0,9.566,3.395C1114.554,575.775,1114.362,575.788,1114.167,575.809Z" transform="translate(-821.666 -452.9)" opacity="0.1"/>
    <path id="Path_558" data-name="Path 558" d="M1131.438,622.3a5.122,5.122,0,0,1-4.867-7.3,3.831,3.831,0,0,1,1.028,1.031,16.824,16.824,0,0,0,1.015,1.691,4.171,4.171,0,0,0,3.392,1.188c1.233-.055,2.427-.407,3.658-.526.171-.016.344-.026.526-.031A5.119,5.119,0,0,1,1131.438,622.3Z" transform="translate(-837.478 -484.321)" opacity="0.1"/>
    <path id="Path_559" data-name="Path 559" d="M1084.194,653.995a5.117,5.117,0,0,1-5.351-4.872,5.06,5.06,0,0,1,.442-2.332,4.121,4.121,0,0,1,1.081,1.052,17.508,17.508,0,0,0,1.112,1.725,4.733,4.733,0,0,0,3.621,1.267c1.267-.026,2.487-.337,3.747-.434A5.12,5.12,0,0,1,1084.194,653.995Z" transform="translate(-802.655 -507.752)" opacity="0.1"/>
    <path id="Path_560" data-name="Path 560" d="M1081.69,700.3a14.527,14.527,0,1,0-8.207-3.174,20.06,20.06,0,0,0,1.37,1.82,6.428,6.428,0,0,0,4.239,1.488A21.783,21.783,0,0,0,1081.69,700.3Z" transform="translate(-797.625 -544.111)" opacity="0.1"/>
    <path id="Path_561" data-name="Path 561" d="M111.514,612.473c-1.083-2.009.147-4.47,1.562-6.263s3.14-3.655,3.1-5.94c-.053-3.279-3.534-5.217-6.311-6.958a30.784,30.784,0,0,1-5.674-4.559,8.328,8.328,0,0,1-1.743-2.335,9.541,9.541,0,0,1-.526-4.147q.181-7.026.694-14.031" transform="translate(-82.608 -449.856)" fill="none" stroke="#3f3d56" stroke-miterlimit="10" stroke-width="4"/>
    <path id="Path_562" data-name="Path 562" d="M84.464,553.588a5.109,5.109,0,0,1,2.553-4.191l1.146,2.267-.034-2.745a5.177,5.177,0,0,1,1.685-.2,5.117,5.117,0,1,1-5.351,4.872Z" transform="translate(-69.744 -435.461)" fill="#fff"/>
    <path id="Path_563" data-name="Path 563" d="M117.573,678.1a5.114,5.114,0,1,0-.247-4.12l3.2,2.6-3.523-.82a5.1,5.1,0,0,0,.573,2.34Z" transform="translate(-93.729 -525.336)" fill="#fff"/>
    <path id="Path_564" data-name="Path 564" d="M115.183,632.5a5.117,5.117,0,0,0,5.351-4.872,5.059,5.059,0,0,0-.442-2.332,5.125,5.125,0,0,0-3.276-2.837l.029,2.1-1.16-2.293h0a5.117,5.117,0,1,0-.479,10.223Z" transform="translate(-88.812 -489.671)" fill="#fff"/>
    <path id="Path_565" data-name="Path 565" d="M67.861,601.078a5.119,5.119,0,1,0-2.248-9.576l.9,2.477L64.642,592.2a5.1,5.1,0,0,0-1.659,3.523,5,5,0,0,0,.131,1.409A5.12,5.12,0,0,0,67.861,601.078Z" transform="translate(-53.911 -466.518)" fill="#fff"/>
    <path id="Path_566" data-name="Path 566" d="M85.471,562.809c1.181.129,2.327.5,3.513.571a3.816,3.816,0,0,0,3.237-1.133,15.622,15.622,0,0,0,.947-1.664,3.627,3.627,0,0,1,1.288-1.212,5.117,5.117,0,1,1-9.566,3.395C85.085,562.775,85.277,562.788,85.471,562.809Z" transform="translate(-70.062 -443.318)" opacity="0.1"/>
    <path id="Path_567" data-name="Path 567" d="M68.231,609.3A5.122,5.122,0,0,0,73.1,602a3.834,3.834,0,0,0-1.028,1.031,16.829,16.829,0,0,1-1.015,1.691,4.171,4.171,0,0,1-3.392,1.188c-1.233-.055-2.427-.408-3.658-.526-.171-.016-.344-.026-.526-.032A5.119,5.119,0,0,0,68.231,609.3Z" transform="translate(-54.282 -474.739)" opacity="0.1"/>
    <path id="Path_568" data-name="Path 568" d="M115.752,640.995a5.117,5.117,0,0,0,5.351-4.872,5.059,5.059,0,0,0-.442-2.332,4.118,4.118,0,0,0-1.081,1.052,17.507,17.507,0,0,1-1.112,1.725,4.733,4.733,0,0,1-3.621,1.267c-1.267-.026-2.487-.337-3.747-.434A5.12,5.12,0,0,0,115.752,640.995Z" transform="translate(-89.381 -498.17)" opacity="0.1"/>
    <path id="Path_569" data-name="Path 569" d="M119.18,687.3a5.117,5.117,0,0,0,9.329-4.176,5.155,5.155,0,0,0-1.123,1,20.079,20.079,0,0,1-1.37,1.82,6.429,6.429,0,0,1-4.239,1.488A21.781,21.781,0,0,1,119.18,687.3Z" transform="translate(-95.336 -534.529)" opacity="0.1"/>
    <path id="Path_570" data-name="Path 570" d="M545.72,610a4.084,4.084,0,0,0-1.625-3.292,234.167,234.167,0,0,0-7.171-8.241h0a4.031,4.031,0,0,0-.592-.139h-.058l-.1-.013h-.542a4.678,4.678,0,0,0-4.52,4c-1.459-.337-2.8.1-3.037,1.023a1.249,1.249,0,0,0,.039.739,3.2,3.2,0,0,0,2.143,1.738l.142.042c.071.021.142.037.213.053h.047a3.681,3.681,0,0,0,1.607,4.815.834.834,0,0,0-.095.06,1.315,1.315,0,0,0-.316.442,6.4,6.4,0,0,0-.61,1.47c-.105.439-.124.9-.263,1.333a11.921,11.921,0,0,0-.926,2.319c-.032.373.029.813-.237,1.068a1.747,1.747,0,0,1-.21.155,1.626,1.626,0,0,0-.463.484,1.546,1.546,0,0,1-.308.426c-.239.181-.634.163-.752.442s.187.607.116.912c-.058.247-.329.36-.526.526a1.865,1.865,0,0,0-.447.849,2.719,2.719,0,0,1-2.243-.571,4.2,4.2,0,0,1,.231.839,3.534,3.534,0,0,0-1.21-.6,3.863,3.863,0,0,1-1.288-.957l.689-.095-3.05-4.628-.9-.184.807,1.549a.484.484,0,0,0-.263.331,1.41,1.41,0,0,0-.031.526,9.736,9.736,0,0,0,.208,1.233l.234,1.089a2.82,2.82,0,0,0,.076.3,3.068,3.068,0,0,0-.9.1,7.946,7.946,0,0,0-1.875-.444.957.957,0,0,0-.423.021,1.026,1.026,0,0,0-.394.321A12.619,12.619,0,0,0,515.5,622a65.857,65.857,0,0,1-5.874,7.915c-1.415.576-2.84,1.123-4.268,1.664l-3.069,1.17a4.608,4.608,0,0,1-1.9.431c-.295-.018-.652-.063-.818.187a1.577,1.577,0,0,0-.187.4c-.108,0-.216.026-.316.032h-.018a3.642,3.642,0,0,0-.736-1.354.457.457,0,0,0-.347.263c-.074.137-.118.287-.2.413-.166.242-.452.36-.657.565s-.334.526-.555.726a2.2,2.2,0,0,1-1.052.408,6.638,6.638,0,0,0-1.633.621,2.793,2.793,0,0,1-.6.279,2.281,2.281,0,0,1-.707.024l-1.625-.118a1.266,1.266,0,0,0-.434.018.807.807,0,0,0-.526.834,1.3,1.3,0,0,0,.513.894,3.419,3.419,0,0,0,.926.481,26.871,26.871,0,0,0,4.352,1.275v.329a7.382,7.382,0,0,0,3.316.789.5.5,0,0,0,.247-.045.549.549,0,0,0,.208-.326,13.41,13.41,0,0,0,.649-3.184h0a1.64,1.64,0,0,0,.586-.15c.56-.153,1.115.231,1.691.294a4.63,4.63,0,0,0,2.04-.592c.1-.037.195-.068.292-.1a3.265,3.265,0,0,1-.671.649c-.279.2-.592.347-.865.555a5.748,5.748,0,0,1-.728.565,4.388,4.388,0,0,1-.56.216,3.8,3.8,0,0,0-.789.4,1.642,1.642,0,0,0-.547.526.718.718,0,0,0,.489,1.12,2.255,2.255,0,0,0,.665.018c.878-.066,1.754-.147,2.629-.226a7.363,7.363,0,0,0,1.1-.158c.192-.047.381-.11.573-.16a4.636,4.636,0,0,1,1-.15.828.828,0,0,1,.292.029c.205.066.35.263.557.315a.861.861,0,0,0,.4-.055,9.121,9.121,0,0,1,1.951-.208c.287-.016.623-.071.757-.336.163-.329-.11-.7-.218-1.052a3.173,3.173,0,0,1-.089-.689,4.3,4.3,0,0,0-.484-1.638,4.432,4.432,0,0,1-.36-.747,19.007,19.007,0,0,0,3.586-1.82,6.5,6.5,0,0,1,2.046-.983,5.491,5.491,0,0,1,2.569.3,57.78,57.78,0,0,1,5.887,2.054,29.24,29.24,0,0,0,2.782,1.052,4.333,4.333,0,0,0,.986.962,4.556,4.556,0,0,0,2.143.584,28.088,28.088,0,0,0,3.013.113,5.092,5.092,0,0,0,2.245-.415,2.6,2.6,0,0,0,.471-.31,1.863,1.863,0,0,0,1.478-.547,3.577,3.577,0,0,0,1.131-1.775c.242-.949.055-2.056.639-2.832.155-.208.358-.376.51-.586a1.577,1.577,0,0,0,.263-.955l.026-.039a3.546,3.546,0,0,0,.263-.957,5.469,5.469,0,0,1,.263-.755,22.8,22.8,0,0,0,.773-2.243,12.319,12.319,0,0,0,.358-1.538c.063-.415.1-.833.134-1.252a7.548,7.548,0,0,1,.379-1.922,15.7,15.7,0,0,0,.87-4.607v-.092a3.084,3.084,0,0,0,2.748-3.113,3.3,3.3,0,0,0-.284-1.344A4.171,4.171,0,0,0,545.72,610Zm-14.87,18.067c.045.16.1.321.15.481-.242-.239-.481-.486-.726-.723.1.029.195.06.289.095a1.738,1.738,0,0,1,.289.147Zm-1.178-.789c-1.436-1.246-3.1-2.214-4.567-3.418.789.4,1.578.857,2.367,1.3q1.378.789,2.787,1.509a2.267,2.267,0,0,1-.578.6Zm.613-3.14.068-.071v.492c-.129-.042-.263-.084-.387-.131a3.26,3.26,0,0,0,.321-.3Zm-12.64,3.376a11.91,11.91,0,0,0,1.533-2.185,14.323,14.323,0,0,0,2.282,2.548c-1.267-.179-2.537-.318-3.813-.373Z" transform="translate(-368.626 -472.019)" fill="url(#linear-gradient)"/>
    <path id="Path_571" data-name="Path 571" d="M574.53,545.12l.907.184,3.09,4.565-1.365.184Z" transform="translate(-423.46 -401.751)" fill="#2f2e41"/>
    <path id="Path_572" data-name="Path 572" d="M519.48,733.531a17.977,17.977,0,0,0,.9,2.367,21.861,21.861,0,0,0,3.013-.86,8.2,8.2,0,0,0-.626-.849,2.953,2.953,0,0,0-.852-.655,2.319,2.319,0,0,0-1.033-.016Q520.182,733.544,519.48,733.531Z" transform="translate(-390.379 -571.635)" fill="#fbbebe"/>
    <path id="Path_573" data-name="Path 573" d="M500.177,731.137a1.892,1.892,0,0,1-1.031-1.173,3.809,3.809,0,0,0-.77-1.4.46.46,0,0,0-.347.263c-.076.131-.121.281-.208.408-.163.237-.452.352-.66.555s-.337.51-.56.713a2.227,2.227,0,0,1-1.052.4,6.668,6.668,0,0,0-1.646.61,2.815,2.815,0,0,1-.61.263,2.313,2.313,0,0,1-.713.024l-1.638-.118a1.275,1.275,0,0,0-.436.021.789.789,0,0,0-.526.82,1.273,1.273,0,0,0,.526.881,3.491,3.491,0,0,0,.931.473,28.072,28.072,0,0,0,4.391,1.254v.323a7.6,7.6,0,0,0,3.342.789.526.526,0,0,0,.263-.045.546.546,0,0,0,.21-.321,12.932,12.932,0,0,0,.681-3.56,2.672,2.672,0,0,0-.068-.915c-.089-.295.216-.171-.068-.287" transform="translate(-368.633 -568.021)" fill="#2f2e41"/>
    <path id="Path_574" data-name="Path 574" d="M557.864,711.246c-4.857.294-9.653-1.131-14.517-1.283a7.252,7.252,0,0,0-1.8.116,8.858,8.858,0,0,0-1.788.694c-2.606,1.212-5.3,2.217-8,3.221l-3.092,1.152a4.813,4.813,0,0,1-1.919.423c-.294-.018-.655-.063-.823.184a3.029,3.029,0,0,0,.068,2.677c.108.263.289.565.578.6a1.706,1.706,0,0,0,.592-.15c.563-.15,1.125.229,1.7.289a4.751,4.751,0,0,0,2.059-.581,19.193,19.193,0,0,1,3.523-.6,15.744,15.744,0,0,0,5.522-2.293,6.482,6.482,0,0,1,2.062-.968,5.641,5.641,0,0,1,2.59.292,59.7,59.7,0,0,1,5.935,2.022,27.349,27.349,0,0,0,3.1,1.131,11.217,11.217,0,0,0,6.952-.4c.789-.308,1.62-.849,1.664-1.688.026-.479-.344-.9-.592-1.315-.16-.263-.318-.526-.492-.776C560.354,712.768,559.339,711.156,557.864,711.246Z" transform="translate(-394.914 -554.303)" fill="#2f2e41"/>
    <path id="Path_575" data-name="Path 575" d="M557.864,711.246c-4.857.294-9.653-1.131-14.517-1.283a7.252,7.252,0,0,0-1.8.116,8.858,8.858,0,0,0-1.788.694c-2.606,1.212-5.3,2.217-8,3.221l-3.092,1.152a4.813,4.813,0,0,1-1.919.423c-.294-.018-.655-.063-.823.184a3.029,3.029,0,0,0,.068,2.677c.108.263.289.565.578.6a1.706,1.706,0,0,0,.592-.15c.563-.15,1.125.229,1.7.289a4.751,4.751,0,0,0,2.059-.581,19.193,19.193,0,0,1,3.523-.6,15.744,15.744,0,0,0,5.522-2.293,6.482,6.482,0,0,1,2.062-.968,5.641,5.641,0,0,1,2.59.292,59.7,59.7,0,0,1,5.935,2.022,27.349,27.349,0,0,0,3.1,1.131,11.217,11.217,0,0,0,6.952-.4c.789-.308,1.62-.849,1.664-1.688.026-.479-.344-.9-.592-1.315-.16-.263-.318-.526-.492-.776C560.354,712.768,559.339,711.156,557.864,711.246Z" transform="translate(-394.914 -554.303)" opacity="0.1"/>
    <path id="Path_576" data-name="Path 576" d="M554.93,728.963q1.141.387,2.3.715c.434-.713,1.244-1.207,1.428-2.019a.188.188,0,0,0,0-.108.194.194,0,0,0-.087-.079,4.3,4.3,0,0,0-1.8-.526c-.5-.031-.726.489-.952.855C555.737,727.948,555.132,729.031,554.93,728.963Z" transform="translate(-416.507 -566.83)" fill="#fbbebe"/>
    <path id="Path_577" data-name="Path 577" d="M537.962,729.388a1.654,1.654,0,0,1-1.118-.734c-.108-.187-.221-.439-.436-.426s-.289.25-.334.447a12.763,12.763,0,0,1-.628,2.159A4.047,4.047,0,0,1,534.1,732.6c-.281.195-.594.342-.87.547a5.766,5.766,0,0,1-.736.557,4.16,4.16,0,0,1-.565.21,3.879,3.879,0,0,0-.807.392,1.642,1.642,0,0,0-.55.526.707.707,0,0,0,.479,1.107,2.383,2.383,0,0,0,.671.016c.886-.066,1.769-.145,2.653-.224a7.545,7.545,0,0,0,1.112-.152c.195-.047.384-.11.576-.16a4.87,4.87,0,0,1,1.012-.147.858.858,0,0,1,.294.029c.205.066.35.263.56.31a.868.868,0,0,0,.4-.053,9.463,9.463,0,0,1,1.967-.205c.289-.016.631-.071.762-.331.166-.323-.108-.686-.218-1.033a3.252,3.252,0,0,1-.092-.678,4.13,4.13,0,0,0-.486-1.612c-.226-.415-.526-.873-.376-1.315a1.15,1.15,0,0,0,.15-.45C540,729.22,538.361,729.483,537.962,729.388Z" transform="translate(-398.469 -567.776)" fill="#2f2e41"/>
    <path id="Path_578" data-name="Path 578" d="M609.013,673.289a3.808,3.808,0,0,1-1.935-1.922c-.079-.184-.147-.376-.224-.563a4.3,4.3,0,0,0-1.157-1.6.555.555,0,0,0-.429-.181.458.458,0,0,0-.316.337,1.382,1.382,0,0,0-.034.526,9.9,9.9,0,0,0,.21,1.212l.237,1.073a2.107,2.107,0,0,0,.147.479,1.67,1.67,0,0,0,.394.471c.216.2.434.392.655.578a2.316,2.316,0,0,0,.4.289,2.433,2.433,0,0,0,.739.216,6.372,6.372,0,0,1,2.758,1.052s0-.718-.018-.789a1.052,1.052,0,0,0-.205-.576A3.473,3.473,0,0,0,609.013,673.289Z" transform="translate(-453.344 -524.135)" fill="#fbbebe"/>
    <path id="Path_579" data-name="Path 579" d="M609.013,673.289a3.808,3.808,0,0,1-1.935-1.922c-.079-.184-.147-.376-.224-.563a4.3,4.3,0,0,0-1.157-1.6.555.555,0,0,0-.429-.181.458.458,0,0,0-.316.337,1.382,1.382,0,0,0-.034.526,9.9,9.9,0,0,0,.21,1.212l.237,1.073a2.107,2.107,0,0,0,.147.479,1.67,1.67,0,0,0,.394.471c.216.2.434.392.655.578a2.316,2.316,0,0,0,.4.289,2.433,2.433,0,0,0,.739.216,6.372,6.372,0,0,1,2.758,1.052s0-.718-.018-.789a1.052,1.052,0,0,0-.205-.576A3.473,3.473,0,0,0,609.013,673.289Z" transform="translate(-453.344 -524.135)" opacity="0.1"/>
    <ellipse id="Ellipse_54" data-name="Ellipse 54" cx="1.181" cy="1.189" rx="1.181" ry="1.189" transform="translate(164.375 138.573)" fill="#2f2e41"/>
    <path id="Path_580" data-name="Path 580" d="M632.4,646.718a1.315,1.315,0,0,0-.933.134,1.256,1.256,0,0,0-.318.437,6.2,6.2,0,0,0-.615,1.446c-.105.434-.124.886-.263,1.315-.242.789-.862,1.459-.933,2.282-.032.368.029.8-.239,1.052a1.541,1.541,0,0,1-.213.15,1.614,1.614,0,0,0-.465.479,1.517,1.517,0,0,1-.329.455c-.242.179-.639.16-.757.437s.187.6.116.9c-.058.245-.331.358-.526.526a1.82,1.82,0,0,0-.45.839,2.785,2.785,0,0,1-2.259-.565,7.12,7.12,0,0,1,.35,2.585,1.067,1.067,0,0,1-.208.789,13.359,13.359,0,0,1,2.774.481,1.9,1.9,0,0,0,1.21,0,2,2,0,0,0,.555-.442,3.522,3.522,0,0,0,1.144-1.759,9.556,9.556,0,0,0,.021-1.2,6.865,6.865,0,0,1,.3-1.449,16.932,16.932,0,0,0,.526-2.984c.055-.623.592-1.123.876-1.68a8.3,8.3,0,0,0,1.12-3.321C632.916,647.238,632.785,646.768,632.4,646.718Z" transform="translate(-467.57 -507.674)" fill="#2f2e41"/>
    <path id="Path_581" data-name="Path 581" d="M632.4,646.718a1.315,1.315,0,0,0-.933.134,1.256,1.256,0,0,0-.318.437,6.2,6.2,0,0,0-.615,1.446c-.105.434-.124.886-.263,1.315-.242.789-.862,1.459-.933,2.282-.032.368.029.8-.239,1.052a1.541,1.541,0,0,1-.213.15,1.614,1.614,0,0,0-.465.479,1.517,1.517,0,0,1-.329.455c-.242.179-.639.16-.757.437s.187.6.116.9c-.058.245-.331.358-.526.526a1.82,1.82,0,0,0-.45.839,2.785,2.785,0,0,1-2.259-.565,7.12,7.12,0,0,1,.35,2.585,1.067,1.067,0,0,1-.208.789,13.359,13.359,0,0,1,2.774.481,1.9,1.9,0,0,0,1.21,0,2,2,0,0,0,.555-.442,3.522,3.522,0,0,0,1.144-1.759,9.556,9.556,0,0,0,.021-1.2,6.865,6.865,0,0,1,.3-1.449,16.932,16.932,0,0,0,.526-2.984c.055-.623.592-1.123.876-1.68a8.3,8.3,0,0,0,1.12-3.321C632.916,647.238,632.785,646.768,632.4,646.718Z" transform="translate(-467.57 -507.674)" opacity="0.1"/>
    <path id="Path_582" data-name="Path 582" d="M583.126,690.758a10.9,10.9,0,0,1-2.569-2.146c-1.562-1.467-3.471-2.5-5.112-3.878A32.813,32.813,0,0,0,572.19,682a8.082,8.082,0,0,0-3.487-1.223.968.968,0,0,0-.426.021,1.022,1.022,0,0,0-.4.316,12.393,12.393,0,0,0-1.407,1.933c-2.08,3.529-5.033,6.5-7.481,9.782a.439.439,0,0,0-.029.594l.5.976c.279.544.726,1.181,1.315,1.073a1.459,1.459,0,0,0,.7-.444l2.235-2.138,2.343-2.24a18.073,18.073,0,0,0,3.665-4.333c.7,1.212,1.941,2.006,2.792,3.119.323.421.586.886.876,1.333.465.718.991,1.391,1.517,2.062l2.69,3.431a5.2,5.2,0,0,0,1.244,1.262A4.773,4.773,0,0,0,581,698.1a27.854,27.854,0,0,0,3.037.11,5.212,5.212,0,0,0,2.261-.408,2.082,2.082,0,0,0,1.228-1.822,2.705,2.705,0,0,0-.387-1.138A8.974,8.974,0,0,0,583.126,690.758Z" transform="translate(-419.405 -532.793)" fill="#2f2e41"/>
    <ellipse id="Ellipse_55" data-name="Ellipse 55" cx="0.907" cy="0.912" rx="0.907" ry="0.912" transform="translate(165.375 139.672)" fill="#e8e8f0"/>
    <path id="Path_583" data-name="Path 583" d="M656.634,642.07a1.735,1.735,0,0,1,.1,1.315,5.082,5.082,0,0,1-.584,1.21,6.028,6.028,0,0,1-.76,1.083,7.793,7.793,0,0,0,4-1.149,5.738,5.738,0,0,0,2.522-2.2,1.167,1.167,0,0,1-.928-.171,3.476,3.476,0,0,1-.713-.663l-.7-.789a3.152,3.152,0,0,1-.434-.571,1.577,1.577,0,0,1-.187-.918,5.259,5.259,0,0,1-.931.773c-.5.329-1.052.565-1.559.889-.179.116-.576.3-.473.526S656.492,641.818,656.634,642.07Z" transform="translate(-490.552 -502.172)" fill="#fbbebe"/>
    <path id="Path_584" data-name="Path 584" d="M656.634,642.07a1.735,1.735,0,0,1,.1,1.315,5.082,5.082,0,0,1-.584,1.21,6.028,6.028,0,0,1-.76,1.083,7.793,7.793,0,0,0,4-1.149,5.738,5.738,0,0,0,2.522-2.2,1.167,1.167,0,0,1-.928-.171,3.476,3.476,0,0,1-.713-.663l-.7-.789a3.152,3.152,0,0,1-.434-.571,1.577,1.577,0,0,1-.187-.918,5.259,5.259,0,0,1-.931.773c-.5.329-1.052.565-1.559.889-.179.116-.576.3-.473.526S656.492,641.818,656.634,642.07Z" transform="translate(-490.552 -502.172)" opacity="0.1"/>
    <path id="Path_585" data-name="Path 585" d="M644.638,650.146a1.186,1.186,0,0,0,0,1.37c.039.05.189.363.263.365a.239.239,0,0,0,.16-.081,11.152,11.152,0,0,0,.889-1.052,1.962,1.962,0,0,1,1.131-.742,2.473,2.473,0,0,1,1.559.484,1.488,1.488,0,0,1,.526.436,1.434,1.434,0,0,1,.176.594,27.817,27.817,0,0,1,.158,3.776,14.52,14.52,0,0,1-.179,2.716c-.089.463-.224.915-.287,1.383a9.3,9.3,0,0,0-.055,1.241v1.735a4.414,4.414,0,0,0,.068.949,11.594,11.594,0,0,0,.381,1.1,7.259,7.259,0,0,1,.263,1.315l.237,1.8a2.193,2.193,0,0,1-.213,1.641c-.153.208-.358.371-.526.576-.592.752-.394,1.843-.657,2.777a3.517,3.517,0,0,1-1.141,1.749,1.847,1.847,0,0,1-1.5.526,2.06,2.06,0,0,1-1.367-1.615,6.266,6.266,0,0,0-.7-2.1,5.546,5.546,0,0,0-1.388-1.162,2.408,2.408,0,0,1-1.083-1.409c-.047-.263-.018-.526-.045-.789a1.88,1.88,0,0,0-1.162-1.525c-.373-.145-.836-.2-1.052-.526a2.532,2.532,0,0,0,1.094-1.47,7.547,7.547,0,0,0,.263-1.841l.126-2.088a6.914,6.914,0,0,1,.492-2.7c.184-.373.413-.726.6-1.1a12.156,12.156,0,0,0,.647-1.609c.3-.855.6-1.712.862-2.577a5.1,5.1,0,0,1,.473-1.2C643.894,650.7,644.217,650.225,644.638,650.146Z" transform="translate(-478.538 -510.111)" fill="#e8e8f0"/>
    <path id="Path_586" data-name="Path 586" d="M642.4,662.709l.552.018.118-.834a1.8,1.8,0,0,1,.116-.486,3.086,3.086,0,0,1,.318-.465,6.039,6.039,0,0,0,.639-2.721,13.525,13.525,0,0,1,1.215-3.558l1.073-2.39a3.441,3.441,0,0,0,.229-.613,3.36,3.36,0,0,0,.066-.707c0-.368.121-1.712.129-2.083,0-.137-.3-.061-.363-.182-.134-.263-.318.452-.571.61a1.4,1.4,0,0,0-.494.723c-.231.6-.373,1.236-.589,1.841a3.784,3.784,0,0,1-1,1.628c-.218.195-.473.347-.681.552a3.726,3.726,0,0,0-.755,2.629C642.38,657.248,642.272,662.709,642.4,662.709Z" transform="translate(-480.931 -509.109)" fill="#2f2e41"/>
    <path id="Path_587" data-name="Path 587" d="M658.683,646.619a1.912,1.912,0,0,0-.981,1.352,6.611,6.611,0,0,1-.5,1.657c-.673,1.173-2.39,1.515-2.866,2.782a5.091,5.091,0,0,0-.192,1.315c-.084.907-.384,1.785-.473,2.693a11.859,11.859,0,0,0,.05,2.117l.6,7.16a9.466,9.466,0,0,1-.182,3.155,3.032,3.032,0,0,0,1.8-.3c.565-.263,1.081-.61,1.622-.91a16.481,16.481,0,0,0,2.779-1.578,1.651,1.651,0,0,0,.376-.413,3.551,3.551,0,0,0,.263-.944,5.322,5.322,0,0,1,.263-.741,21.987,21.987,0,0,0,.789-2.209,11.863,11.863,0,0,0,.36-1.517c.066-.408.1-.82.137-1.231a7.251,7.251,0,0,1,.381-1.893,15.178,15.178,0,0,0,.876-4.536,2.269,2.269,0,0,0-.045-.668,3.574,3.574,0,0,0-.363-.757c-.25-.471-.4-.989-.636-1.465a7.128,7.128,0,0,0-2.456-2.582C659.784,646.774,659.23,646.411,658.683,646.619Z" transform="translate(-489.264 -507.581)" fill="#2f2e41"/>
    <path id="Path_588" data-name="Path 588" d="M606.76,684.486a4.312,4.312,0,0,1-1.144-.868c-.15-.176-.263-.373-.426-.547a2.812,2.812,0,0,0-1.438-.82,6.944,6.944,0,0,0-1.667-.16,2.962,2.962,0,0,0-1.107.134,1.118,1.118,0,0,0-.736.789,1.3,1.3,0,0,0,.56,1.165,2.706,2.706,0,0,0,1.117.544,9.275,9.275,0,0,0,1.01.118,14.678,14.678,0,0,1,5.5,2.274q2.3,1.3,4.68,2.427a9.362,9.362,0,0,0,.079-1.436c0-.358-.026-.9-.365-1.115a7.493,7.493,0,0,0-1.488-.45,23.618,23.618,0,0,1-2.995-1.21C607.793,685.067,607.267,684.786,606.76,684.486Z" transform="translate(-449.894 -533.765)" fill="#fbbebe"/>
    <ellipse id="Ellipse_56" data-name="Ellipse 56" cx="3.542" cy="3.563" rx="3.542" ry="3.563" transform="translate(162.014 132.365)" fill="#fbbebe"/>
    <path id="Path_589" data-name="Path 589" d="M652.212,660.88a5.759,5.759,0,0,0-.686,1.281,27.35,27.35,0,0,0-1.467,2.63c-.363.991-.35,2.172-1.052,2.953a1.018,1.018,0,0,0-.308.447,2.208,2.208,0,0,1-.037.323c-.1.284-.565.3-.652.586-.024.084,0,.176-.042.263-.071.187-.316.213-.481.326-.344.234-.263.776-.526,1.112a.933.933,0,0,1-.883.31,3.276,3.276,0,0,1-.92-.344.826.826,0,0,0-.329-.1.671.671,0,0,0-.381.129,2.355,2.355,0,0,0-.957,2.019,6.575,6.575,0,0,0,.544,2.256.95.95,0,0,0,.181.337.79.79,0,0,0,.883.063,4.11,4.11,0,0,1,.86-.384c.547-.1,1.083.279,1.638.247a2.308,2.308,0,0,0,1.107-.489,6.128,6.128,0,0,0,1.494-1.275c.242-.318.421-.681.634-1.02a11.564,11.564,0,0,1,.894-1.194l2.043-2.5a5.37,5.37,0,0,0,.55-.76,5.564,5.564,0,0,0,.429-1.141,9.018,9.018,0,0,0,.423-2.032,8.11,8.11,0,0,0-.15-1.707,5.928,5.928,0,0,0-.439-1.622C654.126,660.67,653.045,659.908,652.212,660.88Z" transform="translate(-481.781 -517.803)" fill="#2f2e41"/>
    <path id="Path_590" data-name="Path 590" d="M653.731,612.13a3.989,3.989,0,0,0-1.641-3.242,4.733,4.733,0,0,0-4.026-4.615,4.6,4.6,0,0,0-9.064.245c-1.472-.331-2.819.1-3.063,1.007-.263.949.789,2.059,2.346,2.48a4.311,4.311,0,0,0,1.5.15,4.615,4.615,0,0,0,3.171,1.972,4.715,4.715,0,0,0,3.458,3.568,3.943,3.943,0,0,0,1.068,1.478c0,.11-.018.224-.018.339a3,3,0,1,0,6,0,3.156,3.156,0,0,0-.287-1.315A4.03,4.03,0,0,0,653.731,612.13Z" transform="translate(-476.184 -473.694)" fill="#f86d70"/>
    <path id="Path_591" data-name="Path 591" d="M636.907,605.646c.245-.907,1.578-1.338,3.063-1.007a4.678,4.678,0,0,1,4.557-3.944h.305a4.472,4.472,0,0,0-1.315-.195,4.678,4.678,0,0,0-4.557,3.944c-1.472-.331-2.819.1-3.063,1.007-.263.949.789,2.059,2.345,2.48a4.5,4.5,0,0,0,.886.152C637.651,607.652,636.657,606.574,636.907,605.646Z" transform="translate(-476.155 -473.633)" opacity="0.1"/>
    <path id="Path_592" data-name="Path 592" d="M659.681,637.364a2.1,2.1,0,0,1,.018-.342,3.929,3.929,0,0,1-1.068-1.475,4.733,4.733,0,0,1-3.458-3.571A4.606,4.606,0,0,1,652,630a4.185,4.185,0,0,1-.884-.024,4.6,4.6,0,0,0,3.055,1.814,4.714,4.714,0,0,0,3.458,3.568,3.944,3.944,0,0,0,1.068,1.478c0,.11-.018.224-.018.339a3.053,3.053,0,0,0,2.982,3.1A3.1,3.1,0,0,1,659.681,637.364Z" transform="translate(-487.405 -495.362)" opacity="0.1"/>
    <ellipse id="Ellipse_57" data-name="Ellipse 57" cx="0.547" cy="0.728" rx="0.547" ry="0.728" transform="translate(165.86 136.404) rotate(-37.22)" fill="#fbbebe"/>
    <path id="Path_593" data-name="Path 593" d="M308.174,689.9l3.5-2.059a8.414,8.414,0,0,0-1.791-2.143l-6.605,2.054,5.175-3.042A8.414,8.414,0,0,0,296,692.092c0,4.646,3.768,4.807,8.414,4.807s8.414-.16,8.414-4.807a8.347,8.347,0,0,0-.723-3.418Z" transform="translate(-225.662 -534.939)" fill="#fff"/>
    <path id="Path_594" data-name="Path 594" d="M309.066,709.509a6.572,6.572,0,0,0-1.241-.976,5.731,5.731,0,0,0-2.043-1,15.438,15.438,0,0,0-2.006-.058,4.688,4.688,0,0,1-3.074-1.409,9.426,9.426,0,0,0-1.43-1.48,3.129,3.129,0,0,0-2.14-.392,5.208,5.208,0,0,0-.634.129,8.415,8.415,0,0,0-.5,2.856c0,4.646,3.768,4.807,8.414,4.807a17.65,17.65,0,0,0,5.814-.607l-.263-.471A6.539,6.539,0,0,0,309.066,709.509Z" transform="translate(-225.662 -550.029)" opacity="0.1"/>
  </g>
</svg>
