<svg xmlns="http://www.w3.org/2000/svg" width="38" height="48" viewBox="0 0 38 48">
  <path id="icons8_pass_fail" d="M25,0a3.968,3.968,0,0,0-3.812,3H9A3.006,3.006,0,0,0,6,6V45a3.006,3.006,0,0,0,3,3H41a3.006,3.006,0,0,0,3-3V6a3.006,3.006,0,0,0-3-3H28.813A3.968,3.968,0,0,0,25,0Zm0,2a1.984,1.984,0,0,1,2,2,1,1,0,0,0,1,1h4V8H18V5h4a1,1,0,0,0,1-1A1.984,1.984,0,0,1,25,2ZM35.813,17.031a.984.984,0,0,1,.75.125,1.024,1.024,0,0,1,.281,1.406l-4,6a1.271,1.271,0,0,1-.125.125c-.012.012.012.02,0,.031s-.027,0-.031,0a.959.959,0,0,1-.281.188.473.473,0,0,1-.062.031A1.028,1.028,0,0,1,32,25a1.045,1.045,0,0,1-.344-.062c-.031-.012-.062-.047-.094-.062s-.086,0-.125-.031-.035-.07-.062-.094-.07-.008-.094-.031l-3-3a1.016,1.016,0,0,1,1.438-1.437l2.125,2.156,3.313-5A1.01,1.01,0,0,1,35.813,17.031ZM14,20H24a1,1,0,0,1,0,2H14a1,1,0,0,1,0-2ZM29,30a1.015,1.015,0,0,1,.719.281L32,32.594l2.281-2.313a1.016,1.016,0,0,1,1.438,1.438L33.406,34l2.313,2.281a1.028,1.028,0,0,1,0,1.438,1.059,1.059,0,0,1-1.437,0L32,35.406l-2.281,2.313a1.059,1.059,0,0,1-1.437,0,1.028,1.028,0,0,1,0-1.437L30.594,34l-2.312-2.281a1.028,1.028,0,0,1,0-1.437A1.014,1.014,0,0,1,29,30ZM14,33H24a1,1,0,0,1,0,2H14a1,1,0,0,1,0-2Z" transform="translate(-6)" fill="#f2ee90"/>
</svg>
