<svg xmlns="http://www.w3.org/2000/svg" viewBox="0 0 500 500">
  <path d="M26.429688 2C13.598493 2 3.1455205 12.395253 3.0058594 25.216797L3.0058594 25.238281L3.0058594 25.261719C3.1457871 37.819141 13.384083 48 25.951172 48C33.669688 48 40.199148 45.686804 45.537109 39.28125 A 2.0010761 2.0010761 0 1 0 42.462891 36.71875C37.800852 42.313196 32.944656 44 25.951172 44C15.543611 44 7.1355061 35.644614 7.0078125 25.238281C7.1368191 14.568988 15.758891 6 26.429688 6C30.766203 6 34.961144 7.4738481 38.007812 10.0625C41.054482 12.651152 43 16.281511 43 20.988281L43 21.375C43 24.760417 41.406398 27.975336 39.216797 30.324219C37.027196 32.673101 34.222875 34 32.566406 34C32.199114 34 32.214469 33.954436 32.185547 33.921875C32.156624 33.889314 32 33.671 32 33L32 32.949219L31.998047 32.898438C31.998047 32.898438 31.861861 30.555382 33.205078 27.292969C33.206727 27.288965 33.207331 27.285257 33.208984 27.28125L37.853516 15.748047 A 2.0002 2.0002 0 0 0 35.945312 12.974609 A 2.0002 2.0002 0 0 0 34.144531 14.251953L33.886719 14.894531C33.519128 14.454509 33.112261 14.060553 32.662109 13.722656C30.964317 12.448246 28.873016 12 26.712891 12C23.818109 12 20.651049 13.644879 17.882812 16.492188C15.114577 19.339495 12.894531 23.560683 12.894531 28.808594C12.894531 33.859144 17.023958 38 22.070312 38C24.849559 38 27.019819 36.820923 28.488281 35.419922C28.669426 35.834929 28.887597 36.231696 29.195312 36.578125C30.054688 37.545562 31.354698 38 32.566406 38C35.968938 38 39.379929 36.014399 42.142578 33.050781C44.905227 30.087164 47 25.989583 47 21.375L47 20.988281C47 15.144052 44.443987 10.28177 40.597656 7.0136719C36.751325 3.7455738 31.663172 2 26.429688 2 z M 26.712891 16C28.324765 16 29.470261 16.327785 30.261719 16.921875C30.982526 17.462934 31.547195 18.3153 31.892578 19.841797L29.511719 25.755859L28.164062 29.099609 A 2.0002 2.0002 0 0 0 28.158203 29.109375C27.455601 30.235866 26.765445 31.497556 25.832031 32.433594C24.898618 33.369631 23.878846 34 22.070312 34C19.190667 34 16.894531 31.702044 16.894531 28.808594C16.894531 24.677504 18.60144 21.493191 20.751953 19.28125C22.902467 17.069309 25.644672 16 26.712891 16 z" fill="#71777A" />
</svg>