<svg xmlns="http://www.w3.org/2000/svg" width="15.471" height="16.177" viewBox="0 0 15.471 16.177">
  <path id="email" d="M11.243,2a8.257,8.257,0,0,0-8.237,8.165v.016a8.089,8.089,0,0,0,8.069,8,8.348,8.348,0,0,0,6.888-3.066.7.7,0,1,0-1.081-.9,6.7,6.7,0,0,1-5.807,2.561,6.661,6.661,0,0,1-6.662-6.6,6.83,6.83,0,0,1,6.83-6.766,6.336,6.336,0,0,1,4.072,1.429,4.866,4.866,0,0,1,1.756,3.842v.136a4.731,4.731,0,0,1-1.33,3.147A3.8,3.8,0,0,1,13.4,13.253c-.129,0-.124-.016-.134-.027A.524.524,0,0,1,13.2,12.9v-.036a4.947,4.947,0,0,1,.425-1.971v0l1.633-4.056a.7.7,0,1,0-1.3-.526l-.091.226a2.582,2.582,0,0,0-.431-.412,3.413,3.413,0,0,0-2.092-.606A4.572,4.572,0,0,0,8.238,7.1a6.174,6.174,0,0,0-1.754,4.331,3.237,3.237,0,0,0,5.484,2.325,1.51,1.51,0,0,0,.249.407,1.594,1.594,0,0,0,1.186.5,4.834,4.834,0,0,0,3.368-1.74,6.092,6.092,0,0,0,1.708-4.106V8.678a6.355,6.355,0,0,0-2.251-4.914A7.7,7.7,0,0,0,11.243,2Zm.1,4.923a2.035,2.035,0,0,1,1.248.324,1.64,1.64,0,0,1,.574,1.027l-.837,2.08-.474,1.176,0,0a6.488,6.488,0,0,1-.818,1.169,1.69,1.69,0,0,1-1.323.551,1.812,1.812,0,0,1-1.82-1.826,4.721,4.721,0,0,1,1.357-3.35A3.747,3.747,0,0,1,11.343,6.923Z" transform="translate(-3.006 -2)" fill="#fff"/>
</svg>
