<svg xmlns="http://www.w3.org/2000/svg" viewBox="0 0 48 48">
  <path d="M24,4C12.972,4,4,12.972,4,24s8.972,20,20,20s20-8.972,20-20S35.028,4,24,4z M32.906,24.463l-1.543,6.049C30.83,32.599,28.935,34,26.866,34c-0.362,0-0.73-0.043-1.097-0.132l-8.316-2.038c-1.133-0.279-2.009-1.199-2.23-2.342l-0.441-2.275c-0.226-1.171,0.417-2.331,1.532-2.757l0.517-0.198c1.38-0.529,2.579-1.506,3.375-2.752l3.126-4.891c0.043-0.066,0.075-0.136,0.096-0.211c0.274-0.941,0.466-1.608,0.577-2.003c0.045-0.16,0.088-0.323,0.165-0.622C24.422,12.821,24.64,12,25.548,12c1.261,0,2.733,1.056,2.733,4.033c0,1.053-0.331,2.59-1.011,4.69h2.731c0.25,0,0.499,0.031,0.741,0.093c0.776,0.198,1.429,0.686,1.838,1.375C32.988,22.879,33.104,23.686,32.906,24.463z" fill="#1797D1" />
</svg>