<svg xmlns="http://www.w3.org/2000/svg" width="14.129" height="14.129" viewBox="0 0 14.129 14.129">
  <path id="icons8_linkedin" d="M11.48,0H2.649A2.65,2.65,0,0,0,0,2.649V11.48a2.65,2.65,0,0,0,2.649,2.649H11.48a2.65,2.65,0,0,0,2.649-2.649V2.649A2.65,2.65,0,0,0,11.48,0ZM4.369,11.994H2.174L2.161,5.422H4.356ZM3.216,4.562H3.2a1.112,1.112,0,1,1,.028-2.218,1.113,1.113,0,1,1-.015,2.218Zm8.763,7.432H9.765V8.423c0-.864-.229-1.452-1-1.452A1.121,1.121,0,0,0,7.7,7.752a1.433,1.433,0,0,0-.072.52v3.721H5.4L5.392,5.422H7.616l.013.928A2.057,2.057,0,0,1,9.521,5.288c1.405,0,2.456.917,2.456,2.889v3.817Z" fill="#fff"/>
</svg>
