<svg xmlns="http://www.w3.org/2000/svg" width="15.061" height="19.579" viewBox="0 0 15.061 19.579">
  <path id="icons8_lock_1" d="M10.53,0A4.508,4.508,0,0,0,6.012,4.518V7.53A3.022,3.022,0,0,0,3,10.542v6.024a3.022,3.022,0,0,0,3.012,3.012h9.036a3.022,3.022,0,0,0,3.012-3.012V10.542A3.022,3.022,0,0,0,15.048,7.53V4.518A4.508,4.508,0,0,0,10.53,0Zm0,1.506a2.949,2.949,0,0,1,3.012,3.012V7.53H7.518V4.518A2.949,2.949,0,0,1,10.53,1.506Zm0,9.789A1.509,1.509,0,0,1,12.036,12.8a1.442,1.442,0,0,1-.753,1.271v1.741a.753.753,0,0,1-1.506,0V14.072A1.442,1.442,0,0,1,9.024,12.8,1.509,1.509,0,0,1,10.53,11.3Z" transform="translate(-3)" fill="rgba(113,119,122,0.5)"/>
</svg>
