<svg xmlns="http://www.w3.org/2000/svg" width="11.857" height="15.562" viewBox="0 0 11.857 15.562">
  <path id="icons8_lock" d="M9.928,1A4.437,4.437,0,0,0,5.482,5.446v.741A1.44,1.44,0,0,0,4,7.669v7.41a1.44,1.44,0,0,0,1.482,1.482h8.893a1.44,1.44,0,0,0,1.482-1.482V7.669a1.44,1.44,0,0,0-1.482-1.482V5.446A4.437,4.437,0,0,0,9.928,1Zm0,1.482a2.9,2.9,0,0,1,2.964,2.964v.741H6.964V5.446A2.9,2.9,0,0,1,9.928,2.482Zm0,7.41a1.482,1.482,0,1,1-1.482,1.482A1.486,1.486,0,0,1,9.928,9.893Z" transform="translate(-4 -1)" fill="#71777a"/>
</svg>
