<svg xmlns="http://www.w3.org/2000/svg" viewBox="0 0 500 500">
  <path d="M24.96875 1.96875C18.17279 1.96875 12.052876 4.9382251 7.8476562 9.6347656 A 2.0002 2.0002 0 1 0 10.826172 12.302734C14.306952 8.4152753 19.33471 5.96875 24.96875 5.96875C35.485874 5.96875 43.96875 14.451626 43.96875 24.96875C43.96875 35.485874 35.485874 43.96875 24.96875 43.96875C19.335804 43.96875 14.308056 41.522447 10.826172 37.634766 A 2.0002 2.0002 0 1 0 7.8476562 40.302734C12.053772 44.999053 18.173696 47.96875 24.96875 47.96875C37.647626 47.96875 47.96875 37.647626 47.96875 24.96875C47.96875 12.289874 37.647626 1.96875 24.96875 1.96875 z M 10.992188 15.949219 A 2.0002 2.0002 0 0 0 9.6171875 16.554688L2.7949219 23.376953 A 2.0002 2.0002 0 0 0 2.8027344 26.568359L9.6171875 33.382812 A 2.0002 2.0002 0 1 0 12.445312 30.554688L8.859375 26.96875L27.03125 26.96875 A 2.0002 2.0002 0 1 0 27.03125 22.96875L8.859375 22.96875L12.445312 19.382812 A 2.0002 2.0002 0 0 0 10.992188 15.949219 z" fill="#1797D1" />
</svg>