<svg id="undraw_male_avatar_323b" xmlns="http://www.w3.org/2000/svg" width="64.399" height="64.401" viewBox="0 0 64.399 64.401">
  <path id="Path_509" data-name="Path 509" d="M326.4,144.2a32.09,32.09,0,0,1-2.593,12.68l-.107.246a32.253,32.253,0,0,1-35.087,18.791q-.29-.051-.579-.107a31.914,31.914,0,0,1-5.824-1.718q-.459-.184-.911-.382c-.206-.09-.412-.182-.615-.277A32.2,32.2,0,1,1,326.4,144.2Z" transform="translate(-262 -112)" fill="#1797d1"/>
  <path id="Path_510" data-name="Path 510" d="M411.557,371.655q-.29-.051-.579-.107a132.412,132.412,0,0,0-2.029-18.985,70.438,70.438,0,0,0-3.472-12.629,39.31,39.31,0,0,0-1.817-3.986,20.671,20.671,0,0,0-5.769-7.135l.339-.463a19.923,19.923,0,0,1,5.165,5.914q.687,1.14,1.32,2.433.679,1.383,1.295,2.937.393.989.759,2.046a74.277,74.277,0,0,1,2.711,10.477q.247,1.3.471,2.665A135.1,135.1,0,0,1,411.557,371.655Z" transform="translate(-384.945 -307.74)" opacity="0.2"/>
  <path id="Path_511" data-name="Path 511" d="M407.563,610.425c-.206-.09-.412-.182-.615-.277a46.768,46.768,0,0,0-1.234-7.392,24.254,24.254,0,0,0-1.125-3.353,10.062,10.062,0,0,0-3.028-4.241l.339-.462a10.527,10.527,0,0,1,3.167,4.338,29.757,29.757,0,0,1,1.9,6.685C407.259,607.408,407.445,609.036,407.563,610.425Z" transform="translate(-388.265 -548.716)" opacity="0.2"/>
  <circle id="Ellipse_42" data-name="Ellipse 42" cx="2.866" cy="2.866" r="2.866" transform="translate(6.876 15.327)" opacity="0.2"/>
  <circle id="Ellipse_43" data-name="Ellipse 43" cx="2.866" cy="2.866" r="2.866" transform="translate(7.799 40.002)" opacity="0.2"/>
  <path id="Path_512" data-name="Path 512" d="M482.213,297.639a12.732,12.732,0,0,0,.734,6.534,11.6,11.6,0,0,0,2.2-12.418A12.733,12.733,0,0,0,482.213,297.639Z" transform="translate(-461.092 -274.631)" opacity="0.2"/>
  <path id="Path_513" data-name="Path 513" d="M333.5,399.6a12.8,12.8,0,0,0,6.558.428,11.675,11.675,0,0,0-11.845-4.331A12.8,12.8,0,0,0,333.5,399.6Z" transform="translate(-321.909 -368.454)" opacity="0.2"/>
  <path id="Path_514" data-name="Path 514" d="M342.731,640.6a8.924,8.924,0,0,0,4.6.291,8.133,8.133,0,0,0-8.3-3.036A8.924,8.924,0,0,0,342.731,640.6Z" transform="translate(-331.69 -587.606)" opacity="0.2"/>
  <circle id="Ellipse_44" data-name="Ellipse 44" cx="12.553" cy="12.553" r="12.553" transform="translate(19.58 14.224)" fill="#d0cde1"/>
  <path id="Path_515" data-name="Path 515" d="M547.833,456.71s1.569,7.453,1.569,8.238,7.453,4.315,7.453,4.315l6.669-1.177,2.354-7.061s-3.923-5.884-3.923-8.238Z" transform="translate(-520.603 -420.322)" fill="#d0cde1"/>
  <path id="Path_516" data-name="Path 516" d="M437.115,523.55l-.107.246a32.253,32.253,0,0,1-35.087,18.791q-.29-.051-.579-.107a31.912,31.912,0,0,1-5.824-1.718q-.459-.184-.911-.382c-.206-.09-.412-.182-.615-.277a32.159,32.159,0,0,1-5.263-3.075l-1.488-4.316.836-.638,1.72-1.314,1.836-1.4.477-.365,7.2-5.5.532-.406,3.744-2.858h0s4.049,6.6,9.933,4.636a8.114,8.114,0,0,0,5.756-7.586Z" transform="translate(-375.309 -478.671)" fill="#2f2e41"/>
  <path id="Path_517" data-name="Path 517" d="M457,221s3.986-8.635,11.624-6.643,11.957,4.982,12.289,7.971a42.649,42.649,0,0,1-.166,7.473s-.83-6.144-6.144-4.816-13.617.332-13.617.332l-1.329,11.957s-1.495-2.159-3.155-.83S451.683,223.653,457,221Z" transform="translate(-435.75 -204.332)" fill="#2f2e41"/>
  <path id="Path_518" data-name="Path 518" d="M380.39,687.321q-.459-.184-.911-.382c-.206-.09-.412-.182-.615-.277a32.279,32.279,0,0,1-8.344-5.592,11.287,11.287,0,0,1,1.593-1.8H378l.882,2.967Z" transform="translate(-360.182 -625.229)" fill="#2f2e41"/>
  <path id="Path_519" data-name="Path 519" d="M853.259,576.32l5.048.892a32.194,32.194,0,0,1-5.407,8.438Z" transform="translate(-796.608 -532.087)" fill="#2f2e41"/>
</svg>
