<svg xmlns="http://www.w3.org/2000/svg" width="23.714" height="15.091" viewBox="0 0 23.714 15.091">
  <g id="icons8_mastercard_logo" transform="translate(-2 -10)">
    <path id="Path_464" data-name="Path 464" d="M25.545,10a7.545,7.545,0,1,0,7.545,7.545A7.545,7.545,0,0,0,25.545,10Z" transform="translate(-7.377)" fill="#ff9800"/>
    <path id="Path_465" data-name="Path 465" d="M9.545,10a7.545,7.545,0,1,0,7.545,7.545A7.545,7.545,0,0,0,9.545,10Z" fill="#d50000"/>
    <path id="Path_466" data-name="Path 466" d="M18,18.707a7.532,7.532,0,0,0,3.234,6.187,7.536,7.536,0,0,0,0-12.374A7.532,7.532,0,0,0,18,18.707Z" transform="translate(-7.377 -1.162)" fill="#ff3d00"/>
  </g>
</svg>
