<svg xmlns="http://www.w3.org/2000/svg" width="173" height="36.908" viewBox="0 0 173 36.908">
  <g id="millenniumbim-neg" transform="translate(0 -11.055)">
    <g id="Millennium-bim-SVG---Negativo" transform="translate(0 11)">
      <g id="XMLID_90_" transform="translate(0 26.139)">
        <g id="Group">
          <rect id="XMLID_68_" width="173" height="1.178" fill="#d1005d"/>
        </g>
      </g>
      <g id="XMLID_71_" transform="translate(16.317)">
        <path id="XMLID_66_" d="M99.906,27.244l-.018,8.431a2.451,2.451,0,0,0,3.615-2.227,2.075,2.075,0,0,0-1.984-2.338,3.465,3.465,0,0,0-1.223.276l.7-1.252a5.618,5.618,0,0,1,.742-.074,2.994,2.994,0,0,1,3.115,3.258c0,2.191-1.539,3.645-4.079,3.645a12.249,12.249,0,0,1-2.188-.239v-9.48Z" fill="#d1005d"/>
        <path id="XMLID_65_" d="M106.3,30.263v6.516h1.3V30.263Z" fill="#d1005d"/>
        <path id="XMLID_64_" d="M109.585,30.263v6.5h1.3V33.024c0-1.362.519-2.025,1.613-2.025.89,0,1.632.755,1.632,2.227v3.516h1.3V33.116c0-1.325.352-2.135,1.632-2.135,1.131,0,1.594.92,1.594,2.356v3.387h1.3V32.987c0-1.8-.519-2.945-2.54-2.945a2.613,2.613,0,0,0-2.281,1.233,2.411,2.411,0,0,0-2.225-1.233,2.136,2.136,0,0,0-2,1.123v-.939Z" fill="#d1005d"/>
        <path id="XMLID_63_" d="M106.062,28.661a.887.887,0,0,1,.89-.884.872.872,0,0,1,.872.884.884.884,0,0,1-.872.884A.912.912,0,0,1,106.062,28.661Z" fill="#d1005d"/>
        <path id="XMLID_62_" d="M.148.055A5.174,5.174,0,0,1,3.059.92c1.409.92,2.281,3.056,1.891,5.946L3.226,19.476C3,21.022,2.54,23.562,2.54,23.562H5.006s.148-1.951.389-3.682l1.65-12.3,5.47,12.9a6.865,6.865,0,0,0,2.54,3.461L21.509,7.566l1.65,13.788c.093.976.167,2.227.167,2.227h3.189s-.278-1.657-.445-3L24.179,6.535c-.056-.663-.13-1.767-.13-1.767H20.1V4.8a5.034,5.034,0,0,1-.426,1.767l-4.84,12.094L9.42,6.056C7.732,2.191,5.359.589,3.486.147,3.412.129,3.282.11,3.078.055Z" fill="#d1005d"/>
        <path id="XMLID_61_" d="M32.764,6.7a1.736,1.736,0,0,0-1.687-1.786A1.768,1.768,0,0,0,29.26,6.608a1.823,1.823,0,0,0,1.817,1.9A1.741,1.741,0,0,0,32.764,6.7Z" fill="#d1005d"/>
        <path id="XMLID_60_" d="M29.742,10.235l-.018,13.254H32.3V10.235Z" fill="#d1005d"/>
        <path id="XMLID_59_" d="M36.417,4.528l.019,18.96h2.689V4.51Z" fill="#d1005d"/>
        <path id="XMLID_58_" d="M43.018,4.492V23.47h2.689L45.67,4.492Z" fill="#d1005d"/>
        <path id="XMLID_78_" d="M51.752,14.6A3.6,3.6,0,0,1,55.5,11.634c2.1,0,3.43.957,3.746,2.964Zm10.532,1.675a6.2,6.2,0,0,0-6.527-6.535c-4.32,0-7.269,2.908-7.269,6.921s3.393,7.087,8.344,7.087a10.507,10.507,0,0,0,4.005-.718l1.446-2.706h-.093a7.753,7.753,0,0,1-4.765,1.528c-3.282,0-5.748-2.043-5.8-5.559l10.662-.018Z" fill="#d1005d"/>
        <path id="XMLID_55_" d="M98.719,6.719a1.736,1.736,0,0,0-1.687-1.786,1.768,1.768,0,0,0-1.817,1.694,1.823,1.823,0,0,0,1.817,1.9A1.777,1.777,0,0,0,98.719,6.719Z" fill="#d1005d"/>
        <path id="XMLID_54_" d="M95.7,10.253l-.019,13.254h2.559l.019-13.254Z" fill="#d1005d"/>
        <path id="XMLID_53_" d="M64.88,10.216V23.489h2.689l-.019-8.265c0-1.694.445-3.461,3.078-3.461s3.523,1.583,3.523,4.676v7.069H76.8V16.162c0-1.362.093-3.148-.723-4.289a5.386,5.386,0,0,0-4.413-1.988,4.715,4.715,0,0,0-4.1,2.227V10.235Z" fill="#d1005d"/>
        <path id="XMLID_52_" d="M111.032,10.2v7.676c0,2.227-1.391,3.774-3.32,3.774-2.521,0-3.282-1.638-3.282-4.289V10.216h-2.67l.019,7.639c0,4.068,1.632,6,5.062,6a4.353,4.353,0,0,0,4.172-2.246v1.878h2.652V10.235Z" fill="#d1005d"/>
        <path id="XMLID_51_" d="M80.066,10.2V23.47h2.689l-.019-8.284c0-1.694.445-3.461,3.078-3.461,2.652,0,3.523,1.583,3.523,4.676V23.47h2.67l-.019-7.345c0-1.362.093-3.148-.723-4.289a5.386,5.386,0,0,0-4.413-1.988,4.715,4.715,0,0,0-4.1,2.227V10.216H80.066Z" fill="#d1005d"/>
        <path id="XMLID_50_" d="M117.429,10.235V23.489h2.651v-7.6c0-2.761,1.076-4.123,3.282-4.123,1.8,0,3.319,1.528,3.319,4.547v7.179h2.633V16.107c0-2.706.723-4.344,3.338-4.344,2.318,0,3.245,1.878,3.245,4.8v6.921h2.651V15.849c0-3.663-1.075-6-5.192-6a5.391,5.391,0,0,0-4.654,2.5,4.919,4.919,0,0,0-4.524-2.5,4.375,4.375,0,0,0-4.1,2.283v-1.9Z" fill="#d1005d"/>
      </g>
    </g>
  </g>
</svg>
