<svg xmlns="http://www.w3.org/2000/svg" width="239.159" height="172.76" viewBox="0 0 239.159 172.76">
  <g id="undraw_online_learning_re_qw08" transform="translate(0 0)" opacity="0.4">
    <path id="Path_597" data-name="Path 597" d="M492.813,694.8H254.346a.346.346,0,1,1,0-.691H492.813a.346.346,0,1,1,0,.691Z" transform="translate(-254 -523.361)" fill="#ccc"/>
    <path id="Path_598" data-name="Path 598" d="M606.766,521.7H466.45a2.246,2.246,0,0,0,0,4.493h3.974v53.742a2.246,2.246,0,0,0,4.493,0l.034-53.742h123v53.742a2.246,2.246,0,0,0,4.493,0V527.38l.654-1.184h3.666a2.246,2.246,0,0,0,0-4.493Z" transform="translate(-391.556 -410.542)" fill="#ccc"/>
    <path id="Path_599" data-name="Path 599" d="M609.438,469.041h-42.5a3.108,3.108,0,0,1-3.1-3.1v-23.4a3.108,3.108,0,0,1,3.1-3.1h42.5a3.108,3.108,0,0,1,3.1,3.1v23.4A3.108,3.108,0,0,1,609.438,469.041Z" transform="translate(-456.751 -356.704)" fill="#3f3d56"/>
    <path id="Path_600" data-name="Path 600" d="M613.961,446.345h-42.5a.717.717,0,0,0-.715.715v23.4a.717.717,0,0,0,.715.715h42.5a.717.717,0,0,0,.715-.715v-23.4A.717.717,0,0,0,613.961,446.345Z" transform="translate(-461.275 -361.228)" fill="#fff"/>
    <path id="Path_601" data-name="Path 601" d="M628.512,493.679s-5.088-1.172-7.887.977,3.562,7.035,3.562,7.035Z" transform="translate(-493.452 -391.994)" fill="#2f2e41"/>
    <circle id="Ellipse_58" data-name="Ellipse 58" cx="4.799" cy="4.799" r="4.799" transform="translate(126.885 89.87)" fill="#a0616a"/>
    <path id="Path_602" data-name="Path 602" d="M619.2,451.3a3.421,3.421,0,0,1,3.154-1.678,6.7,6.7,0,0,1,1.906.534l3.137,1.224a2.543,2.543,0,0,1,1.889,3.866l-1.174,3.661a11.142,11.142,0,0,0-.665-2.418,3.745,3.745,0,0,0-1.626-1.854,5.3,5.3,0,0,0-2.69-.365,5.377,5.377,0,0,0-3.625,1.141,3.766,3.766,0,0,0-.955,1.866,11.232,11.232,0,0,0-.2,2.112,17.514,17.514,0,0,1-1.337-2.867,7.093,7.093,0,0,1-.5-2.321,3.264,3.264,0,0,1,.748-2.207,2.141,2.141,0,0,1,2.153-.678Z" transform="translate(-491.228 -363.37)" fill="#2f2e41"/>
    <path id="Path_603" data-name="Path 603" d="M625.811,497.291a.854.854,0,0,0-.715-.619.292.292,0,0,0-.035-.021l-7.165-4.015a.911.911,0,0,0-1.219.314l-1.96,3.173-2.951-2.951-.047-.047a.911.911,0,0,0-1.167-.1l-5.888,4.123c-.01,0-.021,0-.031,0a1.256,1.256,0,0,0-1.047,1.172l-.152,3.072h23.515Z" transform="translate(-482.667 -391.445)" fill="#6c63ff"/>
    <path id="Path_604" data-name="Path 604" d="M609.4,515.91h-4.537a.478.478,0,0,0-.478-.478h-1.433a.478.478,0,0,0-.478.478h-1.433a.478.478,0,0,0-.478-.478h-1.432a.478.478,0,0,0-.478.478h-1.433a.478.478,0,0,0-.478-.478h-1.433a.478.478,0,0,0-.478.478H593.4a.478.478,0,0,0-.478-.478h-1.433a.478.478,0,0,0-.478.478h-1.433a.478.478,0,0,0-.478-.478h-1.433a.478.478,0,0,0-.478.478h-1.433a.478.478,0,0,0-.478-.478h-1.433a.478.478,0,0,0-.478.478h-1.433a.477.477,0,0,0-.477-.478h-1.433a.478.478,0,0,0-.478.478h-1.433a.478.478,0,0,0-.478-.478h-1.433a.478.478,0,0,0-.478.478H574.3a.478.478,0,0,0-.478-.478h-1.433a.478.478,0,0,0-.478.478h-1.433a.478.478,0,0,0-.478-.478h-1.433a.478.478,0,0,0-.478.478h-1.433a.478.478,0,0,0-.478-.478h-1.433a.478.478,0,0,0-.478.478h-4.537a1.433,1.433,0,0,0,0,2.865H609.4a1.433,1.433,0,1,0,0-2.865Z" transform="translate(-453.135 -406.438)" fill="#3f3d56"/>
    <path id="Path_605" data-name="Path 605" d="M486.625,492.734v9.513H462.791a4.759,4.759,0,1,1,0-9.513Z" transform="translate(-387.409 -391.583)" fill="#f2f2f2"/>
    <path id="Path_606" data-name="Path 606" d="M486.241,501.764a.366.366,0,0,1-.366.366H461.4a5.013,5.013,0,0,1,0-10.025h24.478a.366.366,0,0,1,0,.732H461.4a4.281,4.281,0,1,0,0,8.562h24.478A.366.366,0,0,1,486.241,501.764Z" transform="translate(-386.439 -391.173)" fill="#6c63ff"/>
    <path id="Path_607" data-name="Path 607" d="M492.445,498.815H466.832a.073.073,0,1,1,0-.146h25.612a.073.073,0,0,1,0,.146Z" transform="translate(-393.228 -395.468)" fill="#ccc"/>
    <path id="Path_608" data-name="Path 608" d="M492.445,503.9H466.832a.073.073,0,1,1,0-.146h25.612a.073.073,0,0,1,0,.146Z" transform="translate(-393.228 -398.794)" fill="#ccc"/>
    <path id="Path_609" data-name="Path 609" d="M492.445,508.978H466.832a.073.073,0,1,1,0-.146h25.612a.073.073,0,0,1,0,.146Z" transform="translate(-393.228 -402.119)" fill="#ccc"/>
    <path id="Path_610" data-name="Path 610" d="M492.445,514.06H466.832a.073.073,0,1,1,0-.146h25.612a.073.073,0,0,1,0,.146Z" transform="translate(-393.228 -405.445)" fill="#ccc"/>
    <path id="Path_611" data-name="Path 611" d="M473.625,463.734v9.513H449.791a4.759,4.759,0,1,1,0-9.513Z" transform="translate(-378.902 -372.606)" fill="#f2f2f2"/>
    <path id="Path_612" data-name="Path 612" d="M473.241,472.764a.366.366,0,0,1-.366.366H448.4a5.013,5.013,0,0,1,0-10.025h24.478a.366.366,0,1,1,0,.732H448.4a4.281,4.281,0,1,0,0,8.562h24.478A.366.366,0,0,1,473.241,472.764Z" transform="translate(-377.932 -372.196)" fill="#3f3d56"/>
    <path id="Path_613" data-name="Path 613" d="M479.445,469.815H453.832a.073.073,0,1,1,0-.146h25.612a.073.073,0,0,1,0,.146Z" transform="translate(-384.721 -376.491)" fill="#ccc"/>
    <path id="Path_614" data-name="Path 614" d="M479.445,474.9H453.832a.073.073,0,1,1,0-.146h25.612a.073.073,0,1,1,0,.146Z" transform="translate(-384.721 -379.817)" fill="#ccc"/>
    <path id="Path_615" data-name="Path 615" d="M479.445,479.978H453.832a.073.073,0,1,1,0-.146h25.612a.073.073,0,1,1,0,.146Z" transform="translate(-384.721 -383.142)" fill="#ccc"/>
    <path id="Path_616" data-name="Path 616" d="M479.445,485.06H453.832a.073.073,0,1,1,0-.146h25.612a.073.073,0,1,1,0,.146Z" transform="translate(-384.721 -386.467)" fill="#ccc"/>
    <path id="Path_617" data-name="Path 617" d="M543.518,599.782v-8.295a1.382,1.382,0,0,0-1.382-1.382h-31.45a1.382,1.382,0,0,0-1.382,1.382v8.295Z" transform="translate(-421.069 -455.304)" fill="#ccc"/>
    <rect id="Rectangle_600" data-name="Rectangle 600" width="34.215" height="10.714" transform="translate(88.234 147.588)" fill="#ccc"/>
    <path id="Path_618" data-name="Path 618" d="M509.3,667.1V675.4a1.382,1.382,0,0,0,1.382,1.382h31.45a1.382,1.382,0,0,0,1.382-1.382V667.1Z" transform="translate(-421.069 -505.692)" fill="#ccc"/>
    <circle id="Ellipse_59" data-name="Ellipse 59" cx="1.037" cy="1.037" r="1.037" transform="translate(104.132 138.948)" fill="#fff"/>
    <circle id="Ellipse_60" data-name="Ellipse 60" cx="1.037" cy="1.037" r="1.037" transform="translate(104.132 152.772)" fill="#fff"/>
    <circle id="Ellipse_61" data-name="Ellipse 61" cx="1.037" cy="1.037" r="1.037" transform="translate(104.188 166.304)" fill="#fff"/>
    <path id="Path_619" data-name="Path 619" d="M542.625,562.735v9.513H518.791a4.759,4.759,0,1,1,0-9.513Z" transform="translate(-424.055 -437.391)" fill="#f2f2f2"/>
    <path id="Path_620" data-name="Path 620" d="M542.241,571.764a.366.366,0,0,1-.366.366H517.4a5.013,5.013,0,1,1,0-10.025h24.478a.366.366,0,1,1,0,.732H517.4a4.281,4.281,0,1,0,0,8.562h24.478A.366.366,0,0,1,542.241,571.764Z" transform="translate(-423.086 -436.981)" fill="#3f3d56"/>
    <path id="Path_621" data-name="Path 621" d="M548.445,568.815H522.832a.073.073,0,0,1,0-.146h25.612a.073.073,0,0,1,0,.146Z" transform="translate(-429.875 -441.276)" fill="#ccc"/>
    <path id="Path_622" data-name="Path 622" d="M548.445,573.9H522.832a.073.073,0,1,1,0-.146h25.612a.073.073,0,0,1,0,.146Z" transform="translate(-429.875 -444.602)" fill="#ccc"/>
    <path id="Path_623" data-name="Path 623" d="M548.445,578.978H522.832a.073.073,0,1,1,0-.146h25.612a.073.073,0,0,1,0,.146Z" transform="translate(-429.875 -447.927)" fill="#ccc"/>
    <path id="Path_624" data-name="Path 624" d="M548.445,584.06H522.832a.073.073,0,1,1,0-.146h25.612a.073.073,0,0,1,0,.146Z" transform="translate(-429.875 -451.252)" fill="#ccc"/>
    <path id="Path_625" data-name="Path 625" d="M504.11,263.315V202.661a2.6,2.6,0,0,1,2.6-2.6h47.945a2.6,2.6,0,0,1,2.6,2.6v60.654a2.6,2.6,0,0,1-2.6,2.6H506.71A2.6,2.6,0,0,1,504.11,263.315Zm2.6-62.676a2.024,2.024,0,0,0-2.022,2.022v60.654a2.024,2.024,0,0,0,2.022,2.022h47.945a2.024,2.024,0,0,0,2.022-2.022V202.661a2.024,2.024,0,0,0-2.022-2.022Z" transform="translate(-417.671 -200.062)" fill="#e6e6e6"/>
    <path id="Path_626" data-name="Path 626" d="M588.776,254.617V242.163a1.3,1.3,0,0,1,1.3-1.3h10.554a1.3,1.3,0,0,1,1.3,1.3v12.454a1.3,1.3,0,0,1-1.3,1.3H590.076a1.3,1.3,0,0,1-1.3-1.3Z" transform="translate(-473.076 -226.762)" fill="#6c63ff"/>
    <path id="Path_627" data-name="Path 627" d="M529.44,271.331V258.877a1.3,1.3,0,0,1,1.3-1.3h10.554a1.3,1.3,0,0,1,1.3,1.3v12.454a1.3,1.3,0,0,1-1.3,1.3H530.74A1.3,1.3,0,0,1,529.44,271.331Z" transform="translate(-434.246 -237.7)" fill="#ccc"/>
    <path id="Path_628" data-name="Path 628" d="M577.076,322.31V309.856a1.3,1.3,0,0,1,1.3-1.3H588.93a1.3,1.3,0,0,1,1.3,1.3V322.31a1.3,1.3,0,0,1-1.3,1.3H578.376A1.3,1.3,0,0,1,577.076,322.31Z" transform="translate(-465.419 -271.06)" fill="#ff6584"/>
    <path id="Path_629" data-name="Path 629" d="M732.674,513.1H721.815a.671.671,0,0,0-.3.069l-2.741,1.372a.5.5,0,0,0,0,.919l2.741,1.372a.671.671,0,0,0,.3.069h10.859a.57.57,0,0,0,.6-.529v-2.744A.57.57,0,0,0,732.674,513.1Z" transform="translate(-557.949 -404.914)" fill="#3f3d56"/>
    <path id="Path_630" data-name="Path 630" d="M756.068,513.632v2.744a.57.57,0,0,1-.6.529H753.3v-3.8h2.163A.57.57,0,0,1,756.068,513.632Z" transform="translate(-580.741 -404.914)" fill="#6c63ff"/>
    <path id="Path_631" data-name="Path 631" d="M754.979,453.116a3.8,3.8,0,0,1,5.146,2.39,3.645,3.645,0,0,1,.111.5l15.185,7.53,3.514-2.329,4.373,5.034-5.366,4.358a3.853,3.853,0,0,1-4.6.177l-15.407-10.654a3.631,3.631,0,0,1-.351.128,3.8,3.8,0,0,1-4.842-2.959,3.7,3.7,0,0,1-.056-.463,3.814,3.814,0,0,1,2.29-3.708Z" transform="translate(-580.336 -365.455)" fill="#ffb8b8"/>
    <path id="Path_632" data-name="Path 632" d="M783.765,587.853H767.173c0,.477-17.1.864-17.1.864a4.45,4.45,0,0,0-.729.691,4.289,4.289,0,0,0-1,2.765v.691a4.322,4.322,0,0,0,4.32,4.32h31.1a4.324,4.324,0,0,0,4.32-4.32v-.691A4.326,4.326,0,0,0,783.765,587.853Z" transform="translate(-577.494 -453.83)" fill="#3f3d56"/>
    <rect id="Rectangle_601" data-name="Rectangle 601" width="4.493" height="29.031" transform="translate(192.716 172.213) rotate(180)" fill="#3f3d56"/>
    <path id="Path_633" data-name="Path 633" d="M761.617,689.692c0,.485,6.808.188,15.207.188s15.207.3,15.207-.188-6.808-4.335-15.207-4.335S761.617,689.206,761.617,689.692Z" transform="translate(-586.182 -517.636)" fill="#3f3d56"/>
    <path id="Path_634" data-name="Path 634" d="M507.514,467.185h-4.237L501.261,456.2h6.253Z" transform="translate(-328.022 -298.532)" fill="#ffb8b8"/>
    <path id="Path_635" data-name="Path 635" d="M750.611,689.541H736.949v-.173a5.318,5.318,0,0,1,5.318-5.318h8.344Z" transform="translate(-570.039 -516.781)" fill="#2f2e41"/>
    <path id="Path_636" data-name="Path 636" d="M737.9,594.321l-8.447-18.942a6.942,6.942,0,0,1,3.048-8.911l18.322-9.825,8.361-.711,7.712-.7.056.094a7.805,7.805,0,0,1,.608,6.125c-.85,2.382-3.062,4.243-6.573,5.53-8.2,3.005-17.664,5.574-21.354,6.538a1.193,1.193,0,0,0-.764.608,1.209,1.209,0,0,0-.068.967l7.847,17.631a1.555,1.555,0,0,1-1.317,2.084l-5.864.427q-.075.007-.149.007A1.554,1.554,0,0,1,737.9,594.321Z" transform="translate(-564.746 -432.483)" fill="#2f2e41"/>
    <path id="Path_637" data-name="Path 637" d="M513.514,467.185h-4.237L507.261,456.2h6.253Z" transform="translate(-331.949 -298.532)" fill="#ffb8b8"/>
    <path id="Path_638" data-name="Path 638" d="M756.611,689.541H742.949v-.173a5.318,5.318,0,0,1,5.318-5.318h8.344Z" transform="translate(-573.966 -516.781)" fill="#2f2e41"/>
    <path id="Path_639" data-name="Path 639" d="M744.9,597.321l-8.447-18.942a6.942,6.942,0,0,1,3.048-8.911l18.322-9.825,8.361-.711,7.712-.7.056.094a7.806,7.806,0,0,1,.608,6.125c-.85,2.382-3.062,4.243-6.573,5.53-8.2,3.005-17.664,5.574-21.354,6.538a1.193,1.193,0,0,0-.764.608,1.209,1.209,0,0,0-.068.967l7.847,17.631a1.555,1.555,0,0,1-1.317,2.084l-5.864.427q-.075.007-.149.007A1.554,1.554,0,0,1,744.9,597.321Z" transform="translate(-569.326 -434.446)" fill="#2f2e41"/>
    <path id="Path_640" data-name="Path 640" d="M733.929,458.457a57.891,57.891,0,0,1-8.321-15.529,1.487,1.487,0,0,1,.7-1.79l12.146-6.508a1.467,1.467,0,0,1,1.287-.052,1.492,1.492,0,0,1,.851,1,35.366,35.366,0,0,0,7.757,14.478,1.493,1.493,0,0,1,.359,1.26,1.468,1.468,0,0,1-.757,1.043l-12.147,6.508a1.487,1.487,0,0,1-1.879-.407Z" transform="translate(-562.565 -353.446)" fill="#ccc"/>
    <path id="Path_641" data-name="Path 641" d="M736.72,459.8a.449.449,0,0,0,.561.116l12.147-6.508a.431.431,0,0,0,.225-.31.456.456,0,0,0-.112-.39,36.4,36.4,0,0,1-7.986-14.9.456.456,0,0,0-.262-.309.431.431,0,0,0-.384.016l-12.146,6.508a.449.449,0,0,0-.214.531A56.856,56.856,0,0,0,736.72,459.8Z" transform="translate(-564.528 -355.41)" fill="#fff"/>
    <path id="Path_642" data-name="Path 642" d="M843.751,483.728l-9.513,3.615-2.323-6.451a3.86,3.86,0,0,1,1.729-4.665h0a3.86,3.86,0,0,1,4.929.962Z" transform="translate(-632.035 -380.454)" fill="#6c63ff"/>
    <path id="Path_643" data-name="Path 643" d="M794.2,508.983a1.728,1.728,0,0,1-.72-1.227c-1.218-11.374-.37-20.275,2.594-27.211a8.637,8.637,0,0,1,5.726-4.9l7.69-.388.04.019a8.988,8.988,0,0,1,4.914,9.534c-2.473,6.519-4.544,13.307-2.965,18.782a1.771,1.771,0,0,1-.167,1.377,1.688,1.688,0,0,1-1.077.8l-14.646,3.484a1.716,1.716,0,0,1-1.388-.269Z" transform="translate(-606.682 -380.148)" fill="#6c63ff"/>
    <circle id="Ellipse_62" data-name="Ellipse 62" cx="8.488" cy="8.488" r="8.488" transform="translate(191.754 75.26)" fill="#ffb8b8"/>
    <path id="Path_644" data-name="Path 644" d="M749.651,457.377l-6.615,2.92a1.038,1.038,0,0,1-1.367-.53l-.164-.371a1.038,1.038,0,0,1,.53-1.367l6.615-2.92a1.038,1.038,0,0,1,1.367.53l.164.371A1.038,1.038,0,0,1,749.651,457.377Z" transform="translate(-572.963 -366.906)" fill="#ccc"/>
    <path id="Path_645" data-name="Path 645" d="M756.651,470.377l-6.615,2.92a1.038,1.038,0,0,1-1.367-.53l-.164-.371a1.038,1.038,0,0,1,.53-1.367l6.615-2.92a1.038,1.038,0,0,1,1.367.53l.164.371A1.038,1.038,0,0,1,756.651,470.377Z" transform="translate(-577.544 -375.413)" fill="#ccc"/>
    <path id="Path_646" data-name="Path 646" d="M749.555,489.578l-14.748-11.635a3.652,3.652,0,0,1-.358.106,3.811,3.811,0,0,1-3.047-.585,3.772,3.772,0,0,1-1.6-2.673,3.8,3.8,0,0,1,7.477-1.314,3.659,3.659,0,0,1,.079.5l14.682,8.47,3.654-2.1,4.047,5.3-5.673,4.043a3.781,3.781,0,0,1-4.513-.11Z" transform="translate(-565.345 -377.065)" fill="#ffb8b8"/>
    <path id="Path_647" data-name="Path 647" d="M805.752,494.474l-8.415-5.722,3.955-5.6a3.86,3.86,0,0,1,4.814-1.258h0a3.86,3.86,0,0,1,2.037,4.591Z" transform="translate(-609.557 -384.245)" fill="#6c63ff"/>
    <path id="Path_648" data-name="Path 648" d="M807.62,418.9c-2.182,1.493-5.046,3.028-7.275,1.438a4.055,4.055,0,0,1-1.331-4.674c1.067-3.051,4-4.394,6.8-5.424,3.644-1.339,7.612-2.4,11.374-1.445s7.087,4.6,6.408,8.423c-.546,3.074-3.446,5.632-3.034,8.726.414,3.115,3.917,4.754,7.009,5.311s6.553.736,8.775,2.957c2.835,2.834,2.127,7.9-.541,10.89s-6.693,4.348-10.594,5.27c-5.168,1.221-10.758,1.863-15.667-.164s-8.729-7.484-7.307-12.6a17.579,17.579,0,0,1,3.383-5.766,16.069,16.069,0,0,0,3.274-5.82,6.05,6.05,0,0,0-1.093-5.293,1.533,1.533,0,0,1-.205-1.792Z" transform="translate(-610.49 -336.411)" fill="#2f2e41"/>
    <path id="Path_649" data-name="Path 649" d="M318.3,490.687a13.5,13.5,0,0,1-13.037-2.3c-4.566-3.833-6-10.146-7.163-15.993L294.657,455.1l7.213,4.967c5.187,3.572,10.492,7.258,14.083,12.432s5.16,12.236,2.274,17.834" transform="translate(-280.606 -366.96)" fill="#e6e6e6"/>
    <path id="Path_650" data-name="Path 650" d="M341.724,553.222c.73-5.318,1.481-10.7.969-16.079a25.289,25.289,0,0,0-4.876-13.259,22.059,22.059,0,0,0-5.659-5.128c-.566-.357-1.087.54-.523.9a20.969,20.969,0,0,1,8.294,10.008,33.611,33.611,0,0,1,1.785,14.479c-.188,2.951-.587,5.882-.989,8.809a.537.537,0,0,0,.362.638.521.521,0,0,0,.638-.362Z" transform="translate(-304.645 -408.559)" fill="#f2f2f2"/>
    <path id="Path_651" data-name="Path 651" d="M284.674,571.037a9.938,9.938,0,0,1-8.659,4.469c-4.383-.208-8.038-3.267-11.327-6.172l-9.73-8.591,6.44-.308c4.631-.222,9.381-.428,13.792,1s8.479,4.865,9.285,9.431" transform="translate(-254.627 -435.785)" fill="#e6e6e6"/>
    <path id="Path_652" data-name="Path 652" d="M326.45,597.1c-3.514-6.218-7.59-13.128-14.873-15.337a16.6,16.6,0,0,0-6.256-.646c-.664.057-.5,1.081.165,1.024a15.419,15.419,0,0,1,9.983,2.641,25.949,25.949,0,0,1,6.862,7.4c1.136,1.73,2.154,3.534,3.172,5.335C325.828,598.1,326.779,597.682,326.45,597.1Z" transform="translate(-287.308 -449.381)" fill="#f2f2f2"/>
    <path id="Path_653" data-name="Path 653" d="M352.462,627.68a7.525,7.525,0,0,0-4.611-6.3v-3.595h-6.029v3.708a7.521,7.521,0,0,0-4.36,6.19l-1.418,16.48H353.88Z" transform="translate(-307.689 -473.416)" fill="#f2f2f2"/>
  </g>
</svg>
