<svg xmlns="http://www.w3.org/2000/svg" width="15.077" height="16.177" viewBox="0 0 15.077 16.177">
  <path id="phone" d="M14.566,11.45c-.976-.836-1.97-1.344-2.934-.508l-.577.5c-.422.367-1.206,2.079-4.236-1.41s-1.228-4.024-.8-4.387l.579-.506c.959-.836.6-1.889-.1-2.974l-.417-.656C5.386.433,4.626-.277,3.665.556l-.52.456a4.871,4.871,0,0,0-1.9,3.23c-.348,2.3.75,4.927,3.257,7.812s4.961,4.337,7.284,4.313a4.906,4.906,0,0,0,3.464-1.435l.52-.456c.962-.833.365-1.684-.614-2.52Z" transform="translate(-1.178 -0.191)" fill="#fff"/>
</svg>
