<svg xmlns="http://www.w3.org/2000/svg" width="17.681" height="18.97" viewBox="0 0 17.681 18.97">
  <path id="icons8_phone" d="M16.878,13.395c-1.145-.98-2.31-1.576-3.441-.6l-.677.59c-.494.431-1.414,2.438-4.968-1.654S6.352,7.016,6.85,6.591L7.529,6c1.125-.98.7-2.215-.113-3.487l-.489-.769C6.112.475,5.222-.358,4.094.619l-.61.535A5.713,5.713,0,0,0,1.252,4.942c-.408,2.692.879,5.778,3.82,9.161s5.818,5.087,8.542,5.058a5.753,5.753,0,0,0,4.063-1.683l.61-.535c1.128-.977.428-1.975-.72-2.955Z" transform="translate(-1.178 -0.191)" fill="rgba(113,119,122,0.5)"/>
</svg>
