<svg xmlns="http://www.w3.org/2000/svg" width="13.181" height="18" viewBox="0 0 13.181 18">
  <g id="label" transform="translate(-10.51 -2)">
    <path id="Path_242" data-name="Path 242" d="M37.787,11.446,35.1,2.3a.41.41,0,0,0-.509-.275,73.432,73.432,0,0,0,.119,9.93h2.68a.41.41,0,0,0,.41-.525Z" transform="translate(-14.125 -0.005)" fill="#4a4f51"/>
    <path id="Path_243" data-name="Path 243" d="M20.587,2H10.92a.41.41,0,0,0-.41.41V19.593a.405.405,0,0,0,.628.341l4.6-3.07,4.618,3.07a.447.447,0,0,0,.41.021.41.41,0,0,0,.218-.361V2.41a.41.41,0,0,0-.4-.41Z" fill="#71777a"/>
  </g>
</svg>
