<svg xmlns="http://www.w3.org/2000/svg" width="15.531" height="15.513" viewBox="0 0 15.531 15.513">
  <path id="icons8_remove_administrator" d="M8.42,2A3.242,3.242,0,0,0,5.765,3.071c-.587.773-.689,1.924-.313,3.517a1.159,1.159,0,0,0-.222.821,1.35,1.35,0,0,0,.578,1.1A3.229,3.229,0,0,0,6.52,10c0,.072,0,.141,0,.211a6.208,6.208,0,0,1-.03.92,1,1,0,0,1-.381.442L7.129,12.8l.949-1.179a.367.367,0,0,1,.348-.167c.122-.038.263.061.348.167l.215.266a1.7,1.7,0,0,1,.186.231l.62.75a3.919,3.919,0,0,0-.076.765h0a.327.327,0,0,1-.25-.121l-.641-.8-.237.208a6.337,6.337,0,0,1,.732,2H7.534a6.644,6.644,0,0,1,.731-2l-.245-.2-.634.788a.328.328,0,0,1-.25.121h0a.326.326,0,0,1-.249-.116l-1.353-1.63c-.2.088-.408.173-.63.261-1.261.5-2.83,1.121-2.939,3.083l-.018.341h8.3a3.881,3.881,0,1,0,.23-4.227.764.764,0,0,1-.122-.188c-.019-.391-.052-1.018-.052-1.159A3.509,3.509,0,0,0,11,8.526c.232-.11.524-.4.591-1.134a1.113,1.113,0,0,0-.207-.8,4.2,4.2,0,0,0-.02-3.138A1.813,1.813,0,0,0,10.1,2.609,2.082,2.082,0,0,0,8.42,2Zm.006.646c.611,0,1.052.154,1.207.422l.08.135.154.021a1.22,1.22,0,0,1,.944.561,3.761,3.761,0,0,1-.1,2.791l-.1.266.256.129a.435.435,0,0,1,.087.364c-.044.478-.2.606-.228.612h-.279l-.04.278a2.846,2.846,0,0,1-.583,1.348l-.163.092v.188c0,.335,0,.608.01.913l-1.238.688-1.257-.7c.006-.191,0-.371,0-.554,0-.111,0-.226,0-.35l-.02-.182-.138-.1a2.526,2.526,0,0,1-.586-1.336l-.005-.29H6.124c-.047-.018-.191-.17-.252-.611a.446.446,0,0,1,.116-.383l.192-.127-.057-.221C5.747,5.125,5.8,4.1,6.281,3.462A2.641,2.641,0,0,1,8.427,2.646ZM13.6,10.4a3.232,3.232,0,1,1-3.232,3.232A3.232,3.232,0,0,1,13.6,10.4Zm-1.939,2.909v.646h3.878v-.646Z" transform="translate(-1.945 -2)" fill="#71777a"/>
</svg>
