<svg xmlns="http://www.w3.org/2000/svg" width="18.421" height="18.337" viewBox="0 0 18.421 18.337">
  <g id="search" transform="translate(-1.427 -1.486)">
    <path id="Path_1" data-name="Path 1" d="M36.283,36.191a.4.4,0,0,1-.586,0L29.9,30.33a5.772,5.772,0,0,0,.586-.59l5.8,5.865a.4.4,0,0,1,0,.586Z" transform="translate(-16.563 -16.495)" fill="rgba(90,100,112,0.3)"/>
    <path id="Path_2" data-name="Path 2" d="M15.592,8.8a6.726,6.726,0,0,1-1.669,4.446,5.772,5.772,0,0,1-.586.586A6.747,6.747,0,1,1,15.592,8.8Z" transform="translate(0 0)" fill="none" stroke="rgba(113,119,122,0.3)" stroke-width="1"/>
    <path id="Path_3" data-name="Path 3" d="M22.923,11.486a.4.4,0,0,1-.4-.4,4.9,4.9,0,0,0-4.9-4.9.414.414,0,0,1,0-.829,5.728,5.728,0,0,1,5.72,5.72.4.4,0,0,1-.416.416Z" transform="translate(-9 -1.964)" fill="rgba(90,100,112,0.3)"/>
  </g>
</svg>
