<svg xmlns="http://www.w3.org/2000/svg" width="320.455" height="238" viewBox="0 0 320.455 238">
  <g id="Group_41" data-name="Group 41" transform="translate(0 -0.001)">
    <rect id="Rectangle_62" data-name="Rectangle 62" width="226.753" height="137.555" transform="translate(49.591 99.621)" fill="#e6e6e6"/>
    <rect id="Rectangle_75" data-name="Rectangle 75" width="273.305" height="114.766" transform="translate(0 111.417)" fill="#fff"/>
    <rect id="Rectangle_76" data-name="Rectangle 76" width="7.077" height="7.077" transform="translate(231.723 141.634)" fill="#e6e6e6"/>
    <rect id="Rectangle_77" data-name="Rectangle 77" width="7.077" height="7.077" transform="translate(74.602 141.634)" fill="#1797d1"/>
    <rect id="Rectangle_78" data-name="Rectangle 78" width="23.591" height="23.591" transform="translate(73.744 158.972)" fill="#e6e6e6"/>
    <rect id="Rectangle_80" data-name="Rectangle 80" width="226.753" height="12.315" transform="translate(49.468 104.02)" fill="#1797d1"/>
    <circle id="Ellipse_90" data-name="Ellipse 90" cx="2.283" cy="2.283" r="2.283" transform="translate(56.337 110.356)" fill="#fff"/>
    <circle id="Ellipse_91" data-name="Ellipse 91" cx="2.283" cy="2.283" r="2.283" transform="translate(65.001 110.356)" fill="#fff"/>
    <circle id="Ellipse_92" data-name="Ellipse 92" cx="2.283" cy="2.283" r="2.283" transform="translate(61.395 110.356)" fill="#fff"/>
    <rect id="Rectangle_60" data-name="Rectangle 60" width="320.455" height="0.824" transform="translate(0 237.176)" fill="#e6e6e6"/>
    <rect id="Rectangle_81" data-name="Rectangle 81" width="57.798" height="3.318" transform="translate(110.843 162.458)" fill="#e6e6e6"/>
    <rect id="Rectangle_82" data-name="Rectangle 82" width="89.253" height="3.318" transform="translate(107.996 173.485)" fill="#1797d1"/>
    <rect id="Rectangle_83" data-name="Rectangle 83" width="72.739" height="3.318" transform="translate(109.563 183.873)" fill="#e6e6e6"/>
    <rect id="Rectangle_84" data-name="Rectangle 84" width="42.464" height="3.318" transform="translate(112.041 190.274)" fill="#e6e6e6"/>
    <rect id="Rectangle_85" data-name="Rectangle 85" width="64.089" height="3.318" transform="translate(110.318 201.633)" fill="#e6e6e6"/>
    <rect id="Rectangle_88" data-name="Rectangle 88" width="7.077" height="7.077" transform="translate(241.868 141.634)" fill="#e6e6e6"/>
    <rect id="Rectangle_90" data-name="Rectangle 90" width="7.077" height="7.077" transform="translate(252.013 141.634)" fill="#e6e6e6"/>
    <circle id="Ellipse_88" data-name="Ellipse 88" cx="14.373" cy="14.373" r="14.373" transform="translate(231.099 169.227)" fill="#1797d1" opacity="0.997"/>
    <circle id="Ellipse_97" data-name="Ellipse 97" cx="16.181" cy="16.181" r="16.181" transform="translate(50.429 6.556)" fill="#2f2e41"/>
    <path id="Path_630" data-name="Path 630" d="M210.329,485.593h-7.087l-3.371-27.327h10.457Z" transform="translate(-172.938 -337.534)" fill="#feb8b8"/>
    <path id="Path_631" data-name="Path 631" d="M183.5,519.677h13.664v8.6H174.894A8.6,8.6,0,0,1,183.5,519.677Z" transform="translate(-158.251 -374.965)" fill="#2f2e41"/>
    <path id="Path_632" data-name="Path 632" d="M188.764,473.316,182,471.195l4.966-27.084,9.977,3.131Z" transform="translate(-162.432 -328.741)" fill="#feb8b8"/>
    <path id="Path_633" data-name="Path 633" d="M156.356,500.916l13.037,4.091-2.576,8.209-21.245-6.667a8.6,8.6,0,0,1,10.785-5.632h0Z" transform="translate(-141.01 -363.211)" fill="#2f2e41"/>
    <path id="Path_634" data-name="Path 634" d="M192.864,406.99a2.578,2.578,0,0,1-.906-.165l-5.215-1.954a2.61,2.61,0,0,1-1.626-3c1.312-5.9,5.785-25.989,8.234-36.763,2.9-12.78,45.274-15.155,47.076-15.25l.148-.008,4.766,5.987c1.722,5.536,1.176,9.854-1.623,12.834-8.167,8.7-32.552,3.3-35.459,2.617L195.3,405.315a2.608,2.608,0,0,1-2.435,1.674Z" transform="translate(-164.227 -270.689)" fill="#2f2e41"/>
    <path id="Path_635" data-name="Path 635" d="M211.1,416.807a2.577,2.577,0,0,1-.906-.165l-5.213-1.955a2.609,2.609,0,0,1-1.626-3c1.312-5.9,5.785-25.989,8.234-36.763,2.9-12.78,45.274-15.155,47.076-15.25l.148-.008,4.765,5.989c1.722,5.536,1.176,9.854-1.623,12.834-8.167,8.694-32.552,3.3-35.459,2.617l-12.962,34.022a2.608,2.608,0,0,1-2.435,1.674Z" transform="translate(-174.951 -276.915)" fill="#2f2e41"/>
    <path id="Path_636" data-name="Path 636" d="M170.085,292.911a6.09,6.09,0,0,1,.511.81l28.5,3,4.1-5.626,9.3,5.082-8.059,13.651-34.956-8.913a6.066,6.066,0,1,1,.6-8.008Z" transform="translate(-149.015 -231.907)" fill="#feb8b8"/>
    <path id="Path_637" data-name="Path 637" d="M302.749,299.282a2.6,2.6,0,0,1-1.185-.288c-5.7-2.9-16.8-7.917-27.089-8.967a2.539,2.539,0,0,1-1.789-1.011,2.611,2.611,0,0,1-.482-2.029c.929-5.141,3.059-18.231,2.784-28.722a14.215,14.215,0,0,1,10.738-14.14h0a46.152,46.152,0,0,1,5.727-1.129,14.329,14.329,0,0,1,15.926,16.622c-1.835,10.872-3.685,26.057-2.077,36.658a2.6,2.6,0,0,1-1.051,2.513A2.56,2.56,0,0,1,302.749,299.282Z" transform="translate(-215.445 -202.818)" fill="#ccc"/>
    <path id="Path_638" data-name="Path 638" d="M266,278.175a2.6,2.6,0,0,1-1.033-.215l-7.425-3.214a2.6,2.6,0,0,1-1.353-3.42l5.739-13.258a6.646,6.646,0,0,1,12.236,5.192l-.038.087-5.739,13.259A2.607,2.607,0,0,1,266,278.175Z" transform="translate(-205.924 -209.122)" fill="#ccc"/>
    <circle id="Ellipse_98" data-name="Ellipse 98" cx="14.194" cy="14.194" r="14.194" transform="translate(51.7 12.331)" fill="#feb8b8"/>
    <path id="Path_639" data-name="Path 639" d="M286.484,166.844a51.2,51.2,0,0,0,22.149,7.3l-2.335-2.8a17.156,17.156,0,0,0,5.3,1.052,5.8,5.8,0,0,0,4.731-2.215,5.4,5.4,0,0,0,.361-4.985,10.224,10.224,0,0,0-3.217-4.022,19.151,19.151,0,0,0-17.825-3.186,11.445,11.445,0,0,0-5.324,3.415c-1.346,1.66-3.936,3.139-3.247,5.162Z" transform="translate(-235.065 -147.294)" fill="#2f2e41"/>
    <path id="Path_640" data-name="Path 640" d="M324.634,140.975a27.571,27.571,0,0,1,10.031-6.488,14.113,14.113,0,0,1,7.6-.943,7.242,7.242,0,0,1,5.64,4.751,8.979,8.979,0,0,1-.916,6.139c-.9,1.915-2.1,3.69-2.822,5.676A12.954,12.954,0,0,0,357.2,167.482c-2.491.334-4.786,1.5-7.221,2.127s-5.308.581-7.117-1.164c-1.914-1.845-1.952-4.846-1.86-7.5l.412-11.85a15.055,15.055,0,0,0-.6-5.974c-.727-1.881-2.453-3.527-4.469-3.51a7.331,7.331,0,0,0-4.1,1.851,8.391,8.391,0,0,1-4.043,2.022c-1.522.136-3.259-.989-3.145-2.513" transform="translate(-260.385 -133.382)" fill="#2f2e41"/>
    <path id="Path_641" data-name="Path 641" d="M254.57,327.017a6.359,6.359,0,1,1,2.452-12.231h0a6.114,6.114,0,0,1,.758.384l25.856-11.607.726-7.012,11.145-.3-.074,11.674a6.287,6.287,0,0,1-4.543,5.978l-30.236,8.6a5.952,5.952,0,0,1-.206.589,6.383,6.383,0,0,1-5.875,3.918Z" transform="translate(-201.365 -235.826)" fill="#feb8b8"/>
    <path id="Path_642" data-name="Path 642" d="M342.51,277.114a2.6,2.6,0,0,1-1.018.275l-8.076.5a2.6,2.6,0,0,1-2.755-2.436l-.886-14.421a6.646,6.646,0,0,1,13.267-.816l.887,14.421a2.607,2.607,0,0,1-1.418,2.48Z" transform="translate(-263.06 -209.091)" fill="#ccc"/>
    <rect id="Rectangle_91" data-name="Rectangle 91" width="49.699" height="4.045" rx="1.778" transform="translate(27.971 86.786)" fill="#3f3d56"/>
    <path id="Path_643" data-name="Path 643" d="M157.405,319.571V291.253a3.761,3.761,0,0,1,3.756-3.756h51.433a3.76,3.76,0,0,1,3.756,3.756v28.317a3.76,3.76,0,0,1-3.756,3.756H161.161A3.761,3.761,0,0,1,157.405,319.571Z" transform="translate(-147.968 -230.46)" fill="#3f3d56"/>
    <circle id="Ellipse_99" data-name="Ellipse 99" cx="3.468" cy="3.468" r="3.468" transform="translate(36.061 70.918)" fill="#fff"/>
  </g>
</svg>
