<svg xmlns="http://www.w3.org/2000/svg" width="472.919" height="341.62" viewBox="0 0 472.919 341.62">
  <g id="undraw_Online_learning_re_qw08" transform="translate(0 0)">
    <path id="Path_403" data-name="Path 403" d="M726.236,695.472H254.683a.683.683,0,1,1,0-1.367H726.236a.683.683,0,0,1,0,1.367Z" transform="translate(-254 -356.471)" fill="#ccc"/>
    <path id="Path_404" data-name="Path 404" d="M746.11,521.7H468.646a4.442,4.442,0,0,0,0,8.884h7.859v106.27a4.442,4.442,0,0,0,8.884,0l.067-106.27H728.683v106.27a4.442,4.442,0,0,0,8.884,0V532.929l1.292-2.342h7.25a4.442,4.442,0,0,0,0-8.884Z" transform="translate(-320.549 -301.89)" fill="#ccc"/>
    <path id="Path_405" data-name="Path 405" d="M654.016,497.982H569.969a6.145,6.145,0,0,1-6.138-6.138V445.57a6.145,6.145,0,0,1,6.138-6.138h84.047a6.145,6.145,0,0,1,6.138,6.138v46.273A6.145,6.145,0,0,1,654.016,497.982Z" transform="translate(-352.09 -275.844)" fill="#3f3d56"/>
    <path id="Path_406" data-name="Path 406" d="M656.2,446.345H572.158a1.418,1.418,0,0,0-1.415,1.415v46.274a1.418,1.418,0,0,0,1.415,1.415H656.2a1.417,1.417,0,0,0,1.415-1.415V447.76a1.417,1.417,0,0,0-1.414-1.415Z" transform="translate(-354.278 -278.033)" fill="#fff"/>
    <path id="Path_407" data-name="Path 407" d="M636.916,493.991s-10.061-2.318-15.6,1.932,7.043,13.911,7.043,13.911Z" transform="translate(-369.845 -292.917)" fill="#2f2e41"/>
    <circle id="Ellipse_22" data-name="Ellipse 22" cx="9.491" cy="9.491" r="9.491" transform="translate(250.905 177.712)" fill="#a0616a"/>
    <path id="Path_408" data-name="Path 408" d="M621.826,452.949a6.764,6.764,0,0,1,6.237-3.318,13.255,13.255,0,0,1,3.769,1.055l6.2,2.42c1.605.626,3.364,1.393,4.06,2.969.647,1.463.164,3.152-.324,4.675l-2.321,7.24a22.042,22.042,0,0,0-1.315-4.782,7.4,7.4,0,0,0-3.215-3.666,10.483,10.483,0,0,0-5.32-.722c-2.562.123-5.348.449-7.169,2.256a7.447,7.447,0,0,0-1.889,3.69,22.213,22.213,0,0,0-.4,4.177,34.632,34.632,0,0,1-2.644-5.669,14.027,14.027,0,0,1-.982-4.589A6.454,6.454,0,0,1,618,454.32a4.234,4.234,0,0,1,4.258-1.34Z" transform="translate(-368.769 -279.069)" fill="#2f2e41"/>
    <path id="Path_409" data-name="Path 409" d="M647.684,501.955a1.689,1.689,0,0,0-1.414-1.223.582.582,0,0,0-.068-.041l-14.168-7.94a1.8,1.8,0,0,0-2.411.621l-3.875,6.274-5.836-5.836-.093-.093a1.8,1.8,0,0,0-2.308-.2l-11.644,8.154c-.02,0-.041.007-.061.007a2.483,2.483,0,0,0-2.071,2.317l-.3,6.076h46.5Z" transform="translate(-364.628 -292.651)" fill="#1797d1"/>
    <path id="Path_410" data-name="Path 410" d="M659.349,516.377h-8.972a.944.944,0,0,0-.944-.944H646.6a.945.945,0,0,0-.944.944h-2.833a.944.944,0,0,0-.944-.944h-2.833a.944.944,0,0,0-.944.944h-2.833a.944.944,0,0,0-.944-.944H631.49a.945.945,0,0,0-.944.944h-2.833a.944.944,0,0,0-.945-.944h-2.833a.944.944,0,0,0-.944.944h-2.833a.944.944,0,0,0-.944-.944h-2.833a.944.944,0,0,0-.944.944H612.6a.944.944,0,0,0-.944-.944h-2.833a.944.944,0,0,0-.944.944h-2.833a.944.944,0,0,0-.944-.944h-2.833a.944.944,0,0,0-.944.944h-2.833a.944.944,0,0,0-.944-.944h-2.833a.944.944,0,0,0-.944.944h-2.833a.944.944,0,0,0-.944-.944h-2.833a.944.944,0,0,0-.944.944h-2.833a.944.944,0,0,0-.944-.944h-2.833a.944.944,0,0,0-.944.944h-2.833a.944.944,0,0,0-.944-.944h-2.833a.944.944,0,0,0-.944.944h-8.971a2.833,2.833,0,0,0,0,5.666h98.212a2.833,2.833,0,0,0,0-5.666Z" transform="translate(-350.34 -299.905)" fill="#3f3d56"/>
    <path id="Path_411" data-name="Path 411" d="M514.735,492.737v18.811H467.605a9.411,9.411,0,1,1,0-18.811Z" transform="translate(-318.542 -292.718)" fill="#f2f2f2"/>
    <path id="Path_412" data-name="Path 412" d="M515.423,511.206a.724.724,0,0,1-.724.723H466.3a9.912,9.912,0,0,1,0-19.824h48.4a.724.724,0,0,1,0,1.447H466.3a8.465,8.465,0,1,0,0,16.93h48.4A.724.724,0,0,1,515.423,511.206Z" transform="translate(-318.073 -292.52)" fill="#1797d1"/>
    <path id="Path_413" data-name="Path 413" d="M517.55,498.958H466.9a.145.145,0,1,1,0-.289H517.55a.145.145,0,1,1,0,.289Z" transform="translate(-321.358 -294.598)" fill="#ccc"/>
    <path id="Path_414" data-name="Path 414" d="M517.55,504.04H466.9a.145.145,0,1,1,0-.289H517.55a.145.145,0,0,1,0,.289Z" transform="translate(-321.358 -296.207)" fill="#ccc"/>
    <path id="Path_415" data-name="Path 415" d="M517.55,509.121H466.9a.145.145,0,1,1,0-.289H517.55a.145.145,0,1,1,0,.289Z" transform="translate(-321.358 -297.816)" fill="#ccc"/>
    <path id="Path_416" data-name="Path 416" d="M517.55,514.2H466.9a.145.145,0,1,1,0-.289H517.55a.145.145,0,1,1,0,.289Z" transform="translate(-321.358 -299.424)" fill="#ccc"/>
    <path id="Path_417" data-name="Path 417" d="M501.735,463.737v18.811H454.605a9.411,9.411,0,1,1,0-18.811Z" transform="translate(-314.427 -283.537)" fill="#f2f2f2"/>
    <path id="Path_418" data-name="Path 418" d="M502.423,482.206a.724.724,0,0,1-.724.724H453.3a9.912,9.912,0,1,1,0-19.824h48.4a.724.724,0,0,1,0,1.447H453.3a8.465,8.465,0,1,0,0,16.93h48.4A.724.724,0,0,1,502.423,482.206Z" transform="translate(-313.957 -283.339)" fill="#3f3d56"/>
    <path id="Path_419" data-name="Path 419" d="M504.55,469.958H453.9a.145.145,0,0,1,0-.289H504.55a.145.145,0,1,1,0,.289Z" transform="translate(-317.242 -285.417)" fill="#ccc"/>
    <path id="Path_420" data-name="Path 420" d="M504.55,475.04H453.9a.145.145,0,0,1,0-.289H504.55a.145.145,0,1,1,0,.289Z" transform="translate(-317.242 -287.026)" fill="#ccc"/>
    <path id="Path_421" data-name="Path 421" d="M504.55,480.121H453.9a.145.145,0,0,1,0-.289H504.55a.145.145,0,1,1,0,.289Z" transform="translate(-317.242 -288.634)" fill="#ccc"/>
    <path id="Path_422" data-name="Path 422" d="M504.55,485.2H453.9a.145.145,0,0,1,0-.289H504.55a.145.145,0,0,1,0,.289Z" transform="translate(-317.242 -290.243)" fill="#ccc"/>
    <path id="Path_423" data-name="Path 423" d="M576.961,609.24v-16.4a2.734,2.734,0,0,0-2.734-2.734h-62.19a2.734,2.734,0,0,0-2.734,2.734v16.4Z" transform="translate(-334.827 -323.546)" fill="#ccc"/>
    <rect id="Rectangle_549" data-name="Rectangle 549" width="67.657" height="21.186" transform="translate(174.476 291.845)" fill="#ccc"/>
    <path id="Path_424" data-name="Path 424" d="M509.3,667.1v16.4a2.734,2.734,0,0,0,2.734,2.734h62.19a2.734,2.734,0,0,0,2.734-2.734V667.1Z" transform="translate(-334.827 -347.923)" fill="#ccc"/>
    <circle id="Ellipse_23" data-name="Ellipse 23" cx="2.05" cy="2.05" r="2.05" transform="translate(205.913 274.76)" fill="#fff"/>
    <circle id="Ellipse_24" data-name="Ellipse 24" cx="2.05" cy="2.05" r="2.05" transform="translate(205.913 302.096)" fill="#fff"/>
    <circle id="Ellipse_25" data-name="Ellipse 25" cx="2.05" cy="2.05" r="2.05" transform="translate(206.023 328.854)" fill="#fff"/>
    <path id="Path_425" data-name="Path 425" d="M570.735,562.737v18.811H523.605a9.411,9.411,0,1,1,0-18.811Z" transform="translate(-336.271 -314.88)" fill="#f2f2f2"/>
    <path id="Path_426" data-name="Path 426" d="M571.423,581.206a.724.724,0,0,1-.724.724H522.3a9.912,9.912,0,1,1,0-19.824h48.4a.724.724,0,1,1,0,1.447H522.3a8.465,8.465,0,1,0,0,16.93h48.4A.724.724,0,0,1,571.423,581.206Z" transform="translate(-335.802 -314.681)" fill="#3f3d56"/>
    <path id="Path_427" data-name="Path 427" d="M573.55,568.958H522.9a.145.145,0,0,1,0-.289H573.55a.145.145,0,0,1,0,.289Z" transform="translate(-339.087 -316.759)" fill="#ccc"/>
    <path id="Path_428" data-name="Path 428" d="M573.55,574.04H522.9a.145.145,0,0,1,0-.289H573.55a.145.145,0,0,1,0,.289Z" transform="translate(-339.087 -318.368)" fill="#ccc"/>
    <path id="Path_429" data-name="Path 429" d="M573.55,579.121H522.9a.145.145,0,0,1,0-.289H573.55a.145.145,0,0,1,0,.289Z" transform="translate(-339.087 -319.977)" fill="#ccc"/>
    <path id="Path_430" data-name="Path 430" d="M573.55,584.2H522.9a.145.145,0,0,1,0-.289H573.55a.145.145,0,0,1,0,.289Z" transform="translate(-339.087 -321.586)" fill="#ccc"/>
    <path id="Path_431" data-name="Path 431" d="M504.11,325.14V205.2a5.146,5.146,0,0,1,5.14-5.14h94.808a5.146,5.146,0,0,1,5.14,5.14V325.14a5.146,5.146,0,0,1-5.14,5.14H509.251a5.146,5.146,0,0,1-5.141-5.14ZM509.25,201.2a4,4,0,0,0-4,4V325.14a4,4,0,0,0,4,4h94.808a4,4,0,0,0,4-4V205.2a4,4,0,0,0-4-4Z" transform="translate(-333.183 -200.062)" fill="#e6e6e6"/>
    <path id="Path_432" data-name="Path 432" d="M588.776,268.06V243.433a2.573,2.573,0,0,1,2.57-2.57h20.869a2.573,2.573,0,0,1,2.57,2.57v24.627a2.573,2.573,0,0,1-2.57,2.57H591.346a2.573,2.573,0,0,1-2.57-2.571Z" transform="translate(-359.987 -212.979)" fill="#1797d1"/>
    <path id="Path_433" data-name="Path 433" d="M529.44,284.775V260.147a2.573,2.573,0,0,1,2.57-2.57h20.869a2.573,2.573,0,0,1,2.57,2.57v24.627a2.573,2.573,0,0,1-2.57,2.57H532.01a2.573,2.573,0,0,1-2.57-2.57Z" transform="translate(-341.202 -218.271)" fill="#ccc"/>
    <path id="Path_434" data-name="Path 434" d="M577.076,335.753V311.126a2.573,2.573,0,0,1,2.57-2.57h20.869a2.573,2.573,0,0,1,2.57,2.57v24.627a2.573,2.573,0,0,1-2.57,2.57H579.646A2.573,2.573,0,0,1,577.076,335.753Z" transform="translate(-356.283 -234.41)" fill="#ff6584"/>
    <path id="Path_435" data-name="Path 435" d="M746.554,513.1H725.082a1.327,1.327,0,0,0-.588.137l-5.42,2.713a.988.988,0,0,0,0,1.818l5.42,2.713a1.326,1.326,0,0,0,.588.137h21.473a1.127,1.127,0,0,0,1.189-1.046V514.15A1.127,1.127,0,0,0,746.554,513.1Z" transform="translate(-401.048 -299.168)" fill="#3f3d56"/>
    <path id="Path_436" data-name="Path 436" d="M758.77,514.15v5.426a1.127,1.127,0,0,1-1.189,1.046H753.3V513.1h4.278A1.127,1.127,0,0,1,758.77,514.15Z" transform="translate(-412.075 -299.168)" fill="#1797d1"/>
    <path id="Path_437" data-name="Path 437" d="M757.223,453.42a7.519,7.519,0,0,1,10.176,4.726,7.221,7.221,0,0,1,.219.981l30.027,14.89,6.949-4.605,8.646,9.954-10.61,8.617a7.619,7.619,0,0,1-9.09.351l-30.466-21.068a7.182,7.182,0,0,1-.694.253,7.519,7.519,0,0,1-9.575-5.851,7.325,7.325,0,0,1-.111-.915A7.542,7.542,0,0,1,757.223,453.42Z" transform="translate(-411.879 -280.078)" fill="#ffb8b8"/>
    <path id="Path_438" data-name="Path 438" d="M818.39,587.853H785.58c0,.943-33.815,1.708-33.815,1.708a8.791,8.791,0,0,0-1.442,1.367,8.482,8.482,0,0,0-1.982,5.467v1.367a8.546,8.546,0,0,0,8.543,8.543H818.39a8.55,8.55,0,0,0,8.543-8.543V596.4A8.555,8.555,0,0,0,818.39,587.853Z" transform="translate(-410.504 -322.833)" fill="#3f3d56"/>
    <rect id="Rectangle_550" data-name="Rectangle 550" width="8.884" height="57.406" transform="translate(381.081 340.539) rotate(180)" fill="#3f3d56"/>
    <path id="Path_439" data-name="Path 439" d="M761.617,693.929c0,.96,13.463.371,30.07.371s30.07.589,30.07-.371-13.463-8.572-30.07-8.572S761.617,692.969,761.617,693.929Z" transform="translate(-414.707 -353.702)" fill="#3f3d56"/>
    <path id="Path_440" data-name="Path 440" d="M513.625,477.926h-8.378l-3.986-21.73h12.366Z" transform="translate(-158.695 -144.427)" fill="#ffb8b8"/>
    <path id="Path_441" data-name="Path 441" d="M763.965,694.908H736.95v-.342a10.515,10.515,0,0,1,10.515-10.515h16.5Z" transform="translate(-406.898 -353.288)" fill="#2f2e41"/>
    <path id="Path_442" data-name="Path 442" d="M746.736,632.529l-16.7-37.456a13.727,13.727,0,0,1,6.027-17.621l36.23-19.428,16.532-1.406,15.25-1.386.11.186c.141.238,3.419,5.9,1.2,12.111-1.681,4.71-6.054,8.39-13,10.936-16.207,5.942-34.928,11.021-42.225,12.929a2.358,2.358,0,0,0-1.511,1.2,2.391,2.391,0,0,0-.134,1.913l15.518,34.864a3.075,3.075,0,0,1-2.6,4.12l-11.6.844q-.148.014-.294.014A3.073,3.073,0,0,1,746.736,632.529Z" transform="translate(-404.336 -312.505)" fill="#2f2e41"/>
    <path id="Path_443" data-name="Path 443" d="M519.625,477.926h-8.378l-3.986-21.73h12.366Z" transform="translate(-160.594 -144.427)" fill="#ffb8b8"/>
    <path id="Path_444" data-name="Path 444" d="M769.965,694.908H742.949v-.342a10.515,10.515,0,0,1,10.515-10.515h16.5Z" transform="translate(-408.797 -353.288)" fill="#2f2e41"/>
    <path id="Path_445" data-name="Path 445" d="M753.736,635.529l-16.7-37.456a13.727,13.727,0,0,1,6.027-17.621l36.23-19.428,16.532-1.406,15.25-1.386.11.186c.141.238,3.419,5.9,1.2,12.111-1.681,4.71-6.054,8.39-13,10.936-16.207,5.942-34.928,11.021-42.225,12.929a2.359,2.359,0,0,0-1.511,1.2,2.392,2.392,0,0,0-.134,1.913l15.518,34.864a3.075,3.075,0,0,1-2.6,4.12l-11.6.844q-.148.014-.294.014A3.073,3.073,0,0,1,753.736,635.529Z" transform="translate(-406.553 -313.455)" fill="#2f2e41"/>
    <path id="Path_446" data-name="Path 446" d="M742.14,481.918a114.473,114.473,0,0,1-16.453-30.707,2.94,2.94,0,0,1,1.389-3.54l24.019-12.87a2.9,2.9,0,0,1,2.546-.1,2.952,2.952,0,0,1,1.682,1.971,69.932,69.932,0,0,0,15.34,28.628,2.951,2.951,0,0,1,.71,2.492,2.9,2.9,0,0,1-1.5,2.063l-24.019,12.87a2.941,2.941,0,0,1-3.716-.8Z" transform="translate(-403.282 -274.268)" fill="#ccc"/>
    <path id="Path_447" data-name="Path 447" d="M744.728,481.636a.887.887,0,0,0,1.109.229L769.855,469a.852.852,0,0,0,.446-.613.9.9,0,0,0-.222-.771,71.99,71.99,0,0,1-15.791-29.472.9.9,0,0,0-.518-.612.852.852,0,0,0-.759.031l-24.018,12.869a.887.887,0,0,0-.423,1.05,112.426,112.426,0,0,0,16.159,30.157Z" transform="translate(-404.231 -275.218)" fill="#fff"/>
    <path id="Path_448" data-name="Path 448" d="M855.542,491.551,836.731,498.7l-4.592-12.757a7.632,7.632,0,0,1,3.418-9.226h0a7.632,7.632,0,0,1,9.747,1.9Z" transform="translate(-436.89 -287.334)" fill="#1797d1"/>
    <path id="Path_449" data-name="Path 449" d="M795.431,541.948a3.416,3.416,0,0,1-1.424-2.425c-2.409-22.491-.731-40.092,5.13-53.808a17.079,17.079,0,0,1,11.322-9.69l15.206-.768.079.038a17.772,17.772,0,0,1,9.717,18.854c-4.891,12.891-8.986,26.313-5.863,37.141a3.5,3.5,0,0,1-.331,2.722,3.338,3.338,0,0,1-2.129,1.578l-28.962,6.89a3.392,3.392,0,0,1-2.745-.531Z" transform="translate(-424.625 -287.186)" fill="#1797d1"/>
    <circle id="Ellipse_26" data-name="Ellipse 26" cx="16.785" cy="16.785" r="16.785" transform="translate(379.179 148.82)" fill="#ffb8b8"/>
    <path id="Path_450" data-name="Path 450" d="M757.7,459.68l-13.082,5.775a2.052,2.052,0,0,1-2.7-1.048l-.324-.733a2.053,2.053,0,0,1,1.048-2.7L755.72,455.2a2.052,2.052,0,0,1,2.7,1.048l.324.733A2.052,2.052,0,0,1,757.7,459.68Z" transform="translate(-408.312 -280.78)" fill="#ccc"/>
    <path id="Path_451" data-name="Path 451" d="M764.7,472.68l-13.082,5.774a2.052,2.052,0,0,1-2.7-1.048l-.324-.733a2.053,2.053,0,0,1,1.048-2.7L762.72,468.2a2.053,2.053,0,0,1,2.7,1.048l.323.733A2.052,2.052,0,0,1,764.7,472.68Z" transform="translate(-410.528 -284.895)" fill="#ccc"/>
    <path id="Path_452" data-name="Path 452" d="M768.887,508.181l-29.164-23.008a7.171,7.171,0,0,1-.708.209,7.536,7.536,0,0,1-6.026-1.156,7.457,7.457,0,0,1-3.162-5.285,7.518,7.518,0,0,1,14.786-2.6,7.231,7.231,0,0,1,.157.992L773.8,494.085l7.225-4.159,8,10.478-11.217,8a7.477,7.477,0,0,1-8.925-.218Z" transform="translate(-404.627 -285.694)" fill="#ffb8b8"/>
    <path id="Path_453" data-name="Path 453" d="M813.977,507.139l-16.64-11.315,7.82-11.076a7.632,7.632,0,0,1,9.519-2.488h0a7.633,7.633,0,0,1,4.028,9.077Z" transform="translate(-426.016 -289.168)" fill="#1797d1"/>
    <path id="Path_454" data-name="Path 454" d="M816.278,429.133c-4.314,2.953-9.979,5.988-14.385,2.844a8.018,8.018,0,0,1-2.631-9.243c2.11-6.034,7.907-8.69,13.45-10.726,7.206-2.647,15.053-4.753,22.492-2.857s14.014,9.1,12.671,16.657c-1.08,6.078-6.814,11.136-6,17.256.819,6.159,7.746,9.4,13.861,10.5s12.958,1.454,17.352,5.847c5.606,5.6,4.206,15.618-1.069,21.534s-13.236,8.6-20.949,10.42c-10.22,2.415-21.274,3.685-30.98-.324s-17.26-14.8-14.448-24.917c1.188-4.274,3.985-7.886,6.69-11.4s5.442-7.194,6.473-11.508c.86-3.6.223-7.77-2.161-10.466a3.032,3.032,0,0,1-.406-3.544Z" transform="translate(-426.467 -266.027)" fill="#2f2e41"/>
    <path id="Path_455" data-name="Path 455" d="M341.412,525.465a26.7,26.7,0,0,1-25.779-4.541c-9.029-7.578-11.86-20.064-14.163-31.625L294.657,455.1l14.264,9.822c10.258,7.063,20.746,14.352,27.849,24.583s10.2,24.2,4.5,35.266" transform="translate(-266.872 -280.806)" fill="#e6e6e6"/>
    <path id="Path_456" data-name="Path 456" d="M351.823,586.991c1.444-10.516,2.928-21.167,1.916-31.8-.9-9.439-3.779-18.659-9.642-26.218a43.615,43.615,0,0,0-11.19-10.14c-1.119-.706-2.149,1.067-1.035,1.77a41.463,41.463,0,0,1,16.4,19.789c3.571,9.082,4.144,18.982,3.529,28.63-.372,5.834-1.161,11.631-1.955,17.419a1.062,1.062,0,0,0,.716,1.261,1.031,1.031,0,0,0,1.261-.716Z" transform="translate(-278.502 -300.931)" fill="#f2f2f2"/>
    <path id="Path_457" data-name="Path 457" d="M313.72,581.554a19.652,19.652,0,0,1-17.123,8.837c-8.668-.411-15.894-6.461-22.4-12.2L254.958,561.2l12.734-.609c9.157-.438,18.551-.847,27.273,1.977s16.766,9.62,18.361,18.648" transform="translate(-254.303 -314.103)" fill="#e6e6e6"/>
    <path id="Path_458" data-name="Path 458" d="M347.516,612.784c-6.949-12.3-15.009-25.96-29.41-30.328a32.818,32.818,0,0,0-12.37-1.277c-1.313.113-.985,2.138.326,2.025a30.489,30.489,0,0,1,19.741,5.223c5.566,3.789,9.9,9.056,13.568,14.642,2.247,3.422,4.26,6.988,6.273,10.55C346.286,614.758,348.166,613.936,347.516,612.784Z" transform="translate(-270.114 -320.68)" fill="#f2f2f2"/>
    <path id="Path_459" data-name="Path 459" d="M368.51,637.355a14.88,14.88,0,0,0-9.119-12.463v-7.108H347.469v7.332a14.873,14.873,0,0,0-8.622,12.239l-2.8,32.587h35.269Z" transform="translate(-279.974 -332.309)" fill="#f2f2f2"/>
  </g>
</svg>
