<svg xmlns="http://www.w3.org/2000/svg" width="53" height="52.911" viewBox="0 0 53 52.911">
  <g id="Study" transform="translate(0 0.001)">
    <path id="Path_103" data-name="Path 103" d="M14.589,23.727a.821.821,0,0,0-.78-.071,3.4,3.4,0,0,1-2.659,0A.827.827,0,0,0,10,24.417v8.846a.827.827,0,0,0,1.066.791,5.015,5.015,0,0,1,2.827,0,.827.827,0,0,0,1.066-.791V24.417A.827.827,0,0,0,14.589,23.727Z" transform="translate(-1.733 -4.088)" fill="#376cfb"/>
    <path id="Path_104" data-name="Path 104" d="M11.614,34A6.621,6.621,0,0,0,5,40.614v.827a.827.827,0,0,0,.827.827H17.4a.827.827,0,0,0,.827-.827v-.827A6.621,6.621,0,0,0,11.614,34Z" transform="translate(-0.866 -5.892)" fill="#2946ed"/>
    <path id="Path_105" data-name="Path 105" d="M25.593,11.614,24.549,9.6a4.112,4.112,0,0,1-.331-.84.827.827,0,0,0-1.267-.467L15,13.762a.827.827,0,0,0,.032,1.383,3.316,3.316,0,0,1,1.5,2.175.827.827,0,0,0,1.28.524l7.514-5.167a.827.827,0,0,0,.267-1.064Z" transform="translate(-2.537 -1.411)" fill="#376cfb"/>
    <path id="Path_106" data-name="Path 106" d="M39.721,15.039a.827.827,0,0,0-1.114-.355l-6.283,3.246a.827.827,0,0,0-.355,1.114,4.364,4.364,0,1,0,7.755-4Z" transform="translate(-5.523 -2.528)" fill="#4294ff"/>
    <rect id="Rectangle_466" data-name="Rectangle 466" width="35" height="8" rx="1" transform="translate(9 39.999)" fill="#2946ed"/>
    <path id="Path_107" data-name="Path 107" d="M35.094,54.653H26.827a.827.827,0,1,1,0-1.653h8.267a.827.827,0,1,1,0,1.653Z" transform="translate(-4.505 -9.184)" fill="#1d37ce"/>
    <path id="Path_108" data-name="Path 108" d="M51,48h6.614V61.228H51Z" transform="translate(-8.837 -8.317)" fill="#376cfb"/>
    <path id="Path_109" data-name="Path 109" d="M5,48h6.614V61.228H5Z" transform="translate(-0.866 -8.317)" fill="#376cfb"/>
    <path id="Path_110" data-name="Path 110" d="M50.975,33H43.534A4.96,4.96,0,0,0,39.4,35.224,4.96,4.96,0,0,0,35.267,33H27.827a.827.827,0,0,0-.827.827V37.96a.827.827,0,0,0,.827.827H50.975a.827.827,0,0,0,.827-.827V33.827A.827.827,0,0,0,50.975,33Z" transform="translate(-4.678 -5.718)" fill="#e6ecff"/>
    <rect id="Rectangle_467" data-name="Rectangle 467" width="28" height="5" rx="1" transform="translate(21 30.999)" fill="#d0dbf7"/>
    <ellipse id="Ellipse_3" data-name="Ellipse 3" cx="5" cy="4.5" rx="5" ry="4.5" transform="translate(6 11.999)" fill="#4294ff"/>
    <g id="Group_2" data-name="Group 2" transform="translate(8.267 14.054)">
      <circle id="Ellipse_4" data-name="Ellipse 4" cx="2.5" cy="2.5" r="2.5" transform="translate(-0.267 -0.055)" fill="#376cfb"/>
      <path id="Path_111" data-name="Path 111" d="M41.667,28.209a.827.827,0,0,1-.735-.447L39.039,24.1a.827.827,0,1,1,1.469-.759L42.4,27a.827.827,0,0,1-.734,1.206Z" transform="translate(-15.016 -18.021)" fill="#376cfb"/>
      <path id="Path_112" data-name="Path 112" d="M44.8,23.937a.827.827,0,0,1-.4-.1L42.54,22.8a.827.827,0,1,1,.8-1.447l1.858,1.03a.827.827,0,0,1-.4,1.55Z" transform="translate(-15.564 -17.737)" fill="#376cfb"/>
      <path id="Path_113" data-name="Path 113" d="M36.321,28.287a.9.9,0,0,1-.093,0,.827.827,0,0,1-.729-.914l.236-2.112a.827.827,0,1,1,1.643.184l-.236,2.111a.827.827,0,0,1-.82.735Z" transform="translate(-14.417 -18.3)" fill="#376cfb"/>
    </g>
    <path id="Path_114" data-name="Path 114" d="M41.7,10.274,38.2,8.334,35.6,3.319a6.132,6.132,0,1,0-10.9,5.627l2.59,5.017-.445,3.977a.827.827,0,0,0,1.2.827l13.618-7.035a.827.827,0,0,0,.021-1.458Z" transform="translate(-4.162 0)" fill="#4294ff"/>
    <path id="Path_115" data-name="Path 115" d="M27.444,19.687a.827.827,0,0,0,1.2.827l13.618-7.035a.827.827,0,0,0,.021-1.458l-3.5-1.939-10.9,5.628Z" transform="translate(-4.754 -1.747)" fill="#376cfb"/>
    <rect id="Rectangle_468" data-name="Rectangle 468" width="53" height="6" rx="1" transform="translate(0 34.999)" fill="#4294ff"/>
  </g>
</svg>
