<svg xmlns="http://www.w3.org/2000/svg" width="163.5" height="111.858" viewBox="0 0 163.5 111.858">
  <path id="Subtraction_1" data-name="Subtraction 1" d="M373.507,111.858a3.987,3.987,0,0,1-2.293-.757,4.264,4.264,0,0,1-1.91-4.291,4.816,4.816,0,0,1,2.986-3.336,3.575,3.575,0,0,1,1.123-.177,4.338,4.338,0,0,1,3.047,1.321,4.136,4.136,0,0,1,1.288,3.362,4.3,4.3,0,0,1-2,3.161A4,4,0,0,1,373.507,111.858Zm-17.216,0A3.987,3.987,0,0,1,354,111.1a4.263,4.263,0,0,1-1.91-4.291,4.816,4.816,0,0,1,2.986-3.336,3.575,3.575,0,0,1,1.122-.177,4.338,4.338,0,0,1,3.047,1.321,4.137,4.137,0,0,1,1.288,3.363,4.3,4.3,0,0,1-2,3.16A4,4,0,0,1,356.291,111.858Zm86.055-.006a3.558,3.558,0,0,1-.746-.078,4.273,4.273,0,0,1-.444-8.3,3.659,3.659,0,0,1,1.1-.153,4.4,4.4,0,0,1,1.818.368,4.722,4.722,0,0,1,2.555,3.524,4.126,4.126,0,0,1-1.109,3.148A4.394,4.394,0,0,1,442.346,111.851Zm-17.216,0a3.558,3.558,0,0,1-.746-.078,4.273,4.273,0,0,1-.444-8.3,3.659,3.659,0,0,1,1.1-.153,4.4,4.4,0,0,1,1.818.368,4.725,4.725,0,0,1,2.555,3.524,4.126,4.126,0,0,1-1.109,3.148A4.394,4.394,0,0,1,425.13,111.851Zm-17.216,0a3.562,3.562,0,0,1-.747-.078,4.273,4.273,0,0,1-.443-8.3,3.659,3.659,0,0,1,1.1-.153,4.4,4.4,0,0,1,1.818.368,4.725,4.725,0,0,1,2.555,3.524,4.128,4.128,0,0,1-1.11,3.149A4.394,4.394,0,0,1,407.914,111.851Zm-17.216,0a3.561,3.561,0,0,1-.747-.078,4.273,4.273,0,0,1-.444-8.3,3.663,3.663,0,0,1,1.1-.153,4.4,4.4,0,0,1,1.818.368,4.725,4.725,0,0,1,2.556,3.524,4.128,4.128,0,0,1-1.11,3.149A4.394,4.394,0,0,1,390.7,111.851Zm86.118,0a4.361,4.361,0,0,1-3.313-1.663,4.057,4.057,0,0,1-.9-3.377,4.817,4.817,0,0,1,2.986-3.336,3.659,3.659,0,0,1,1.1-.153,4.4,4.4,0,0,1,1.818.368,4.725,4.725,0,0,1,2.555,3.524,4.14,4.14,0,0,1-.891,2.87,4.506,4.506,0,0,1-2.606,1.689A3.659,3.659,0,0,1,476.816,111.851Zm-17.216,0a4.362,4.362,0,0,1-3.314-1.664,4.056,4.056,0,0,1-.9-3.376,4.816,4.816,0,0,1,2.986-3.336,3.659,3.659,0,0,1,1.1-.153,4.4,4.4,0,0,1,1.818.368,4.725,4.725,0,0,1,2.555,3.524,4.143,4.143,0,0,1-.891,2.87,4.506,4.506,0,0,1-2.605,1.689A3.659,3.659,0,0,1,459.6,111.851Zm-120.515,0a4.361,4.361,0,0,1-3.313-1.664,4.056,4.056,0,0,1-.9-3.377,4.814,4.814,0,0,1,2.985-3.336,3.663,3.663,0,0,1,1.1-.153,4.4,4.4,0,0,1,1.818.368,4.725,4.725,0,0,1,2.556,3.524,4.143,4.143,0,0,1-.891,2.87,4.507,4.507,0,0,1-2.606,1.689A3.659,3.659,0,0,1,339.085,111.851Zm-17.216,0a4.361,4.361,0,0,1-3.313-1.663,4.057,4.057,0,0,1-.9-3.377,4.816,4.816,0,0,1,2.986-3.336,3.659,3.659,0,0,1,1.1-.153,4.4,4.4,0,0,1,1.818.368,4.725,4.725,0,0,1,2.555,3.524,4.14,4.14,0,0,1-.891,2.87,4.507,4.507,0,0,1-2.606,1.689A3.659,3.659,0,0,1,321.869,111.851ZM476.817,94.635a4.362,4.362,0,0,1-3.314-1.664,4.058,4.058,0,0,1-.9-3.377,4.816,4.816,0,0,1,2.986-3.336,3.663,3.663,0,0,1,1.1-.153,4.388,4.388,0,0,1,1.817.368A4.722,4.722,0,0,1,481.063,90a4.14,4.14,0,0,1-.891,2.87,4.509,4.509,0,0,1-2.606,1.69A3.655,3.655,0,0,1,476.817,94.635Zm-17.216,0a4.363,4.363,0,0,1-3.315-1.664,4.056,4.056,0,0,1-.9-3.377,4.816,4.816,0,0,1,2.986-3.336,3.663,3.663,0,0,1,1.1-.153,4.388,4.388,0,0,1,1.817.368A4.722,4.722,0,0,1,463.847,90a4.142,4.142,0,0,1-.891,2.87,4.509,4.509,0,0,1-2.605,1.69A3.655,3.655,0,0,1,459.6,94.635Zm-17.217,0a4.362,4.362,0,0,1-3.314-1.664,4.058,4.058,0,0,1-.9-3.377,4.816,4.816,0,0,1,2.986-3.336,3.663,3.663,0,0,1,1.1-.153,4.388,4.388,0,0,1,1.817.368A4.723,4.723,0,0,1,446.631,90a4.141,4.141,0,0,1-.891,2.87,4.51,4.51,0,0,1-2.606,1.69A3.655,3.655,0,0,1,442.384,94.635Zm-17.216,0a4.362,4.362,0,0,1-3.314-1.664,4.058,4.058,0,0,1-.9-3.377,4.816,4.816,0,0,1,2.986-3.336,3.663,3.663,0,0,1,1.1-.153,4.388,4.388,0,0,1,1.817.368A4.722,4.722,0,0,1,429.414,90a4.14,4.14,0,0,1-.891,2.87,4.51,4.51,0,0,1-2.606,1.69A3.654,3.654,0,0,1,425.168,94.635Zm-17.217,0a4.362,4.362,0,0,1-3.314-1.664,4.056,4.056,0,0,1-.9-3.377,4.816,4.816,0,0,1,2.986-3.336,3.663,3.663,0,0,1,1.1-.153,4.388,4.388,0,0,1,1.817.368A4.722,4.722,0,0,1,412.2,90a4.142,4.142,0,0,1-.891,2.87,4.51,4.51,0,0,1-2.606,1.69A3.655,3.655,0,0,1,407.951,94.635Zm-17.216,0a4.362,4.362,0,0,1-3.314-1.664,4.058,4.058,0,0,1-.9-3.377,4.817,4.817,0,0,1,2.986-3.336,3.667,3.667,0,0,1,1.1-.153,4.388,4.388,0,0,1,1.816.368A4.723,4.723,0,0,1,394.982,90a4.142,4.142,0,0,1-.891,2.87,4.51,4.51,0,0,1-2.606,1.69A3.655,3.655,0,0,1,390.735,94.635Zm-17.216,0a4.362,4.362,0,0,1-3.314-1.664,4.058,4.058,0,0,1-.9-3.377,4.816,4.816,0,0,1,2.986-3.336,3.663,3.663,0,0,1,1.1-.153,4.388,4.388,0,0,1,1.817.368A4.722,4.722,0,0,1,377.765,90a4.139,4.139,0,0,1-.891,2.87,4.509,4.509,0,0,1-2.606,1.69A3.655,3.655,0,0,1,373.519,94.635Zm-17.217,0a4.362,4.362,0,0,1-3.314-1.664,4.056,4.056,0,0,1-.9-3.377,4.816,4.816,0,0,1,2.986-3.336,3.663,3.663,0,0,1,1.1-.153,4.388,4.388,0,0,1,1.817.368A4.722,4.722,0,0,1,360.549,90a4.142,4.142,0,0,1-.891,2.87,4.51,4.51,0,0,1-2.606,1.69A3.655,3.655,0,0,1,356.3,94.635Zm-17.216,0a4.362,4.362,0,0,1-3.314-1.664,4.057,4.057,0,0,1-.9-3.377,4.814,4.814,0,0,1,2.985-3.336,3.667,3.667,0,0,1,1.1-.153,4.388,4.388,0,0,1,1.816.368A4.723,4.723,0,0,1,343.333,90a4.142,4.142,0,0,1-.891,2.87,4.51,4.51,0,0,1-2.606,1.69A3.655,3.655,0,0,1,339.086,94.635Zm-17.216,0a4.362,4.362,0,0,1-3.314-1.664,4.058,4.058,0,0,1-.9-3.377,4.816,4.816,0,0,1,2.986-3.336,3.663,3.663,0,0,1,1.1-.153,4.388,4.388,0,0,1,1.817.368A4.722,4.722,0,0,1,326.116,90a4.14,4.14,0,0,1-.891,2.87,4.509,4.509,0,0,1-2.606,1.69A3.655,3.655,0,0,1,321.87,94.635ZM476.817,77.419a4.362,4.362,0,0,1-3.314-1.664,4.058,4.058,0,0,1-.9-3.377,4.813,4.813,0,0,1,2.986-3.336,3.653,3.653,0,0,1,1.1-.153,4.4,4.4,0,0,1,1.817.368,4.725,4.725,0,0,1,2.555,3.525,4.139,4.139,0,0,1-.891,2.87,4.509,4.509,0,0,1-2.606,1.69A3.655,3.655,0,0,1,476.817,77.419Zm-17.216,0a4.363,4.363,0,0,1-3.315-1.664,4.056,4.056,0,0,1-.9-3.377,4.813,4.813,0,0,1,2.986-3.336,3.653,3.653,0,0,1,1.1-.153,4.395,4.395,0,0,1,1.817.368,4.725,4.725,0,0,1,2.555,3.525,4.142,4.142,0,0,1-.891,2.87,4.509,4.509,0,0,1-2.605,1.69A3.655,3.655,0,0,1,459.6,77.419Zm-17.217,0a4.362,4.362,0,0,1-3.314-1.664,4.058,4.058,0,0,1-.9-3.377,4.813,4.813,0,0,1,2.986-3.336,3.653,3.653,0,0,1,1.1-.153,4.395,4.395,0,0,1,1.817.368,4.726,4.726,0,0,1,2.556,3.525,4.141,4.141,0,0,1-.891,2.87,4.51,4.51,0,0,1-2.606,1.69A3.655,3.655,0,0,1,442.384,77.419Zm-17.216,0a4.362,4.362,0,0,1-3.314-1.664,4.058,4.058,0,0,1-.9-3.377,4.813,4.813,0,0,1,2.986-3.336,3.653,3.653,0,0,1,1.1-.153,4.395,4.395,0,0,1,1.817.368,4.725,4.725,0,0,1,2.555,3.525,4.139,4.139,0,0,1-.891,2.87,4.51,4.51,0,0,1-2.606,1.69A3.654,3.654,0,0,1,425.168,77.419Zm-17.217,0a4.362,4.362,0,0,1-3.314-1.664,4.057,4.057,0,0,1-.9-3.377,4.813,4.813,0,0,1,2.986-3.336,3.653,3.653,0,0,1,1.1-.153,4.395,4.395,0,0,1,1.817.368,4.725,4.725,0,0,1,2.555,3.525,4.141,4.141,0,0,1-.891,2.87,4.51,4.51,0,0,1-2.606,1.69A3.655,3.655,0,0,1,407.951,77.419Zm-17.216,0a4.362,4.362,0,0,1-3.314-1.664,4.058,4.058,0,0,1-.9-3.377,4.814,4.814,0,0,1,2.986-3.336,3.657,3.657,0,0,1,1.1-.153,4.394,4.394,0,0,1,1.816.368,4.726,4.726,0,0,1,2.556,3.525,4.142,4.142,0,0,1-.891,2.87,4.51,4.51,0,0,1-2.606,1.69A3.655,3.655,0,0,1,390.735,77.419Zm-17.216,0a4.362,4.362,0,0,1-3.314-1.664,4.058,4.058,0,0,1-.9-3.377,4.813,4.813,0,0,1,2.986-3.336,3.653,3.653,0,0,1,1.1-.153,4.4,4.4,0,0,1,1.817.368,4.725,4.725,0,0,1,2.555,3.525,4.139,4.139,0,0,1-.891,2.87,4.509,4.509,0,0,1-2.606,1.69A3.655,3.655,0,0,1,373.519,77.419Zm-17.217,0a4.362,4.362,0,0,1-3.314-1.664,4.056,4.056,0,0,1-.9-3.377,4.813,4.813,0,0,1,2.986-3.336,3.653,3.653,0,0,1,1.1-.153,4.4,4.4,0,0,1,1.817.368,4.725,4.725,0,0,1,2.555,3.525,4.141,4.141,0,0,1-.891,2.87,4.509,4.509,0,0,1-2.606,1.69A3.655,3.655,0,0,1,356.3,77.419Zm-17.216,0a4.362,4.362,0,0,1-3.314-1.664,4.057,4.057,0,0,1-.9-3.377,4.811,4.811,0,0,1,2.985-3.336,3.657,3.657,0,0,1,1.1-.153,4.394,4.394,0,0,1,1.816.368,4.726,4.726,0,0,1,2.556,3.525,4.142,4.142,0,0,1-.891,2.87,4.51,4.51,0,0,1-2.606,1.69A3.655,3.655,0,0,1,339.086,77.419Zm-17.216,0a4.362,4.362,0,0,1-3.314-1.664,4.058,4.058,0,0,1-.9-3.377,4.813,4.813,0,0,1,2.986-3.336,3.653,3.653,0,0,1,1.1-.153,4.4,4.4,0,0,1,1.817.368,4.725,4.725,0,0,1,2.555,3.525,4.139,4.139,0,0,1-.891,2.87,4.509,4.509,0,0,1-2.606,1.69A3.655,3.655,0,0,1,321.87,77.419ZM476.816,60.2a4.361,4.361,0,0,1-3.313-1.663,4.057,4.057,0,0,1-.9-3.377,4.816,4.816,0,0,1,2.986-3.336,3.659,3.659,0,0,1,1.1-.153,4.4,4.4,0,0,1,1.818.368,4.725,4.725,0,0,1,2.555,3.524,4.14,4.14,0,0,1-.891,2.87,4.506,4.506,0,0,1-2.606,1.689A3.658,3.658,0,0,1,476.816,60.2Zm-17.216,0a4.362,4.362,0,0,1-3.314-1.664,4.056,4.056,0,0,1-.9-3.376,4.816,4.816,0,0,1,2.986-3.336,3.659,3.659,0,0,1,1.1-.153,4.4,4.4,0,0,1,1.818.368,4.725,4.725,0,0,1,2.555,3.524,4.143,4.143,0,0,1-.891,2.87,4.506,4.506,0,0,1-2.605,1.689A3.658,3.658,0,0,1,459.6,60.2Zm-17.217,0a4.361,4.361,0,0,1-3.313-1.663,4.057,4.057,0,0,1-.9-3.377,4.816,4.816,0,0,1,2.986-3.336,3.659,3.659,0,0,1,1.1-.153,4.4,4.4,0,0,1,1.818.368,4.725,4.725,0,0,1,2.556,3.524,4.142,4.142,0,0,1-.891,2.87,4.507,4.507,0,0,1-2.606,1.689A3.659,3.659,0,0,1,442.383,60.2Zm-17.216,0a4.361,4.361,0,0,1-3.313-1.663,4.057,4.057,0,0,1-.9-3.377,4.816,4.816,0,0,1,2.986-3.336,3.659,3.659,0,0,1,1.1-.153,4.4,4.4,0,0,1,1.818.368,4.725,4.725,0,0,1,2.555,3.524,4.14,4.14,0,0,1-.891,2.87,4.507,4.507,0,0,1-2.606,1.689A3.658,3.658,0,0,1,425.167,60.2Zm-17.217,0a4.361,4.361,0,0,1-3.313-1.664,4.056,4.056,0,0,1-.9-3.377,4.816,4.816,0,0,1,2.986-3.336,3.659,3.659,0,0,1,1.1-.153,4.4,4.4,0,0,1,1.818.368,4.725,4.725,0,0,1,2.555,3.524,4.142,4.142,0,0,1-.891,2.87,4.507,4.507,0,0,1-2.606,1.689A3.659,3.659,0,0,1,407.95,60.2Zm-17.216,0a4.361,4.361,0,0,1-3.313-1.663,4.057,4.057,0,0,1-.9-3.377,4.817,4.817,0,0,1,2.986-3.336,3.663,3.663,0,0,1,1.1-.153,4.4,4.4,0,0,1,1.818.368,4.725,4.725,0,0,1,2.556,3.524,4.142,4.142,0,0,1-.891,2.87,4.507,4.507,0,0,1-2.606,1.689A3.658,3.658,0,0,1,390.734,60.2Zm-17.216,0a4.361,4.361,0,0,1-3.313-1.663,4.057,4.057,0,0,1-.9-3.377,4.816,4.816,0,0,1,2.986-3.336,3.659,3.659,0,0,1,1.1-.153,4.4,4.4,0,0,1,1.818.368,4.725,4.725,0,0,1,2.555,3.524,4.14,4.14,0,0,1-.891,2.87,4.506,4.506,0,0,1-2.606,1.689A3.658,3.658,0,0,1,373.518,60.2Zm-17.217,0a4.361,4.361,0,0,1-3.313-1.664,4.056,4.056,0,0,1-.9-3.377,4.816,4.816,0,0,1,2.986-3.336,3.659,3.659,0,0,1,1.1-.153,4.4,4.4,0,0,1,1.818.368,4.725,4.725,0,0,1,2.555,3.524,4.142,4.142,0,0,1-.891,2.87,4.507,4.507,0,0,1-2.606,1.689A3.659,3.659,0,0,1,356.3,60.2Zm-17.216,0a4.361,4.361,0,0,1-3.313-1.664,4.056,4.056,0,0,1-.9-3.377,4.814,4.814,0,0,1,2.985-3.336,3.663,3.663,0,0,1,1.1-.153,4.4,4.4,0,0,1,1.818.368,4.725,4.725,0,0,1,2.556,3.524,4.142,4.142,0,0,1-.891,2.87,4.507,4.507,0,0,1-2.606,1.689A3.658,3.658,0,0,1,339.085,60.2Zm-17.216,0a4.361,4.361,0,0,1-3.313-1.663,4.057,4.057,0,0,1-.9-3.377,4.816,4.816,0,0,1,2.986-3.336,3.659,3.659,0,0,1,1.1-.153,4.4,4.4,0,0,1,1.818.368,4.725,4.725,0,0,1,2.555,3.524,4.14,4.14,0,0,1-.891,2.87,4.506,4.506,0,0,1-2.606,1.689A3.658,3.658,0,0,1,321.869,60.2ZM476.816,42.986a4.361,4.361,0,0,1-3.313-1.663,4.058,4.058,0,0,1-.9-3.378,4.816,4.816,0,0,1,2.986-3.336,3.663,3.663,0,0,1,1.1-.153,4.388,4.388,0,0,1,1.817.368,4.725,4.725,0,0,1,2.555,3.524,4.14,4.14,0,0,1-.891,2.87,4.509,4.509,0,0,1-2.606,1.69A3.658,3.658,0,0,1,476.816,42.986Zm-17.216,0a4.362,4.362,0,0,1-3.314-1.664,4.057,4.057,0,0,1-.9-3.377,4.816,4.816,0,0,1,2.986-3.336,3.663,3.663,0,0,1,1.1-.153,4.388,4.388,0,0,1,1.817.368,4.724,4.724,0,0,1,2.555,3.524,4.142,4.142,0,0,1-.891,2.87,4.509,4.509,0,0,1-2.605,1.69A3.658,3.658,0,0,1,459.6,42.986Zm-17.217,0a4.361,4.361,0,0,1-3.313-1.663,4.058,4.058,0,0,1-.9-3.378,4.816,4.816,0,0,1,2.986-3.336,3.663,3.663,0,0,1,1.1-.153,4.388,4.388,0,0,1,1.817.368,4.725,4.725,0,0,1,2.556,3.524,4.141,4.141,0,0,1-.891,2.87,4.51,4.51,0,0,1-2.606,1.69A3.659,3.659,0,0,1,442.383,42.986Zm-17.216,0a4.361,4.361,0,0,1-3.313-1.663,4.058,4.058,0,0,1-.9-3.378,4.816,4.816,0,0,1,2.986-3.336,3.663,3.663,0,0,1,1.1-.153,4.388,4.388,0,0,1,1.817.368,4.725,4.725,0,0,1,2.555,3.524,4.14,4.14,0,0,1-.891,2.87,4.51,4.51,0,0,1-2.606,1.69A3.658,3.658,0,0,1,425.167,42.986Zm-17.217,0a4.361,4.361,0,0,1-3.313-1.664,4.057,4.057,0,0,1-.9-3.377,4.816,4.816,0,0,1,2.986-3.336,3.663,3.663,0,0,1,1.1-.153,4.388,4.388,0,0,1,1.817.368,4.724,4.724,0,0,1,2.555,3.524,4.142,4.142,0,0,1-.891,2.87,4.51,4.51,0,0,1-2.606,1.69A3.659,3.659,0,0,1,407.95,42.986Zm-17.216,0a4.361,4.361,0,0,1-3.313-1.663,4.058,4.058,0,0,1-.9-3.378,4.817,4.817,0,0,1,2.986-3.336,3.667,3.667,0,0,1,1.1-.153,4.388,4.388,0,0,1,1.816.368,4.725,4.725,0,0,1,2.556,3.524,4.142,4.142,0,0,1-.891,2.87,4.51,4.51,0,0,1-2.606,1.69A3.658,3.658,0,0,1,390.734,42.986Zm-17.216,0a4.361,4.361,0,0,1-3.313-1.663,4.058,4.058,0,0,1-.9-3.378,4.816,4.816,0,0,1,2.986-3.336,3.663,3.663,0,0,1,1.1-.153,4.388,4.388,0,0,1,1.817.368,4.725,4.725,0,0,1,2.555,3.524,4.139,4.139,0,0,1-.891,2.87,4.509,4.509,0,0,1-2.606,1.69A3.658,3.658,0,0,1,373.518,42.986Zm-17.217,0a4.361,4.361,0,0,1-3.313-1.664,4.057,4.057,0,0,1-.9-3.377,4.816,4.816,0,0,1,2.986-3.336,3.663,3.663,0,0,1,1.1-.153,4.389,4.389,0,0,1,1.817.368,4.724,4.724,0,0,1,2.555,3.524,4.142,4.142,0,0,1-.891,2.87,4.51,4.51,0,0,1-2.606,1.69A3.659,3.659,0,0,1,356.3,42.986Zm-17.216,0a4.361,4.361,0,0,1-3.313-1.664,4.057,4.057,0,0,1-.9-3.377,4.814,4.814,0,0,1,2.985-3.336,3.667,3.667,0,0,1,1.1-.153,4.388,4.388,0,0,1,1.816.368,4.725,4.725,0,0,1,2.556,3.524,4.142,4.142,0,0,1-.891,2.87,4.51,4.51,0,0,1-2.606,1.69A3.658,3.658,0,0,1,339.085,42.986Zm-17.216,0a4.361,4.361,0,0,1-3.313-1.663,4.058,4.058,0,0,1-.9-3.378,4.816,4.816,0,0,1,2.986-3.336,3.663,3.663,0,0,1,1.1-.153,4.388,4.388,0,0,1,1.817.368,4.724,4.724,0,0,1,2.555,3.524,4.14,4.14,0,0,1-.891,2.87,4.509,4.509,0,0,1-2.606,1.69A3.658,3.658,0,0,1,321.869,42.986ZM476.806,25.777a3.992,3.992,0,0,1-2.293-.757,4.262,4.262,0,0,1-1.91-4.291,4.816,4.816,0,0,1,2.986-3.336,3.576,3.576,0,0,1,1.123-.177,4.339,4.339,0,0,1,3.047,1.32,4.136,4.136,0,0,1,1.288,3.362,4.3,4.3,0,0,1-2,3.162A4,4,0,0,1,476.806,25.777Zm-17.217,0a3.987,3.987,0,0,1-2.293-.757,4.262,4.262,0,0,1-1.91-4.291,4.816,4.816,0,0,1,2.986-3.336,3.576,3.576,0,0,1,1.123-.177,4.342,4.342,0,0,1,3.047,1.32,4.137,4.137,0,0,1,1.288,3.363,4.3,4.3,0,0,1-2,3.161A4,4,0,0,1,459.589,25.777Zm-120.551-.006a3.635,3.635,0,0,1-.749-.078,4.748,4.748,0,0,1-3.416-3.43,4.447,4.447,0,0,1,2.985-4.869,3.667,3.667,0,0,1,1.1-.153,4.388,4.388,0,0,1,1.816.368,4.723,4.723,0,0,1,2.556,3.524,4.122,4.122,0,0,1-1.108,3.145A4.409,4.409,0,0,1,339.038,25.771Zm103.346,0a4.362,4.362,0,0,1-3.314-1.664,4.058,4.058,0,0,1-.9-3.377,4.813,4.813,0,0,1,2.986-3.336,3.663,3.663,0,0,1,1.1-.153,4.388,4.388,0,0,1,1.817.368,4.723,4.723,0,0,1,2.556,3.524,4.141,4.141,0,0,1-.891,2.87,4.51,4.51,0,0,1-2.606,1.69A3.655,3.655,0,0,1,442.384,25.77Zm-17.216,0a4.362,4.362,0,0,1-3.314-1.664,4.058,4.058,0,0,1-.9-3.377,4.813,4.813,0,0,1,2.986-3.336,3.663,3.663,0,0,1,1.1-.153,4.388,4.388,0,0,1,1.817.368,4.722,4.722,0,0,1,2.555,3.524,4.139,4.139,0,0,1-.891,2.87,4.51,4.51,0,0,1-2.606,1.69A3.654,3.654,0,0,1,425.168,25.77Zm-17.217,0a4.362,4.362,0,0,1-3.314-1.664,4.057,4.057,0,0,1-.9-3.377,4.813,4.813,0,0,1,2.986-3.336,3.663,3.663,0,0,1,1.1-.153,4.388,4.388,0,0,1,1.817.368,4.722,4.722,0,0,1,2.555,3.524,4.141,4.141,0,0,1-.891,2.87,4.51,4.51,0,0,1-2.606,1.69A3.655,3.655,0,0,1,407.951,25.77Zm-17.216,0a4.362,4.362,0,0,1-3.314-1.664,4.058,4.058,0,0,1-.9-3.377,4.814,4.814,0,0,1,2.986-3.336,3.667,3.667,0,0,1,1.1-.153,4.388,4.388,0,0,1,1.816.368,4.723,4.723,0,0,1,2.556,3.524,4.142,4.142,0,0,1-.891,2.87,4.51,4.51,0,0,1-2.606,1.69A3.655,3.655,0,0,1,390.735,25.77Zm-17.216,0a4.362,4.362,0,0,1-3.314-1.664,4.058,4.058,0,0,1-.9-3.377,4.813,4.813,0,0,1,2.986-3.336,3.663,3.663,0,0,1,1.1-.153,4.388,4.388,0,0,1,1.817.368,4.722,4.722,0,0,1,2.555,3.524,4.139,4.139,0,0,1-.891,2.87,4.509,4.509,0,0,1-2.606,1.69A3.655,3.655,0,0,1,373.519,25.77Zm-17.217,0a4.362,4.362,0,0,1-3.314-1.664,4.056,4.056,0,0,1-.9-3.377,4.813,4.813,0,0,1,2.986-3.336,3.663,3.663,0,0,1,1.1-.153,4.389,4.389,0,0,1,1.817.368,4.722,4.722,0,0,1,2.555,3.524,4.141,4.141,0,0,1-.891,2.87,4.509,4.509,0,0,1-2.606,1.69A3.655,3.655,0,0,1,356.3,25.77Zm-34.432,0a4.362,4.362,0,0,1-3.314-1.664,4.058,4.058,0,0,1-.9-3.377,4.813,4.813,0,0,1,2.986-3.336,3.663,3.663,0,0,1,1.1-.153,4.388,4.388,0,0,1,1.817.368,4.722,4.722,0,0,1,2.555,3.524,4.139,4.139,0,0,1-.891,2.87,4.509,4.509,0,0,1-2.606,1.69A3.655,3.655,0,0,1,321.87,25.77ZM476.806,8.56a3.987,3.987,0,0,1-2.293-.757,4.262,4.262,0,0,1-1.91-4.29A4.813,4.813,0,0,1,475.589.177,3.573,3.573,0,0,1,476.712,0a4.337,4.337,0,0,1,3.046,1.32,4.136,4.136,0,0,1,1.288,3.362,4.3,4.3,0,0,1-2,3.162A4,4,0,0,1,476.806,8.56Zm-17.217,0A3.982,3.982,0,0,1,457.3,7.8a4.262,4.262,0,0,1-1.91-4.29A4.813,4.813,0,0,1,458.373.177,3.573,3.573,0,0,1,459.5,0a4.339,4.339,0,0,1,3.046,1.32,4.137,4.137,0,0,1,1.288,3.363,4.3,4.3,0,0,1-2,3.161A4,4,0,0,1,459.589,8.56Zm-120.55-.006a3.637,3.637,0,0,1-.75-.078,4.748,4.748,0,0,1-3.416-3.429A4.446,4.446,0,0,1,337.858.177a3.657,3.657,0,0,1,1.1-.153,4.394,4.394,0,0,1,1.816.368,4.725,4.725,0,0,1,2.556,3.524,4.124,4.124,0,0,1-1.109,3.146A4.407,4.407,0,0,1,339.039,8.554Zm103.344,0A4.361,4.361,0,0,1,439.07,6.89a4.057,4.057,0,0,1-.9-3.377A4.813,4.813,0,0,1,441.156.177a3.654,3.654,0,0,1,1.1-.153,4.4,4.4,0,0,1,1.817.368,4.725,4.725,0,0,1,2.556,3.524,4.142,4.142,0,0,1-.891,2.87,4.507,4.507,0,0,1-2.606,1.689A3.658,3.658,0,0,1,442.383,8.553Zm-17.216,0a4.361,4.361,0,0,1-3.313-1.663,4.057,4.057,0,0,1-.9-3.377A4.813,4.813,0,0,1,423.94.177a3.653,3.653,0,0,1,1.1-.153,4.395,4.395,0,0,1,1.817.368,4.725,4.725,0,0,1,2.555,3.524,4.14,4.14,0,0,1-.891,2.87,4.507,4.507,0,0,1-2.606,1.689A3.657,3.657,0,0,1,425.167,8.553Zm-17.217,0a4.361,4.361,0,0,1-3.313-1.664,4.056,4.056,0,0,1-.9-3.377A4.813,4.813,0,0,1,406.724.177a3.654,3.654,0,0,1,1.1-.153,4.395,4.395,0,0,1,1.817.368A4.725,4.725,0,0,1,412.2,3.916a4.142,4.142,0,0,1-.891,2.87A4.507,4.507,0,0,1,408.7,8.475,3.657,3.657,0,0,1,407.95,8.553Zm-17.216,0a4.361,4.361,0,0,1-3.313-1.663,4.057,4.057,0,0,1-.9-3.377A4.814,4.814,0,0,1,389.507.177a3.657,3.657,0,0,1,1.1-.153,4.394,4.394,0,0,1,1.816.368,4.725,4.725,0,0,1,2.556,3.524,4.142,4.142,0,0,1-.891,2.87,4.507,4.507,0,0,1-2.606,1.689A3.658,3.658,0,0,1,390.734,8.553Zm-17.216,0a4.361,4.361,0,0,1-3.313-1.663,4.057,4.057,0,0,1-.9-3.377A4.813,4.813,0,0,1,372.291.177a3.653,3.653,0,0,1,1.1-.153,4.4,4.4,0,0,1,1.817.368,4.725,4.725,0,0,1,2.555,3.524,4.14,4.14,0,0,1-.891,2.87,4.506,4.506,0,0,1-2.606,1.689A3.657,3.657,0,0,1,373.518,8.553Zm-17.217,0a4.361,4.361,0,0,1-3.313-1.664,4.056,4.056,0,0,1-.9-3.377A4.813,4.813,0,0,1,355.075.177a3.654,3.654,0,0,1,1.1-.153,4.4,4.4,0,0,1,1.817.368,4.725,4.725,0,0,1,2.555,3.524,4.142,4.142,0,0,1-.891,2.87,4.507,4.507,0,0,1-2.606,1.689A3.657,3.657,0,0,1,356.3,8.553Zm-34.432,0a4.361,4.361,0,0,1-3.313-1.663,4.057,4.057,0,0,1-.9-3.377A4.813,4.813,0,0,1,320.642.177a3.653,3.653,0,0,1,1.1-.153,4.4,4.4,0,0,1,1.817.368,4.725,4.725,0,0,1,2.555,3.524,4.14,4.14,0,0,1-.891,2.87,4.506,4.506,0,0,1-2.606,1.689A3.657,3.657,0,0,1,321.869,8.553Z" transform="translate(-317.579 0)" fill="rgba(94,114,228,0.2)"/>
</svg>
