<svg xmlns="http://www.w3.org/2000/svg" width="53.987" height="51.911" viewBox="0 0 53.987 51.911">
  <path id="talk" d="M24.841,3C12.226,3,2,12.3,2,23.764A19.8,19.8,0,0,0,9.053,38.725a11.543,11.543,0,0,1-4.3,5.868l0,0a1.035,1.035,0,0,0,.58,1.983,16.559,16.559,0,0,0,10.2-3.889,24.285,24.285,0,0,0,4.064,1.265A16.852,16.852,0,0,1,20.8,29.994H16.535a2.076,2.076,0,1,1,0-4.153h7.41a20.7,20.7,0,0,1,5.962-4.153H16.535a2.076,2.076,0,1,1,0-4.153H33.147a2.077,2.077,0,0,1,2.076,2.076,2.062,2.062,0,0,1-.077.393,23.007,23.007,0,0,1,4.23-.393,22.621,22.621,0,0,1,8.095,1.48C46.025,10.888,36.456,3,24.841,3ZM39.376,23.764c-9.174,0-16.612,6.508-16.612,14.535S30.2,52.835,39.376,52.835a18.616,18.616,0,0,0,6.2-1.059,16.039,16.039,0,0,0,9.157,3.111,1.037,1.037,0,0,0,.576-1.987,12.116,12.116,0,0,1-3.849-4.648,13.565,13.565,0,0,0,4.53-9.952C55.987,30.272,48.55,23.764,39.376,23.764ZM33.147,32.07H45.605a2.076,2.076,0,1,1,0,4.153H33.147a2.076,2.076,0,1,1,0-4.153Zm0,8.306H45.605a2.076,2.076,0,1,1,0,4.153H33.147a2.076,2.076,0,1,1,0-4.153Z" transform="translate(-2 -3)" fill="#1797d1"/>
</svg>
