<svg xmlns="http://www.w3.org/2000/svg" width="16.88" height="15.412" viewBox="0 0 16.88 15.412">
  <path id="icons8_user_folder" d="M3.1,4A1.1,1.1,0,0,0,2,5.1V7.3H18.88V6.569a1.1,1.1,0,0,0-1.1-1.1l-9.891,0a2.055,2.055,0,0,1-.428-.555C7.178,4.465,6.887,4,6.4,4ZM2.367,8.037A.367.367,0,0,0,2,8.4v9.908a1.1,1.1,0,0,0,1.1,1.1H17.779a1.1,1.1,0,0,0,1.1-1.1V8.4a.367.367,0,0,0-.367-.367Zm8.606,1.1a.183.183,0,0,1,.163.1l.136.275a1.335,1.335,0,0,1,.869.4,1.9,1.9,0,0,1,.495,1.347,2.583,2.583,0,0,1-.184.918.655.655,0,0,1,.19.571.853.853,0,0,1-.573.762,2.14,2.14,0,0,1-.488.96l-.04.139v.712c.138.318.566.441,1.061.584.8.231,1.8.519,1.874,1.846a.185.185,0,0,1-.049.137.182.182,0,0,1-.133.057H6.587A.183.183,0,0,1,6.4,17.75c.078-1.327,1.074-1.614,1.874-1.846.494-.143.923-.266,1.061-.584v-.81a2.088,2.088,0,0,1-.528-1,.839.839,0,0,1-.571-.742c0-.353.078-.513.188-.6a2.956,2.956,0,0,1-.178-1A1.813,1.813,0,0,1,8.765,9.84,2.969,2.969,0,0,1,10.973,9.137Z" transform="translate(-2 -4)" fill="#fff"/>
</svg>
