<svg xmlns="http://www.w3.org/2000/svg" xmlns:xlink="http://www.w3.org/1999/xlink" width="37" height="12" viewBox="0 0 37 12">
  <defs>
    <clipPath id="clip-path">
      <path id="Path_469" data-name="Path 469" d="M3.5,4h37V16H3.5Z"/>
    </clipPath>
  </defs>
  <g id="card-visa" transform="translate(-3.5 -4)" clip-path="url(#clip-path)">
    <path id="Path_467" data-name="Path 467" d="M19.5,15.8h-3L18.4,4.2h3ZM30.4,4.5A6.164,6.164,0,0,0,27.7,4c-3,0-5,1.6-5.1,3.9,0,1.7,1.5,2.6,2.6,3.2,1.2.6,1.6.9,1.6,1.4,0,.8-.9,1.1-1.8,1.1a6.388,6.388,0,0,1-2.8-.6l-.4-.2-.4,2.6a9.26,9.26,0,0,0,3.3.6c3.1,0,5.2-1.6,5.2-4,0-1.3-.8-2.3-2.5-3.2-1-.5-1.7-.9-1.7-1.4s.5-1,1.7-1a5.743,5.743,0,0,1,2.2.4L30,7l.4-2.5Zm4,7.2c.2-.7,1.2-3.3,1.2-3.3A8.2,8.2,0,0,1,36,7.3l.2,1s.6,2.8.7,3.4H34.4Zm3.7-7.5H35.8a1.5,1.5,0,0,0-1.6,1L29.7,15.9h3.1s.5-1.4.6-1.7h3.8c.1.4.4,1.7.4,1.7h2.8L38.1,4.2ZM14,4.2l-2.9,7.9-.3-1.6A8.545,8.545,0,0,0,6.7,5.6L9.4,15.8h3.2L17.3,4.2H14Z" fill="#00579f"/>
    <path id="Path_468" data-name="Path 468" d="M8.4,4.2H3.5v.2c3.8,1,6.3,3.3,7.3,6.1l-1-5.3a1.279,1.279,0,0,0-1.4-1Z" fill="#faa61a"/>
  </g>
</svg>
