<svg xmlns="http://www.w3.org/2000/svg" width="59.082" height="55.379" viewBox="0 0 59.082 55.379">
  <path id="writing" d="M38.442,2.125a2.548,2.548,0,0,0-2.525,1.238L34.825,5.21l4.39,2.565,1.092-1.842a2.547,2.547,0,0,0-1.864-3.808ZM33.054,7.54a2.54,2.54,0,0,0-2.485,1.283L25.927,17.1l5.588-1.389.013,0a3.3,3.3,0,0,1,3.32.586l.022,0,1.11.7L38.2,13.087a2.54,2.54,0,0,0-.981-3.475l-3.2-1.771A2.535,2.535,0,0,0,33.054,7.54Zm2.925,9.467L28.749,30.1l5.317,1.274a1.031,1.031,0,0,0,1.132-.457c.218-.357.554-.912,1.074-1.78,1.066-1.779,3.863,0,2.77,1.536-.3.418-.653.952-1.008,1.509a4.966,4.966,0,0,1-5.481,2.135l-8.987-2.441a5.678,5.678,0,0,0-5.055,10.15l0,0S34.713,51.28,37.2,52.681a7.954,7.954,0,0,0,1.291.737l.053.031,0,0a7.953,7.953,0,0,0,3.222.688H61.082v-25H55.206ZM25.927,17.1,13.619,20.162l-.022.022a3.392,3.392,0,0,0-2.343,2.272l-.022.022L2.763,40.254A4.545,4.545,0,0,0,2.2,41.426l0,.009v0A4.544,4.544,0,0,0,10.561,44.9l1.869-3.373-4.261,7.74a4.36,4.36,0,0,0,.044,4.283l-.3.528a2.274,2.274,0,0,0,3.941,2.268l.351-.6a4.359,4.359,0,0,0,3.626-2.246l3.413-6.178s-5.437-2.417-6.489-6.382l0,0a9.314,9.314,0,0,1,7.248-13.106Z" transform="translate(-2 -2.104)" fill="#3efb37"/>
</svg>
